<?xml version="1.0" standalone="no"?>
<!DOCTYPE svg PUBLIC "-//W3C//DTD SVG 1.1//EN" "http://www.w3.org/Graphics/SVG/1.1/DTD/svg11.dtd" >
<svg>
<metadata>
Created by FontForge 20110222 at Sat Jun 13 22:07:25 2015
 By www-data
(c) Joe Buckingham @ www.oufoufsworld.co.uk
</metadata>
<defs>
<font id="ComickBookSimple" horiz-adv-x="1229" >
  <font-face 
    font-family="ComickBook"
    font-weight="400"
    font-stretch="normal"
    units-per-em="2048"
    panose-1="2 0 4 0 0 0 0 0 0 0"
    ascent="1638"
    descent="-410"
    x-height="1037"
    cap-height="1514"
    bbox="-489 -600 3201 2239"
    underline-thickness="174"
    underline-position="-185"
    unicode-range="U+0020-F002"
  />
<missing-glyph horiz-adv-x="1024" 
d="M64 0v2239h896v-2239h-896zM896 64v2111h-768v-2111h768z" />
    <glyph glyph-name=".notdef" horiz-adv-x="1024" 
d="M64 0v2239h896v-2239h-896zM896 64v2111h-768v-2111h768z" />
    <glyph glyph-name="NULL" horiz-adv-x="0" 
 />
    <glyph glyph-name="nonmarkingreturn" horiz-adv-x="1098" 
 />
    <glyph glyph-name="space" unicode=" " horiz-adv-x="1098" 
 />
    <glyph glyph-name="exclam" unicode="!" horiz-adv-x="461" 
d="M438 470q0 -56 -41.5 -89.5t-100.5 -33.5q-152 0 -152 226l2 65l3 65l65 1078q0 56 43 92q40 32 99 32q26 0 52 -8.5t47 -25.5q43 -34 43 -90zM400 72q0 -67 -53 -108q-49 -38 -116 -38q-69 0 -117 38q-53 42 -53 108q0 64 53 107q49 38 117 38q66 0 117.5 -40t51.5 -105
z" />
    <glyph glyph-name="quotedbl" unicode="&#x22;" horiz-adv-x="853" 
d="M792 1469q0 -95 -15 -163l-35 -163q-14 -67 -26 -84q-22 -31 -72 -31t-71 31q-10 17 -27 84q-45 198 -45 249v26t2 31q0 66 38.5 100.5t108.5 34.5q57 0 97 -28q45 -32 45 -87zM352 1469q0 -95 -15 -163l-35 -163q-14 -67 -26 -84q-22 -31 -72 -31t-71 31q-10 17 -27 84
q-45 198 -45 249v26t2 31q0 66 38.5 100.5t108.5 34.5q57 0 97 -28q45 -32 45 -87z" />
    <glyph glyph-name="numbersign" unicode="#" horiz-adv-x="1455" 
d="M1394 1047q0 -98 -164 -98h-93l-60 -270q41 0 71.5 1t60.5 2q90 -12 102 -97q1 -9 1 -13q0 -59 -65 -83q-47 -17 -129 -17l-77 2q0 -25 -5 -61.5t-17 -102.5q-29 -108 -129 -108q-94 0 -107 85q-1 4 -1 16q0 49 25 170l-271 -3q-6 -30 -16.5 -71.5t-24.5 -85.5
q-34 -116 -115 -116q-46 0 -81 26q-39 27 -46 70q-2 17 44 175q-91 0 -135 9q-90 21 -100 98q-1 4 -1 13q0 88 153 88l130 -3l51 268l-34 -1h-71h-12q-17 0 -29.5 0.5t-25.5 3.5q-77 20 -77 110q0 100 215 100l76 -1q19 95 30 125q32 87 91 87q129 0 129 -123
q0 -14 -3 -34.5t-10 -52.5l260 3q0 22 9 73l12 63q29 96 106 96q45 0 82.5 -25t43.5 -70q3 -27 -17 -134l59 3q165 0 165 -117zM900 947l-266 -3l-51 -269l261 2z" />
    <glyph glyph-name="dollar" unicode="$" horiz-adv-x="1574" 
d="M1513 404q0 -208 -192 -330q-145 -92 -382 -124v-58q0 -50 -30 -94q-38 -56 -110 -56q-67 0 -106 52t-39 152q-220 29 -387 121q-206 113 -206 268q0 58 43 92.5t103 34.5q74 0 137 -57l135 -126q74 -56 176 -72v451q-108 0 -202 21q-75 17 -137 46q-151 69 -151 234
q0 170 156 310q134 119 334 173v163q0 56 45 92q41 32 100 32t99 -33.5t40 -90.5v-140q190 -17 290 -80t100 -173q0 -23 -7.5 -44t-25.5 -43q-36 -42 -80 -42q-17 0 -30 8q-143 84 -247 102v-312q270 -27 399 -111q175 -115 175 -366zM655 1155q-169 -62 -169 -157
q0 -81 168 -96zM1185 448q0 146 -246 184v-402q246 72 246 218z" />
    <glyph glyph-name="percent" unicode="%" horiz-adv-x="2385" 
d="M2324 381q0 -150 -95 -264q-64 -77 -152 -117t-205 -40q-110 0 -197.5 25.5t-161.5 84.5q-158 125 -158 332q0 140 92 254q69 85 170.5 130t235.5 45q98 0 175 -23.5t142 -77.5q129 -109 151 -295zM1738 1504q0 -37 -11 -58q-6 -12 -43 -89q-51 -106 -85 -179
q-117 -254 -211 -410l-240 -397l-199 -382q-41 -79 -129 -79q-58 0 -99 31q-47 35 -47 90q0 23 10 46q87 206 324.5 591.5t324.5 593.5q66 157 98 213q84 151 161 151q55 0 100.5 -34t45.5 -88zM1030 1145q0 -149 -94 -264q-64 -77 -152 -117t-206 -40q-109 0 -196.5 26
t-162.5 84q-158 125 -158 332q0 138 93 254q69 85 170.5 130t234.5 45q98 0 175 -23.5t142 -77.5q129 -109 151 -295zM2059 371q0 125 -51.5 188t-145.5 63q-114 0 -179 -88q-49 -67 -49 -152q0 -105 69 -165q56 -49 147 -49q89 0 151 56q31 28 44.5 63.5t13.5 83.5z
M765 1135q0 125 -51.5 188t-145.5 63q-114 0 -179 -88q-48 -66 -48 -152q0 -105 69 -165q56 -49 146 -49q89 0 151 56q31 28 44.5 63.5t13.5 83.5z" />
    <glyph glyph-name="ampersand" horiz-adv-x="1451" 
d="M126 1542q-19 -19 -38 -37q-21 -22 -21 -41q0 -9 5 -36q10 -51 21 -76q17 -37 43 -37q8 0 20 5q110 49 120 53q38 16 54 19l144 24q1 0 40 2.5t60 2.5q40 0 66.5 -3.5t42.5 -13.5t63 -18q74 -13 94 -72q12 -35 35 -75q19 -33 19 -49q0 -7 -1.5 -15t-10.5 -23
q-22 -37 -43 -74q-22 -30 -58 -34.5t-58 -13.5t-57 -40q-24 -21 -38.5 -44t-14.5 -43q0 -22 17.5 -39.5t55.5 -34.5t52 -31q22 -22 46 -60.5t32 -71.5q12 -38 17 -56q10 -33 10 -55q0 -13 -3 -27q-8 -33 -15 -65q-10 -34 -34.5 -62.5t-41 -34.5t-65.5 -6q-25 0 -59 -4
q-94 -11 -113 -11q-23 0 -32 1.5t-18 7.5q-22 14 -55.5 29t-70.5 31q-7 3 -77 53q-24 17 -40 17q-9 0 -19.5 -5.5t-19.5 -16.5q-28 -31 -56 -61q-23 -28 -23 -51q0 -13 7 -26q18 -35 60 -72.5t69 -41t78 -21.5q64 -23 129 -45q10 -2 13.5 -17t3.5 -42q0 -24 -2 -48t-3 -43
q0 -44 5 -60q12 -38 55 -42q11 -1 40 -4.5t43 -3.5q24 0 39.5 6.5t27.5 25.5q20 32 28 67t8 71q0 24 -3 66t-3 48q0 4 60 17q37 8 60 25q47 30 67 44q34 24 53 58q23 41 38.5 99.5t15.5 110.5v37t1 38q0 41 -2 71t-17 52l-120 180q31 31 49 47q54 50 77.5 61.5t40.5 49.5
q13 29 19 64q3 16 6.5 48t3.5 44q0 35 -10 58q-13 51 -23 78t-30 53t-40 63q-34 64 -44 69.5t-41 13.5q-70 19 -81 23.5t-68 22.5q-8 2 -21 7q-1 37 -2 100.5t-1 73.5q0 18 0.5 42t2.5 24q-6 25 -12 51q-27 51 -84 51q-56 0 -103 -68q-35 -51 -35 -64l6 -192q0 -2 -10 -2
h-24q-28 0 -45.5 -1.5t-46.5 -8.5q-74 -11 -110 -17q-63 -12 -100 -49z" />
    <glyph glyph-name="quotesingle" unicode="'" horiz-adv-x="413" 
d="M352 1469q0 -95 -15 -163l-35 -163q-14 -67 -26 -84q-22 -31 -72 -31t-71 31q-10 17 -27 84q-45 198 -45 249v26t2 31q0 66 38.5 100.5t108.5 34.5q57 0 97 -28q45 -32 45 -87z" />
    <glyph glyph-name="parenleft" unicode="(" horiz-adv-x="812" 
d="M751 -295q0 -56 -42 -96t-100 -40q-288 0 -439 452q-53 161 -81 336.5t-28 356.5q0 302 140 686q171 474 405 474q59 0 102 -44.5t43 -102.5q0 -16 -98 -160q-115 -171 -180 -339q-98 -255 -98 -538q0 -332 98 -564q59 -144 180 -278q98 -109 98 -143z" />
    <glyph glyph-name="parenright" unicode=")" horiz-adv-x="812" 
d="M61 -295q0 -56 42 -96t100 -40q288 0 439 452q53 161 81 336.5t28 356.5q0 302 -140 686q-171 474 -405 474q-59 0 -102 -44.5t-43 -102.5q0 -16 98 -160q116 -171 180 -339q98 -255 98 -538q0 -332 -98 -564q-59 -144 -180 -278q-98 -109 -98 -143z" />
    <glyph glyph-name="asterisk" unicode="*" horiz-adv-x="919" 
d="M858 1371q0 -57 -59 -87l-101 -51l-8 -4l100 -60q57 -42 57 -89q0 -45 -35 -77t-81 -32q-36 0 -85 31l-78 50q0 -30 1 -41t8 -61q1 -6 1 -16q0 -40 -31.5 -70.5t-84.5 -30.5q-100 0 -113 92q-3 28 -6.5 61t-3.5 59q-112 -74 -151 -74q-46 0 -81 32.5t-35 76.5t57 89
l100 60l-108 55q-60 30 -60 87q0 46 33.5 78t81.5 32q26 0 165 -70v100q0 115 116 115q49 0 82 -29t33 -76l-3 -114q150 74 175 74q47 0 80.5 -31.5t33.5 -78.5z" />
    <glyph glyph-name="plus" unicode="+" horiz-adv-x="1338" 
d="M1277 643q0 -84 -74 -105q-30 -8 -144 -8l-264 -3v-133l1 -44l1 -43q0 -175 -145 -175q-146 0 -146 267l1 62l1 61l-232 -4q-81 0 -138 25q-77 33 -77 95q0 121 300 121l83 -1l64 -1l-2 189q0 100 36 150t112 50q139 0 139 -133l-2 -41l-1 -41l2 -170h130l130 3
q225 0 225 -121z" />
    <glyph glyph-name="comma" unicode="," horiz-adv-x="563" 
d="M502 130q0 -31 -17 -57q-36 -116 -153 -337q-54 -80 -131 -80q-52 0 -94 29q-46 32 -46 82q0 26 71 155l45 81q-113 41 -113 127q0 70 78 112q65 34 141 34q78 0 142 -34q77 -41 77 -112z" />
    <glyph glyph-name="hyphen" unicode="-" horiz-adv-x="1010" 
d="M949 571q0 -56 -42 -88t-125 -32q-56 0 -176 -3.5t-197 -5t-167 -1.5q-67 0 -118 26q-63 33 -63 94q0 59 63 94q51 27 118 27l260 4l261 5q70 0 120 -25q66 -33 66 -95z" />
    <glyph glyph-name="period" unicode="." horiz-adv-x="461" 
d="M400 72q0 -67 -53 -108q-49 -38 -116 -38q-69 0 -117 38q-53 42 -53 108q0 64 53 107q49 38 117 38q66 0 117.5 -40t51.5 -105z" />
    <glyph glyph-name="slash" unicode="/" horiz-adv-x="1186" 
d="M1125 1504q0 -37 -11 -58l-128 -268q-121 -260 -211 -410l-240 -397l-199 -382q-41 -79 -129 -79q-57 0 -99 32q-47 35 -47 89q0 23 10 46q87 205 323 588.5t326 596.5q69 162 98 213q83 151 162 151q52 0 98.5 -34t46.5 -88z" />
    <glyph glyph-name="zero" unicode="0" horiz-adv-x="1440" 
d="M1379 793q0 -832 -669 -832q-649 0 -649 753q0 320 150 559q177 282 489 282q304 0 502 -249q177 -224 177 -513zM723 1280q-168 0 -277 -170q-98 -153 -98 -346q0 -162 14 -248q23 -142 89 -217q82 -93 233 -93q196 0 294 175q78 140 78 347q0 216 -76 369
q-91 183 -257 183z" />
    <glyph glyph-name="one" unicode="1" horiz-adv-x="914" 
d="M853 128q0 -57 -40 -92.5t-100 -35.5q-58 -3 -97.5 -5t-84.5 -2l-182 -7q-202 0 -202 107q0 159 191 159v837q-17 -10 -124 -10q-60 0 -105 36q-48 39 -48 97q0 79 201 216q196 131 291 131q99 0 99 -108q0 -18 -5.5 -202.5t-5.5 -263.5q0 -109 -3.5 -223.5t-7.5 -241.5
v-263q102 0 149 -18q74 -29 74 -111z" />
    <glyph glyph-name="two" unicode="2" horiz-adv-x="1321" 
d="M1260 131q0 -57 -45 -95t-102 -38h-42l-69 -1h-635q-177 0 -204 9q-40 14 -90 116q-12 24 -12 50q0 110 226 276q55 40 97 71q95 70 139 103q90 68 181 137q225 173 225 346q0 51 -76 112t-129 61q-79 0 -251 -95l-174 -94q-60 0 -105 27q-53 32 -53 88q0 116 230 230
q207 102 353 102q184 0 346 -122q173 -129 173 -301q0 -239 -189 -446q-118 -130 -348 -269q-188 -113 -188 -130q2 -7 4 -9q48 5 78 7.5t67 2.5l145 -1l147 -2q53 0 98.5 -6t88.5 -20q114 -36 114 -109z" />
    <glyph glyph-name="three" unicode="3" horiz-adv-x="1241" 
d="M1180 442q0 -222 -178 -361q-163 -127 -392 -127q-174 0 -315 63q-167 75 -225 218q-9 21 -9 45q0 56 51 94q45 33 104 33q70 0 111 -50q72 -87 82 -94q68 -50 201 -50q93 0 173 48q89 56 89 146q0 249 -369 282q-161 14 -161 123q0 82 125 121l237 49q150 31 150 136
q0 75 -62 112t-194 37q-59 0 -188 -60q-124 -57 -140 -59q-60 0 -105.5 38t-45.5 96q0 84 185 169q165 75 269 75q232 0 382 -84q185 -105 185 -322q0 -219 -187 -310q227 -114 227 -368z" />
    <glyph glyph-name="four" unicode="4" horiz-adv-x="1469" 
d="M1408 532q0 -58 -48 -96q-42 -33 -104 -33l-199 1l4 -158l3 -183q0 -60 -44.5 -96.5t-106.5 -36.5q-64 0 -108 35t-44 99l-4 182l-4 162q-78 0 -196.5 4.5t-145.5 4.5q-128 0 -202 6.5t-92 15.5q-56 27 -56 77q0 57 21 99q7 14 61 84q131 173 201 289q106 174 181 303
l89 157q54 93 141 93q52 0 103 -38t51 -88q0 -19 -11 -36q-30 -46 -127 -221.5t-262 -480.5l257 -1q0 47 4.5 116t4.5 83q0 60 46 99q43 34 106 34q64 0 105 -34q47 -38 47 -99q0 -88 -10 -204q51 0 94.5 -2.5t97.5 -7.5q72 0 109.5 -34.5t37.5 -94.5z" />
    <glyph glyph-name="five" unicode="5" horiz-adv-x="1325" 
d="M1263 523q0 -292 -181 -445q-168 -141 -469 -141q-156 0 -334 83q-211 98 -211 228q0 57 49 96q46 34 106 34q61 0 111 -47q90 -84 98 -88q73 -47 181 -47q348 0 348 327q0 297 -219 297q-97 0 -276.5 -60t-254.5 -60q-61 0 -103 35q-47 38 -47 96q0 41 1 67q5 131 5 163
q0 73 1.5 120t4.5 111l2 72l3 73q0 95 157 95l68 -3l67 -3q58 0 177 2.5t157 2.5q109 0 176.5 1.5t156.5 4.5q56 0 96 -34t40 -89q0 -149 -336 -149l-59 1l-58 1h-317l1 -57q0 -38 -1 -60q-5 -109 -5 -125q122 54 344 54q246 0 387 -157q134 -151 134 -399z" />
    <glyph glyph-name="six" unicode="6" horiz-adv-x="1387" 
d="M1266 1266q0 -29 -42 -50q-37 -17 -69 -17q-31 0 -79 15.5t-123 51.5q-139 68 -209 68q-114 0 -157 -16.5t-94 -59.5q-56 -47 -86 -99q-8 -14 -33 -71q-29 -66 -39.5 -103t-12.5 -92.5t-3 -57.5q41 42 126 82q39 14 79 29l-1 -4q55 20 108 32t95 12q132 0 233.5 -26.5
t179.5 -82.5q87 -63 134 -158t47 -218q0 -128 -36 -228.5t-115 -178.5q-65 -63 -175.5 -97.5t-259.5 -34.5q-169 0 -285 39.5t-183 123.5l3 -3q-100 98 -152 227q-55 136 -55 298q0 47 -1.5 120.5t-1.5 74.5q0 128 16 214q21 114 77 198q109 161 238 252q145 102 295 102
q112 0 199.5 -18.5t161.5 -59.5q107 -61 163.5 -127t56.5 -137zM1018 496q0 110 -79.5 164.5t-233.5 54.5q-42 0 -77.5 -6t-68.5 -20q-38 -14 -122 -65q0 -15 -1 -40.5t-1 -35.5q0 -173 75.5 -258.5t220.5 -85.5q88 0 130 11q60 14 93 55t48.5 97.5t15.5 128.5z" />
    <glyph glyph-name="seven" unicode="7" horiz-adv-x="1469" 
d="M1408 1395q0 -58 -66 -111l-114 -89q-542 -545 -601 -937l-24 -185q-30 -131 -138 -131q-53 0 -95.5 30.5t-56.5 81.5q-8 35 -8 80q0 121 32 250t99 272q169 365 480 578q-104 0 -231 4t-253 8t-225 4q-146 0 -146 129q0 58 48 96q42 33 104 33q1063 0 1138 -36
q57 -27 57 -77z" />
    <glyph glyph-name="eight" unicode="8" horiz-adv-x="1315" 
d="M1254 378q0 -216 -196 -338q-164 -102 -419 -102q-243 0 -400 97q-178 109 -178 322q0 148 55.5 253t165.5 169q-154 114 -154 290q0 104 44.5 186.5t134.5 148.5q159 114 375 114q498 0 498 -436q0 -93 -44.5 -163.5t-132.5 -117.5q251 -130 251 -423zM877 1084
q0 105 -48 149q-47 39 -155 39q-243 0 -243 -204q0 -70 71 -113q33 -20 65.5 -30t69.5 -10q33 0 71.5 12.5t88.5 39.5q80 45 80 117zM936 410q0 58 -22.5 107.5t-68 90.5t-97 63t-109.5 22t-107.5 -26t-90 -73.5t-60 -98.5t-19.5 -114q0 -55 21.5 -93.5t69.5 -65.5
q76 -42 190 -42q140 0 209 42q41 27 62.5 74t21.5 114z" />
    <glyph glyph-name="nine" unicode="9" horiz-adv-x="1385" 
d="M1323 941q0 -166 -37 -324q-43 -183 -127 -310q-101 -152 -228.5 -229t-283.5 -77q-112 0 -201 18.5t-161 58.5q-109 61 -165.5 127t-56.5 137q0 27 42 50q32 14 68 17q86 0 200 -68q68 -41 123 -64t90 -23q75 0 126.5 15.5t87.5 52.5q6 6 61 136q32 75 62 128
q15 24 20 63t6 43q5 26 9 37q-84 -87 -94 -87v4q-55 -21 -108 -32.5t-96 -11.5q-131 0 -233.5 26.5t-180.5 82.5q-89 66 -135 156q-49 96 -49 220q0 136 36 239t117.5 178t188 113.5t239.5 38.5q156 0 273 -47.5t196 -145.5l-3 3q102 -99 156 -227q58 -137 58 -298z
M947 1040q0 186 -77.5 280t-221.5 94q-143 0 -219 -91q-34 -42 -49.5 -99t-15.5 -132q0 -110 80.5 -164.5t234.5 -54.5q43 0 78 6t67 20q35 13 122 65q1 8 1 26v28v22z" />
    <glyph glyph-name="colon" unicode=":" horiz-adv-x="463" 
d="M400 898q0 -67 -53 -108q-49 -38 -116 -38q-69 0 -117 38q-53 42 -53 108q0 64 53 107q49 38 117 38q66 0 117.5 -40t51.5 -105zM402 72q0 -67 -53 -108q-49 -38 -116 -38q-69 0 -117 38q-53 42 -53 108q0 64 53 107q49 38 117 38q66 0 117.5 -40t51.5 -105z" />
    <glyph glyph-name="semicolon" unicode=";" horiz-adv-x="563" 
d="M418 898q0 -67 -53 -108q-49 -38 -117 -38t-116 38q-53 42 -53 108q0 64 53 107q49 38 116 38q66 0 116 -38q54 -42 54 -107zM502 130q0 -31 -17 -57q-36 -116 -153 -337q-54 -80 -131 -80q-52 0 -94 29q-46 32 -46 82q0 26 71 155l45 81q-113 41 -113 127q0 70 78 112
q65 34 141 34q78 0 142 -34q77 -41 77 -112z" />
    <glyph glyph-name="less" unicode="&#x3c;" horiz-adv-x="1001" 
d="M940 1026q0 -55 -203 -213l-256 -197l242 -191q193 -152 193 -200q0 -52 -44.5 -86.5t-98.5 -34.5q-97 0 -307 164l-294 228l-73 45q-38 24 -38 66q0 50 133 134l186 120q327 285 417 285q55 0 99 -33.5t44 -86.5z" />
    <glyph glyph-name="equal" unicode="=" horiz-adv-x="1245" 
d="M1184 882q0 -55 -44 -87q-40 -29 -98 -29l-840 -4q-55 0 -96 30q-45 33 -45 87q0 121 234 121l747 -2q58 0 98 -28q44 -32 44 -88zM1169 474q0 -54 -45 -87q-40 -29 -97 -29l-809 -2q-57 0 -98 28q-47 32 -47 88q0 125 240 125l50 -1l52 -1l370 1q186 0 231 -6
q153 -21 153 -116z" />
    <glyph glyph-name="greater" unicode="&#x3e;" horiz-adv-x="1001" 
d="M940 607q0 -41 -37 -66l-74 -45l-294 -228q-211 -164 -307 -164q-55 0 -97 32q-46 37 -46 89q0 46 193 200l242 191q-85 64 -126 95q-50 38 -129 102q-204 159 -204 213q0 52 46 88q43 32 97 32q88 0 417 -285q33 -30 90 -63l96 -57q133 -79 133 -134z" />
    <glyph glyph-name="question" unicode="?" horiz-adv-x="1210" 
d="M1159 1421q0 -89 -23 -191q-27 -120 -68 -156q-70 -89 -127 -155q-63 -73 -105 -102q-52 -36 -98 -83q-34 -36 -67 -72q-40 -38 -51 -137t-16 -111q-21 -55 -102 -55q-127 0 -149 127q-3 21 -5 39t-2 38q0 162 132 270q40 31 81 63q81 64 135 117q76 74 100 125
q28 61 46 157q14 76 14 126q0 156 -320 156q-45 0 -164 -61.5t-145 -61.5q-58 0 -106 40.5t-48 99.5q0 96 183 180q160 74 280 74q130 0 235 -25t196 -79q194 -115 194 -323zM626 90q0 -63 -54 -107q-48 -39 -116 -39q-65 0 -117 40.5t-52 105.5q0 64 53 107q48 39 116 39
q65 0 117.5 -40.5t52.5 -105.5z" />
    <glyph glyph-name="at" unicode="@" horiz-adv-x="2190" 
d="M2129 330q0 -263 -437 -383q-145 -39 -306.5 -58t-355.5 -19q-394 0 -671 220q-298 238 -298 623q0 406 258 656.5t667 250.5q378 0 653 -196q295 -212 295 -547q0 -267 -197 -404q-172 -118 -449 -118q-58 0 -133 25q-22 23 -22 61q0 10 1 16q-116 -77 -223 -77
q-155 0 -260 68q-123 78 -123 226q0 192 162 326q76 62 163 93t187 31q99 0 200 -45q36 89 108 89q42 0 73 -26.5t31 -69.5q0 -97 -40 -242l-65 -240q0 -38 19 -48q16 -7 58 -7q112 0 184 127q58 107 58 215q0 219 -227 362q-202 128 -453 128q-290 0 -464 -183
q-168 -179 -168 -471q0 -320 245 -475q203 -129 542 -129q292 0 484 85q118 51 231 159q91 85 129 85q56 0 96 -26q48 -30 48 -82zM1193 869q-110 69 -189 69q-50 0 -90.5 -16t-78.5 -52q-72 -66 -72 -163q0 -140 185 -140q42 0 113 33q80 39 94 93z" />
    <glyph glyph-name="A" unicode="A" horiz-adv-x="1671" 
d="M1610 88q0 -56 -44 -90q-39 -30 -98 -30q-93 0 -223 188q-80 116 -154 271q-55 -7 -119.5 -9.5t-176.5 -2.5q-74 0 -148 -0.5t-148 -0.5q-53 -224 -71 -266q-66 -172 -166 -172q-66 0 -126.5 40t-73.5 105l-1 12q0 24 13.5 69t39.5 109l77 187q165 392 272 631
q121 270 192 396q77 137 112 137q138 0 205 -145q39 -86 132 -300q127 -294 165 -380q103 -235 198 -438q12 -22 21 -39q22 -40 65 -115q57 -102 57 -157zM971 688l-74 208q-45 124 -102 270q-12 -28 -56 -136q-31 -77 -69 -168q-42 -101 -82 -197q27 6 79 10.5t111 4.5
q77 0 117.5 2t75.5 6z" />
    <glyph glyph-name="B" unicode="B" horiz-adv-x="1330" 
d="M1269 410q0 -136 -67 -232.5t-197 -153.5q-178 -77 -497 -77l-135 3l-135 2q-66 0 -118 45t-52 112l-7 1235q0 159 160 205q38 10 118.5 16t197.5 6q236 0 417 -113q205 -127 205 -324q0 -219 -239 -331q116 -24 233 -148q60 -64 88 -124.5t28 -120.5zM854 1134
q0 80 -115 128q-94 38 -202 38h-107t-63 -2v-362q37 -4 65 -6t56 -2q366 0 366 206zM969 400q0 131 -70 167q-82 42 -210 66q-143 27 -322 27v-434q114 -20 210 -20q130 0 241 40q151 54 151 154z" />
    <glyph glyph-name="C" unicode="C" horiz-adv-x="1427" 
d="M1366 305q0 -123 -246 -234q-213 -96 -368 -96q-295 0 -498 216q-193 205 -193 479q0 290 203 575q222 314 513 314q82 0 136.5 -18t150.5 -75q210 -125 210 -267q0 -29 -44 -50q-19 -8 -34.5 -12t-35.5 -4q-30 0 -77 16.5t-121 54.5q-59 30 -71 36q-31 15 -65 15
q-103 0 -197 -40q-122 -52 -190 -160q-62 -98 -91 -225q-24 -103 -24 -206q0 -62 45 -133q11 -17 88 -115q93 -117 245 -117q106 0 208 54q36 18 153 102q79 55 120 55q71 0 127 -47t56 -118z" />
    <glyph glyph-name="D" unicode="D" horiz-adv-x="1413" 
d="M1351 723q0 -374 -136 -550q-156 -203 -531 -203q-24 0 -40 -1q-79 -5 -100 -5l-139 -7q-132 0 -191 33q-62 0 -107.5 38t-45.5 98l6 633l5 633q0 66 58 115t125 49q12 0 35 1t56 4l91 3q155 0 290 -22q117 -19 221 -55q272 -93 352 -315q51 -144 51 -449zM1042 636
l-1 83q0 146 -21.5 248t-62.5 165q-111 171 -426 171q-56 0 -79.5 -1.5t-71.5 -6.5l-5 -1075q35 -21 115 -21q16 0 39 1t53 4l92 6q109 0 187 37.5t123 110.5q58 98 58 278z" />
    <glyph glyph-name="E" unicode="E" horiz-adv-x="1358" 
d="M1296 1419q0 -58 -45 -98.5t-104 -40.5q-25 0 -96 -2.5t-102 -2.5l-196 -4l-168 5q-46 0 -90.5 -0.5t-76.5 -4.5q0 -59 -5 -141.5t-5 -129.5q30 5 49 7.5t42 2.5l91 -1l92 -3l89 4l90 6q154 0 154 -133q0 -157 -178 -157l-78 3l-77 4q-210 0 -278 -16v-538l714 2
q59 0 105 -39t46 -99q0 -147 -542 -147q-35 0 -58 1q-113 5 -140 5l-198 5h-22q-8 -3 -70 -3q-108 0 -136 82q-42 51 -42 136q0 20 11 221q6 110 6 185q0 95 5.5 194.5t12.5 211.5v244l-3 91l-3 91q0 119 79 152q28 20 96 20h34q6 0 10.5 0.5t7.5 1.5h9l213 4l214 5
q543 0 543 -124z" />
    <glyph glyph-name="F" unicode="F" horiz-adv-x="1267" 
d="M1268 1419q0 -59 -45 -99t-106 -40q-25 0 -95 -2.5t-101 -2.5l-197 -4l-174 5q-49 0 -92.5 -0.5t-81.5 -6.5v-280q30 6 49 8.5t42 2.5l94 -1l92 -3q10 0 46 2t64 2l111 6q233 0 233 -133q0 -157 -265 -157l-95 3l-94 4q-210 0 -277 -16v-677q0 -59 -54 -100
q-48 -36 -111 -36q-62 0 -103 38q-20 19 -30 42.5t-10 55.5v1148l-4 91l-3 91q0 92 42 130q52 44 195 44l213 4l213 5q544 0 544 -124z" />
    <glyph glyph-name="G" unicode="G" horiz-adv-x="1449" 
d="M1368 512q0 -16 -5 -29l-36 -162q-9 -41 -16 -60q-15 -41 -36 -59q-3 -3 -40 -52q-14 -19 -31 -28q-23 -13 -70 -47q-20 -15 -52 -31q-187 -68 -308 -68q-287 0 -496 187q-217 194 -217 478q0 336 135 564q189 317 603 317q165 0 357 -108q210 -120 210 -257
q0 -26 -45 -47q-35 -15 -69 -15q-61 0 -200.5 68t-203.5 68q-265 0 -389 -243q-85 -172 -85 -391q0 -144 102 -247t248 -103q99 0 200 48q54 26 147 92l9 196l-321 -3q-59 0 -105 39t-46 99q0 147 254 147q22 0 37 -1q73 -5 91 -5l127 -5q132 0 189 -52q54 -49 54 -160
l4 -103q3 -18 4 -27z" />
    <glyph glyph-name="H" unicode="H" horiz-adv-x="1501" 
d="M1439 1417q0 -148 -30 -446t-30 -448l8 -118t4 -100q0 -53 6 -126t6 -92q0 -57 -44.5 -94t-104.5 -37q-183 0 -183 414q4 51 7.5 122t3.5 132l-77 -1l-187 4l-186 4q-72 0 -133 -4t-112 -13l-1 -242q0 -92 -9 -166.5t-29 -138.5q-44 -150 -137 -150q-60 0 -105 36t-45 95
q0 69 6 180t13 247t7 260q0 145 6 269.5t13 245t7 173.5q0 59 44.5 95t104.5 36t105 -36t45 -95q0 -32 -5.5 -134t-5.5 -138q0 -60 -4.5 -128.5t-9.5 -143.5q50 8 105.5 12t130.5 4q25 0 95 -2.5t100 -2.5l196 -4l68 1q0 7 4 98.5t4 130.5q0 212 52.5 321.5t145.5 109.5
q60 0 105.5 -35t45.5 -95z" />
    <glyph glyph-name="I" unicode="I" horiz-adv-x="755" 
d="M694 1384q0 -80 -23 -106q-5 -7 -56 -23.5t-73 -44.5q0 -57 -12 -285q-6 -114 -6 -184l1 -469q100 -12 120 -28q34 -28 34 -125q0 -156 -331 -156h-58l-32 1h-20q-60 0 -105 36q-48 39 -48 99q0 107 10 121q15 21 120 30l-2 504q0 222 22 467q-14 0 -17 -3l3 -2l-17 -1
q-56 0 -99.5 39t-43.5 97q0 80 36 113t118 33l53 -2l54 -1q30 0 81 10q23 4 46.5 7t36.5 3q208 0 208 -130z" />
    <glyph glyph-name="J" unicode="J" horiz-adv-x="1183" 
d="M1122 834q0 -921 -363 -921q-229 0 -448 116q-250 133 -250 315q0 156 155 156q90 0 138 -81q83 -142 91 -151q81 -81 249 -81q38 37 63.5 168t25.5 339q0 21 0.5 113t1.5 205.5t2 247.5q0 86 42 160q52 88 141 88q137 0 137 -183q3 -78 5 -132t2 -114q0 -62 2.5 -120
t5.5 -125z" />
    <glyph glyph-name="K" unicode="K" horiz-adv-x="1311" 
d="M1250 82q0 -57 -41.5 -97t-101.5 -40q-97 0 -251 161q-88 92 -238 294q-114 151 -126 142l-3 1q-15 0 -55 -46q-34 -40 -43 -34q0 -20 1 -34q5 -68 5 -86l7 -119q0 -294 -166 -294q-73 0 -124 48.5t-51 122.5l-2 1294q0 60 48 99q21 17 48.5 27t57.5 10q61 0 107 -37.5
t46 -96.5q3 -68 5 -131t2 -139q0 -60 0.5 -127t1.5 -141l351 373q265 283 336 283q64 0 110.5 -38.5t46.5 -98.5q0 -70 -236 -312q-169 -173 -323 -308q75 -65 259 -266l309 -336q20 -28 20 -74z" />
    <glyph glyph-name="L" unicode="L" horiz-adv-x="1297" 
d="M1236 43q0 -147 -509 -147q-35 0 -58 1q-113 5 -140 5l-198 5q-270 0 -270 215q0 62 6 165q11 181 12 213q7 151 7 263q0 135 6 251.5t13 229t7 161.5q0 60 47 100q21 17 48.5 27t57.5 10q60 0 107 -38t47 -99q0 -129 -13 -345q-21 -341 -24 -409q-14 -272 -14 -473
l717 3q59 0 105 -39t46 -99z" />
    <glyph glyph-name="M" unicode="M" horiz-adv-x="1783" 
d="M1722 1397q0 -63 -13 -185t-13 -173l-4 -190l-3 -190l4 -177l5 -177q0 -44 7 -121l7 -121q0 -67 -53 -107q-49 -35 -118 -35q-159 0 -159 295l4 238l4 238l-7 319q-286 -504 -320 -552q-109 -159 -229 -159q-60 -6 -151 167l-283 544l-7 -319q0 -77 1 -133t2 -105l5 -238
q0 -295 -158 -295q-71 0 -118 35q-54 39 -54 107q0 44 7 121l7 121l4 177l5 177l-3 190l-3 190q0 33 -3 74t-11 105q-13 128 -13 179q0 65 60 109.5t126 44.5q82 0 180 -128q218 -281 245 -328l172 -317q17 -87 39 -87q9 2 27 13l10 25l182 342q40 77 254 352
q99 128 180 128q72 0 129 -42.5t57 -111.5z" />
    <glyph glyph-name="N" unicode="N" horiz-adv-x="1473" 
d="M1412 551q0 -284 -35 -459q-26 -129 -161 -129q-250 0 -621 683l-195 365l1 -775q0 -295 -158 -295q-67 0 -118 36q-54 39 -54 106l1 576q0 68 -1 111q-5 213 -5 258l-5 369q0 66 61 112q56 42 125 42q132 0 463 -523q40 -64 88 -144q61 -103 130 -222q32 -56 172 -302
l1 152q0 8 -3.5 177.5t-3.5 274.5q0 118 -2.5 223.5t-5.5 227.5q0 138 161 138q158 0 158 -420v-60v-9l-1 -19v-15l4 -240z" />
    <glyph glyph-name="O" unicode="O" horiz-adv-x="1763" 
d="M1702 721q0 -244 -127 -453q-98 -161 -247 -244.5t-348 -83.5q-166 0 -310.5 39.5t-272.5 122.5q-272 176 -323 467q-13 85 -13 154q0 250 144 469q106 161 258.5 243t352.5 82q385 0 601.5 -155t270.5 -475q14 -90 14 -166zM1387 754q0 68 -11 129q-36 215 -171 298
q-55 34 -139 49.5t-206 15.5t-218 -56t-166 -166q-99 -155 -99 -335q0 -56 10 -115q29 -180 202 -279q74 -43 159 -63.5t187 -20.5q238 0 367 221q85 147 85 322z" />
    <glyph glyph-name="P" unicode="P" horiz-adv-x="1206" 
d="M1145 1098q0 -255 -224 -407q-196 -133 -472 -133l-92 7q-3 -139 -5 -242t-2 -218q0 -57 -42.5 -93t-101.5 -36q-58 0 -101.5 35.5t-43.5 93.5v279q0 49 5 122.5t11 164.5t6 173q0 112 7 223t15 237q0 128 40 188.5t121 60.5q75 18 264 18q217 0 405 -127
q210 -141 210 -346zM855 1098q0 95 -128 160q-110 55 -223 55q-77 0 -107 -3l-1 -141q-7 -90 -14 -179t-7 -167l74 -8q161 0 274 67q132 78 132 216z" />
    <glyph glyph-name="Q" unicode="Q" horiz-adv-x="1763" 
d="M1702 721q0 -242 -127 -453q-40 -67 -80 -133q-53 -77 -180 -113q1 -4 -3.5 -20t-4.5 -23q0 -4 2 -10q15 -30 31 -60q6 -4 32 -4q8 0 19 -21t29 -21q10 0 19 2.5t26 2.5q53 0 92 -42.5t39 -98.5q0 -69 -69 -89q-27 -7 -55 -7q-27 0 -51 6t-51 18q-118 53 -150 78
q-44 33 -108 130q-2 4 -25 34q-31 42 -37 61q-187 0 -343 30q-190 37 -310 114q-272 176 -323 467q-13 85 -13 154q0 250 144 469q106 161 258.5 243t352.5 82q385 0 601.5 -155t270.5 -475q14 -90 14 -166zM1387 754q0 68 -11 129q-36 215 -171 298q-55 34 -139 49.5
t-206 15.5t-218 -56t-166 -166q-99 -155 -99 -335q0 -56 10 -115q29 -180 202 -279q147 -84 346 -84q38 0 53 3q5 16 7 31.5t2 27.5q0 17 -4.5 41.5t-4.5 30.5q0 32 -19 73q-4 9 -23 43q-24 44 -35 61q-5 8 -9 22q-20 41 -31.5 64t-11.5 36q-1 11 -9.5 33.5t-15.5 21.5
q-17 0 -17 9q0 4 13 29q9 17 13.5 33t35 36t46.5 20q3 0 4 -2.5t-3 -6.5q5 2 11.5 3t16.5 1q15 0 27.5 -3.5t27.5 -13.5q68 -48 99 -99q3 -4 5 -10q-3 -1 0 -10q9 -24 66 -124q32 -58 49 -108.5t17 -101.5q30 35 57 81q85 147 85 322z" />
    <glyph glyph-name="R" unicode="R" horiz-adv-x="1239" 
d="M1178 77q0 -30 -9.5 -53.5t-30.5 -40.5q-41 -34 -102 -34q-95 0 -130 69l-9 18q-60 122 -291 519q-20 -2 -49 -3t-60 -1q-77 0 -148 9q6 -129 11.5 -256t5.5 -234q0 -57 -38.5 -92t-99.5 -35t-103 35q-48 38 -48 96l-15 309v43v41v39v36v33v29v27v24v22v19v17v15v14v12
q0 19 -0.5 38t-0.5 39v12v459q0 115 18 162.5t49 66t83 18.5q31 7 116.5 10t201.5 3q210 0 410 -132q109 -73 168 -161t59 -188q0 -131 -49 -231t-155 -173q-39 -27 -69 -42q71 -106 165 -277q120 -221 120 -281zM876 1085q0 81 -120 152q-97 57 -204 66l-98 2l-101 -1
l5 -141q0 -23 -2 -138t-2 -208q18 -3 49 -6t82 -3q83 0 148.5 14.5t120.5 47.5q63 37 92.5 90t29.5 125z" />
    <glyph glyph-name="S" unicode="S" horiz-adv-x="1328" 
d="M1267 439q0 -244 -217 -371q-170 -99 -408 -99q-179 0 -361 100q-220 121 -220 300q0 52 33 91l34 42q19 16 43 22q40 8 56 8q27 0 33 -14q4 -20 7 -29q8 -23 41 -60q99 -114 115 -127q86 -69 212 -69q114 0 226 61q134 74 134 190q0 156 -220 189l-407 54
q-220 60 -220 274q0 213 194 371q178 145 378 145q127 0 228 -43q79 -33 123 -88t44 -129q0 -20 -5.5 -38.5t-18.5 -43.5q-3 -7 -22 -9.5t-50 -2.5h-23t-12 1q-67 48 -133 66q-48 13 -114 13q-96 0 -198 -51q-125 -62 -125 -152q0 -81 140 -96q280 -27 326 -36
q201 -38 294 -151t93 -318z" />
    <glyph glyph-name="T" unicode="T" horiz-adv-x="1527" 
d="M1466 1375q0 -58 -46 -97t-106 -39q-65 0 -181 -10q-48 0 -90 -3t-92 -6h-10q0 -105 4 -305t6.5 -381t2.5 -330q0 -79 -37 -140q-45 -72 -127 -72q-81 0 -114.5 33.5t-33.5 115.5v35l1 35q0 128 -3 295q-6 325 -6 335q-4 250 -4 375h-21h-24l-11 -1h-71q-442 0 -442 164
q0 57 44 96.5t102 39.5q1 0 208 -8q104 -4 175 -4q95 0 186.5 -4t197.5 -8q22 0 37 1q73 5 92 5l130 7q233 0 233 -129z" />
    <glyph glyph-name="U" unicode="U" horiz-adv-x="1481" 
d="M1420 1012q0 -525 -155 -793t-465 -268q-199 0 -337 55t-225 175q-72 100 -112 236q-44 150 -44 332l-19 364l-2 73q0 338 145 338q191 0 191 -470q0 -9 -2.5 -61.5t-2.5 -86.5v-148q0 -133 18 -235q15 -87 41 -139q39 -83 116.5 -122.5t195.5 -39.5q102 0 174 47.5
t114 139.5q61 136 61 406l-4 180l-4 180q0 350 153 350q62 0 102 -34q21 -18 33.5 -41.5t12.5 -52.5q0 -90 4.5 -183.5t10.5 -201.5z" />
    <glyph glyph-name="V" unicode="V" horiz-adv-x="1509" 
d="M1448 1398q0 -25 -59 -128l-79 -139l-230 -576q-139 -353 -271 -557q-50 -78 -137 -78q-111 0 -160 98q-62 126 -254 688q-197 580 -197 682q0 60 49 99q44 35 107 35q109 0 148 -100q56 -151 157 -501q44 -155 58 -201q34 -111 52 -166.5t47 -133.5q74 187 137 343
q71 174 117 282q207 489 358 489q61 0 109 -38t48 -98z" />
    <glyph glyph-name="W" unicode="W" horiz-adv-x="2186" 
d="M2125 1406q0 -49 -44 -143q-50 -107 -54 -121q-66 -252 -208 -578l-262 -566q-36 -78 -137 -78q-163 0 -290 398l-66 217l-93 -248q-36 -93 -162 -289q-50 -78 -137 -78q-111 0 -160 98q-62 126 -254 688q-197 580 -197 682q0 60 49 99q44 35 107 35q109 0 148 -100
q56 -151 157 -501q44 -155 58 -201q34 -111 52 -166.5t47 -133.5q75 171 110 239q74 146 150 249q-130 404 -130 480q0 60 49 99q44 35 107 35q109 0 148 -100q56 -151 157 -501q44 -155 58 -201q34 -111 52 -166.5t47 -133.5q240 551 388 933q60 158 176 158q48 0 91 -28.5
t43 -76.5z" />
    <glyph glyph-name="X" unicode="X" horiz-adv-x="1683" 
d="M1622 1384q0 -47 -41 -89q-140 -145 -224 -252q-93 -121 -268 -323l231 -293q65 -83 124.5 -152t120.5 -131q41 -43 41 -90q0 -60 -47.5 -99t-110.5 -39q-114 0 -285 228l-146 196l-140 173l-343 -342q-46 -46 -97.5 -96.5t-105.5 -101.5q-44 -42 -111 -42q-62 0 -109 36
q-50 39 -50 101q0 50 39 88l200 193l388 390q-12 14 -60 67q-28 31 -77 84t-97 105l-126 146l-122 114q-80 78 -80 128q0 59 48 101q46 37 108 37q61 0 156 -76q74 -58 117 -112q73 -92 138 -163l203 -221l276 332q201 240 292 240q63 0 110.5 -37.5t47.5 -99.5z" />
    <glyph glyph-name="Y" unicode="Y" horiz-adv-x="1618" 
d="M1557 1384q0 -47 -41 -89q-75 -78 -131 -141q-52 -58 -93 -111q-26 -36 -319 -369l-8 -106q0 -53 -3.5 -107.5t-7.5 -115.5l5 -183l1 -35l2 -38q0 -60 -44.5 -96.5t-107.5 -36.5q-64 0 -105 34q-47 38 -47 99l-1 37l-2 36l-4 183q4 62 7.5 120.5t3.5 102.5l2 29
q-7 3 -8 10q0 8 10 21l3 47q-48 57 -79 93q-37 43 -93 106q-43 48 -108 121l-125 146l-123 114q-80 78 -80 128q0 59 49 101q46 37 107 37q60 0 157 -76q70 -56 116 -112q73 -92 138 -163l203 -221l276 332q201 240 292 240q62 0 110 -38t48 -99zM959 658l-10 -11z" />
    <glyph glyph-name="Z" unicode="Z" horiz-adv-x="1656" 
d="M1595 1370q0 -57 -52 -103l-91 -82q-258 -243 -510 -489q-261 -258 -475 -500q13 0 203 9q106 5 182 5q82 0 171 3q207 7 215 7q157 0 212 -11q138 -26 138 -115q0 -66 -54.5 -105.5t-1302.5 -39.5q-68 0 -119 43t-51 111q0 118 440 585q367 390 574 562q-72 0 -188 -3
q-257 -7 -277 -7q-214 -4 -366 -4q-66 0 -111 35q-50 38 -50 101q0 137 223 137q63 0 234.5 -2.5t246.5 -2.5l480 -4q328 0 328 -130z" />
    <glyph glyph-name="bracketleft" unicode="[" horiz-adv-x="790" 
d="M729 -285q0 -58 -40.5 -95t-99.5 -37l-96 3l-96 2l-75 -2l-74 -3q-186 0 -186 151l1 62v163l5 1152l-4 290l-3 290q0 56 51 95q46 34 105 34l113 -3l114 -2l62 2l62 3q63 0 104 -35t41 -97q0 -137 -266 -137l-90 2v-1703l40 1l96 -2l96 -3q57 0 98.5 -36t41.5 -95z" />
    <glyph glyph-name="backslash" unicode="\" horiz-adv-x="1132" 
d="M1071 -11q0 -56 -44.5 -93t-104.5 -37q-77 0 -126 67q-121 163 -248 466l-203 488q-28 68 -127 224q-57 90 -85.5 137t-48.5 83q-23 43 -23 70q0 56 48 95q44 35 103 35q69 0 120 -61q73 -89 406 -749.5t333 -724.5z" />
    <glyph glyph-name="bracketright" unicode="]" horiz-adv-x="790" 
d="M729 1691l-3 -290l-4 -290l6 -1377q0 -151 -186 -151l-75 3l-74 2l-96 -2l-96 -3q-59 0 -99.5 37t-40.5 95q0 57 41 94t99 37l97 3l95 2l40 -1v1703l-90 -2q-135 0 -200.5 32.5t-65.5 104.5q0 62 41 97t104 35l61 -3l63 -2l113 2l114 3q59 0 105 -34q51 -38 51 -95z" />
    <glyph glyph-name="asciicircum" unicode="^" horiz-adv-x="905" 
d="M844 1255q0 -50 -48 -85q-43 -29 -97 -29q-55 0 -141 96l-122 139l-102 -150q-69 -104 -130 -104q-52 0 -96 30q-47 33 -47 84q0 44 115 193q102 132 154 178q44 39 101 39q84 0 248.5 -154t164.5 -237z" />
    <glyph glyph-name="underscore" unicode="_" horiz-adv-x="1704" 
d="M1643 -345h-1582v186h1582v-186z" />
    <glyph glyph-name="grave" unicode="`" horiz-adv-x="550" 
d="M-489 1547q0 -16 60 -88q19 -27 93 -108q70 -62 129 -62q54 0 96 27q50 32 50 83q0 83 -100 172.5t-186 89.5q-55 0 -98.5 -30.5t-43.5 -83.5z" />
    <glyph glyph-name="a" unicode="a" horiz-adv-x="1266" 
d="M1205 100q0 -56 -43 -91t-101 -35q-38 0 -69 46q-15 23 -22.5 41.5t-7.5 39.5q-27 -56 -126 -100q-90 -39 -167 -39q-252 0 -426 150q-182 158 -182 408q0 247 159 403t408 156q135 0 299 -81q15 141 111 141q75 0 120 -64q41 -58 41 -135zM928 368v335
q-186 120 -300 120q-129 0 -206 -89q-73 -85 -73 -214q0 -136 93 -220q89 -81 227 -81q62 0 148 45q90 48 111 104z" />
    <glyph glyph-name="b" unicode="b" horiz-adv-x="1266" 
d="M1205 516q0 -249 -181 -408q-173 -150 -427 -150q-79 0 -165 37q-77 27 -153 54q-63 32 -115 88q-40 82 -65 245q-20 131 -29 309t-9 345q0 133 2 208t5 132q0 79 40 135q46 64 120 64q115 0 115 -108l-3 -46l-2 -45v-383q164 82 301 82q246 0 406 -155.5t160 -403.5z
M917 516q0 129 -73 214q-77 89 -205 89q-113 0 -301 -120v-335q21 -53 111 -104q84 -45 148 -45q137 0 228.5 82t91.5 219z" />
    <glyph glyph-name="c" unicode="c" horiz-adv-x="1162" 
d="M1100 162q0 -79 -187 -157q-166 -68 -272 -68q-237 0 -395 116q-89 65 -136.5 154.5t-47.5 202.5q0 330 136.5 491.5t427.5 161.5q119 0 272 -57q182 -68 182 -158q0 -54 -43 -91t-97 -37q-8 0 -128.5 46.5t-185.5 46.5q-285 0 -285 -310q0 -47 7 -93q30 -222 293 -222
q53 0 173 51t142 51q58 0 101 -36.5t43 -91.5z" />
    <glyph glyph-name="d" unicode="d" horiz-adv-x="1266" 
d="M1122 177q-53 -84 -149 -129q-104 -37 -137 -51q-90 -39 -167 -39q-252 0 -426 150q-182 158 -182 408q0 247 159 403t408 156q137 0 300 -82v383l-2 45l-2 46q0 108 114 108q76 0 122 -67q39 -59 39 -132v-61t1 -67q0 -232 -5 -451t-21 -388q-19 -211 -52 -232zM928 364
v335q-186 120 -300 120q-129 0 -206 -89q-73 -85 -73 -214q0 -136 93 -220q89 -81 227 -81q62 0 148 45q90 48 111 104z" />
    <glyph glyph-name="e" unicode="e" horiz-adv-x="1248" 
d="M1186 200q0 -122 -196 -192q-152 -54 -314 -54q-252 0 -419 105q-98 62 -147 152t-49 212q0 257 149 431q162 191 436 191q160 0 316 -90q174 -101 174 -240q0 -20 -6 -46q-33 -146 -122 -204q-42 -27 -103.5 -42.5t-145.5 -15.5l-411 -16q0 -90 120 -147
q49 -23 101.5 -35t106.5 -12q72 0 212.5 52t183.5 52q114 0 114 -101zM880 645q0 42 -21 77q-13 23 -40 48q-23 21 -65 32t-108 11q-217 0 -291 -208q45 0 135 -9q34 0 66.5 -2.5t70.5 -5.5q76 0 141.5 15t111.5 42z" />
    <glyph glyph-name="f" unicode="f" horiz-adv-x="828" 
d="M830 1468q0 -105 -102 -119q-24 -3 -156.5 -15.5t-145.5 -19.5q-24 -13 -33 -34t-9 -56q0 -27 1 -42q5 -76 5 -86v-33q-3 -24 -4 -36q54 0 104 3.5t107 8.5q206 0 206 -128q0 -81 -83 -109q-53 -17 -159 -17q-14 0 -105 -6q-46 -3 -82 -3q0 -64 -1.5 -165.5t-1.5 -104.5
l5 -509l4 -74l3 -73q0 -160 -145 -160q-57 0 -105 35t-48 92l-2 102l-2 102q0 45 -2.5 138t-5 214t-2.5 150q0 57 -3 118q-7 142 -7 144q0 39 -1 118t-1 117q0 142 10.5 236.5t42.5 154.5q43 81 125 125q70 38 166 50.5t226 12.5q201 0 201 -131z" />
    <glyph glyph-name="g" unicode="g" 
d="M842 768q-35 16 -70.5 25t-70.5 9q-159 0 -252 -90q-45 -44 -65.5 -105t-20.5 -143q0 -136 60.5 -206.5t171.5 -70.5q107 0 182 114q34 53 51 104.5t17 109.5q0 23 9.5 72.5t9.5 79.5q0 57 -22 101zM1165 479l-1 -183l-2 -154l2 -59l3 -121q0 -292 -154 -415
q-139 -110 -440 -110q-134 0 -247 41q-78 28 -119.5 68.5t-41.5 94.5q0 49 38 80q37 28 88 28q53 0 155 -34q48 -16 89 -25t67 -9q148 0 216 88t68 270l-1 22q-102 -110 -286 -110q-230 0 -379 142q-76 73 -117 165.5t-41 205.5q0 144 43 251t138 181q175 134 463 134
q110 0 180 -43q115 -44 185 -131q56 -70 81 -165q18 -69 18 -144q0 -33 -1.5 -47t-3.5 -21z" />
    <glyph glyph-name="h" unicode="h" horiz-adv-x="1166" 
d="M1105 87q0 -56 -51 -95q-46 -34 -105 -34q-167 0 -167 360q3 52 5 88.5t2 76.5q0 42 2.5 81t5.5 85v47q0 29 -2 39q-11 55 -57 55q-328 0 -358 -126q-2 -12 -3 -25t-1 -42l3 -133l3 -132q0 -356 -157 -356q-59 0 -106 35q-51 38 -51 95l1 161l2 162l-4 522l-6 521
q0 58 47 94t107 36q173 0 173 -346q0 -62 -10 -171q0 -45 -3 -84t-6 -86q160 143 369 143q165 0 254 -76.5t89 -227.5l14 -260q0 -52 3 -135q7 -194 7 -272z" />
    <glyph glyph-name="i" unicode="i" horiz-adv-x="469" 
d="M408 1350q0 -67 -54 -109q-50 -39 -119 -39q-68 0 -119 39q-55 43 -55 109t55 109q48 39 119 39q68 0 120.5 -40t52.5 -108zM394 915v-446l-1 -183l-2 -182q0 -63 -46 -100q-42 -34 -106 -34q-158 0 -158 276q0 8 2.5 51.5t2.5 60.5l5 111l-1 286q0 218 44 255.5
t109 37.5q62 0 106.5 -36t44.5 -97z" />
    <glyph glyph-name="j" unicode="j" horiz-adv-x="507" 
d="M424 1348q-6 -66 -64 -109q-53 -39 -122 -39q-67 0 -115 39q-25 20 -35.5 46.5t-10.5 62.5q0 31 16.5 59t46.5 51q54 40 122 40q69 0 117 -39q24 -21 34.5 -47.5t10.5 -63.5zM404 956l-8 -554v-34v-35v-34v-33v-31v-29v-27v-25v-22v-20v-18v-16v-14v-13v-11
q0 -18 -0.5 -35.5t-0.5 -36.5v-11q0 -134 -34.5 -237t-102.5 -177q-122 -134 -288 -134q-30 -9 -63 -9q-65 0 -118 38t-53 102q0 96 139 114q101 24 117 24q56 0 83 140q0 23 6 170q3 74 3 132q0 48 -0.5 108.5t-1.5 132.5q0 167 1.5 282t3.5 260q6 69 52.5 115.5
t114.5 46.5q51 0 97 -28q53 -33 53 -81z" />
    <glyph glyph-name="k" unicode="k" horiz-adv-x="1216" 
d="M1155 113q0 -58 -47.5 -96.5t-108.5 -38.5q-67 0 -301 179q-207 159 -282 243l-19 -15l-21 -12v-72l1 -85q0 -246 -156 -246q-159 0 -159 165v668v98v82v69v59v50v43v36v31v27v23v20v17v15v13q0 19 -0.5 37.5t-0.5 37.5v11q0 59 45 100q44 36 105 36q66 0 110 -35
q62 -53 62 -466l-3 -224l-2 -109l1 -24l286 210q212 186 271 186q61 0 108 -34q51 -40 51 -99q0 -63 -195 -228l-253 -209l267 -204q120 -92 180.5 -156.5t60.5 -102.5z" />
    <glyph glyph-name="l" unicode="l" horiz-adv-x="426" 
d="M365 147q0 -190 -152 -190q-62 0 -107 36.5t-45 99.5v1383q0 59 48 97q44 32 107 32t106 -33.5t43 -95.5v-1329z" />
    <glyph glyph-name="m" unicode="m" horiz-adv-x="1656" 
d="M1595 467l-4 -186l-4 -184q0 -59 -46.5 -95t-106.5 -36q-162 0 -162 329q0 71 15.5 221.5t15.5 214.5q0 83 -47 83q-166 0 -260 -59q9 -63 9 -295l-4 -186l-4 -184q0 -59 -48 -97q-43 -34 -105 -34q-161 0 -161 329q0 71 15 216.5t15 219.5q0 83 -47 83q-252 0 -285 -196
q-4 -27 -7 -72t-3 -97q0 -28 2 -104.5t2 -96.5l4 -159q0 -30 -11 -54t-36 -44q-21 -16 -48 -25t-58 -9q-51 0 -73 27q-13 17 -32.5 76t-19.5 198q0 13 7 193q4 103 4 163q0 150 38 238q32 75 96 113q45 27 129 48t142 36q114 29 149 29q187 0 267 -125q153 132 323 132
q242 0 309 -217q30 -96 30 -394z" />
    <glyph glyph-name="n" unicode="n" horiz-adv-x="1146" 
d="M1085 89q0 -60 -45.5 -95t-107.5 -35q-173 0 -173 379q0 15 5 79t5 114q0 42 3 87q7 105 7 106q0 83 -47 83q-318 0 -351 -196q-4 -27 -7 -72t-3 -97q0 -28 2 -104.5t2 -96.5l4 -159q0 -30 -11 -54t-36 -44q-21 -16 -48 -25t-58 -9q-112 0 -147 108q-18 54 -18 193
q0 13 7 193q4 103 4 163q0 187 78 292q73 98 224 138q129 34 358 34q242 0 309 -217q30 -96 30 -394q2 -51 4.5 -96t2.5 -90z" />
    <glyph glyph-name="o" unicode="o" horiz-adv-x="1188" 
d="M1127 470q0 -190 -103 -333q-70 -97 -168 -148t-226 -51q-102 0 -192.5 28t-168.5 86q-173 131 -203 365q-3 24 -4 37t-1 42q0 176 101 320q76 107 187.5 164t259.5 57q113 0 203.5 -35t161.5 -111q129 -138 150 -353zM836 457q0 157 -57 236.5t-160 79.5
q-132 0 -203 -120q-48 -83 -48 -183v-20t2 -22q9 -99 71 -164q32 -32 73 -47.5t92 -15.5q52 0 95 19.5t74.5 55.5t46 81t14.5 100z" />
    <glyph glyph-name="p" unicode="p" horiz-adv-x="1266" 
d="M1205 636q0 -246 -159.5 -402.5t-406.5 -156.5q-138 0 -301 82v-523l2 -45l3 -46q0 -108 -115 -108q-76 0 -122 67q-38 58 -38 132l-7 1220q0 81 109 165q99 76 263 135q55 19 84 27q43 11 80 11q253 0 427 -150q181 -158 181 -408zM917 636q0 138 -90.5 219.5
t-229.5 81.5q-62 0 -149.5 -46.5t-109.5 -102.5v-335q186 -120 301 -120q128 0 205 89q73 85 73 214z" />
    <glyph glyph-name="q" unicode="q" horiz-adv-x="1266" 
d="M1199 -364q0 -79 -41 -135q-46 -64 -120 -64q-114 0 -114 108l2 46l2 45v383q-164 -82 -300 -82q-250 0 -408.5 155.5t-158.5 403.5q0 250 182 408q173 150 426 150q78 0 165 -36q21 -9 88 -31q106 -35 120 -62q118 -118 171 -334q43 -174 43 -405q0 -139 -14 -274
q-10 -93 -28 -199q-13 -77 -15 -77zM928 313v335q-21 53 -111 104q-84 45 -148 45q-139 0 -229.5 -81.5t-90.5 -219.5q0 -129 73 -214q77 -89 206 -89q112 0 300 120z" />
    <glyph glyph-name="r" unicode="r" horiz-adv-x="938" 
d="M930 891q0 -112 -120 -112q-46 0 -108 21q-214 -30 -294 -146q-63 -89 -63 -270q0 -20 2.5 -77t2.5 -83q0 -49 1.5 -82t4.5 -77q0 -61 -44.5 -96.5t-107.5 -35.5q-59 0 -100 35.5t-41 96.5v664l-1 49q0 8 -0.5 18t-1.5 22q0 7 1 10q9 40 41 70q36 34 84 34q31 0 66 -16
t73 -52q30 93 189 147q65 21 132.5 32t140.5 11q60 0 104 -51q39 -48 39 -112z" />
    <glyph glyph-name="s" unicode="s" horiz-adv-x="1066" 
d="M1011 302q0 -175 -176 -276q-151 -86 -348 -86q-115 0 -272 79q-174 87 -174 184q0 41 35 80t76 39q21 0 33 -16q23 -29 122.5 -73.5t171.5 -44.5q65 0 134 26q90 33 90 86q0 48 -156 98q-225 68 -288 103q-156 84 -156 224q0 204 169 285q120 57 351 57q367 0 367 -155
q0 -78 -104 -127q-9 -3 -21 -3t-20 1l-36 8h-37q-13 3 -19 24q-42 8 -101 18q-8 1 -72 11l-39 2q-146 0 -146 -97l3 -23q4 -35 166 -89q212 -68 291 -115q156 -90 156 -220z" />
    <glyph glyph-name="t" unicode="t" horiz-adv-x="758" 
d="M752 1040q0 -60 -48 -99q-21 -17 -48.5 -25t-59.5 -8l-109 4q-41 0 -105 -7q0 -170 -1 -324t-2 -304l-2 -106q0 -113 -43.5 -171t-124.5 -58q-57 0 -102.5 33t-45.5 92l14 216q0 68 1 201t2.5 292t1.5 385l-2 213q0 56 48 95q44 34 111 34q154 0 154 -212l-1 -38l-5 -82
q39 4 65 6t47 2q126 0 171 -16q84 -28 84 -123z" />
    <glyph glyph-name="u" unicode="u" horiz-adv-x="1161" 
d="M1100 942q0 -39 -2 -74t-9 -108q0 -44 -5 -105t-5 -77q0 -67 -10 -138.5t-36 -136.5q-57 -144 -159 -230q-125 -105 -304 -105q-166 0 -282 48q-132 55 -176 165q-51 128 -51 475q0 176 20 253q39 157 162 157q61 0 107.5 -34t46.5 -95q0 -49 -16 -144.5t-16 -136.5
q0 -281 42 -421q61 -23 103 -23q87 0 134 17q72 25 134 105l-3 253l-2 72l-1 72q0 329 174 329q55 0 102 -30q26 -17 39 -38t13 -50z" />
    <glyph glyph-name="v" unicode="v" horiz-adv-x="1209" 
d="M1148 921q0 -37 -178 -396q-44 -89 -88 -177q-16 -32 -77 -150q-38 -73 -65 -124q-6 -52 -47.5 -83t-95.5 -31q-111 0 -157 104q-76 171 -172 383.5t-193 422.5q-14 31 -14 57q0 56 52 95q46 34 105 34q94 0 136 -79q63 -121 244 -566q71 139 161 344l9 23l73 173
q57 99 150 99q59 0 106 -34q51 -38 51 -95z" />
    <glyph glyph-name="w" unicode="w" horiz-adv-x="1705" 
d="M1644 566q-4 -41 -7.5 -101.5t-3.5 -113.5q0 -121 -56 -209.5t-161 -142.5q-122 -63 -275 -63q-213 0 -322 112q-156 -100 -307 -100q-305 0 -398 233q-51 128 -51 475l-1 57l-1 57q0 296 162 296q61 0 107.5 -34t46.5 -95q0 -18 -2.5 -68.5t-2.5 -72.5l-5 -140
q0 -281 42 -421q61 -23 103 -23q68 0 99 17t95 93q-13 99 -13 322l-2 67l-2 67q0 195 79 252q42 30 92 30q55 0 102 -30q26 -17 39 -38t13 -50l1 -364q0 -16 -1 -38t-4 -48l-6 -85q9 -106 34 -184q61 -23 103 -23q74 0 102 17q33 18 101 105l-4 253l-4 105l-4 104
q0 284 157 284q57 0 102 -30q26 -17 39 -38t13 -50z" />
    <glyph glyph-name="x" unicode="x" horiz-adv-x="1294" 
d="M1233 114q0 -51 -43 -84q-39 -30 -92 -30q-75 0 -233 150l-208 207q-339 -357 -422 -357q-63 0 -114 38q-58 41 -58 101q0 50 163 212l219 212l-217 211q-167 162 -167 202q0 50 39.5 83t90.5 33q99 0 252 -153l190 -196l181 173q154 148 201 148q63 0 118 -40.5
t55 -103.5q0 -66 -149 -206q-27 -27 -192 -174l221 -199q165 -153 165 -227z" />
    <glyph glyph-name="y" unicode="y" horiz-adv-x="1172" 
d="M1111 921l-31 -588l1 -159l4 -63l4 -62q0 -44 -30 -79q0 -34 -6 -83q-8 -48 -11 -75q-17 -146 -131 -269q-65 -70 -136.5 -105.5t-155.5 -35.5q-89 0 -161.5 11.5t-141.5 38.5q-176 69 -236 221q-10 28 -10 50q1 8 1 12q6 60 58 98t115 38q69 0 116 -66q8 -25 22.5 -53.5
t42.5 -74.5q34 -37 89 -37q25 0 69 16q8 3 31 9.5t37 6.5q58 0 88 142l13 166q-59 -16 -117.5 -24t-124.5 -8q-153 0 -256 56q-126 68 -148.5 198.5t-33.5 242t-11 211.5q0 127 33 297q21 113 149 113q60 0 105 -33q49 -37 49 -96q0 -49 -16 -144.5t-16 -136.5
q0 -281 42 -421q27 -11 53.5 -17t49.5 -6q57 0 120.5 7t132.5 22l12 346q0 46 14 214q7 84 7 140q0 59 39 89t111 30q118 0 149 -91q16 -22 16 -48z" />
    <glyph glyph-name="z" unicode="z" horiz-adv-x="1235" 
d="M1174 68q0 -60 -47 -98q-42 -33 -106 -33l-299 -2q-19 0 -97.5 -2.5t-121.5 -2.5l-35 -1l-255 -6q-57 0 -101 29q-51 33 -51 88q0 61 69 117q249 198 574 637l-131 -3l-78 -3l-97 -2q-302 0 -302 137q0 57 46 97q42 36 103 36l776 -4q138 0 138 -102q0 -94 -581 -763
l144 12q27 0 44 1q68 4 73 4q335 0 335 -136z" />
    <glyph glyph-name="braceleft" unicode="{" horiz-adv-x="1434" 
d="M1150 1506q-1 0 -235 99q-219 92 -437 185q-238 100 -240 100q-13 6 -30 10.5t-32 4.5q-25 0 -44.5 -12.5t-31.5 -44.5q-7 -18 -7 -38q0 -40 26 -77q19 -27 35 -35l930 -372q26 4 40 9q44 17 62 57q7 17 7 35q0 29 -21 57q-7 9 -22 22zM108 1120q5 -3 224 -11t487 -16.5
t273 -8.5q24 -16 36 -27q36 -34 36 -69q0 -33 -36 -74q-12 -13 -36 -34l-966 6q-34 21 -51 35q-51 43 -51 85q0 41 35.5 80.5t48.5 33.5zM1086 606l-978 -330q-16 -26 -24 -40q-24 -44 -24 -66q0 -35 39 -55q13 -6 39 -13q1 0 253 91q236 85 473 171q256 92 258 92
q8 0 24 20q20 25 20 57q0 5 -2 19q-5 24 -42 41q-12 5 -36 13z" />
    <glyph glyph-name="bar" unicode="|" horiz-adv-x="1848" 
d="M1149 1421q0 -89 -23 -191q-27 -120 -68 -156q-70 -89 -127 -155q-63 -73 -105 -102q-52 -36 -98 -83q-34 -36 -67 -72q-40 -38 -51 -137t-16 -111q-21 -55 -102 -55q-127 0 -149 127q-3 21 -5 39t-2 38q0 162 132 270q40 31 81 63q81 64 135 117q76 74 100 125
q28 61 46 157q14 76 14 126q0 156 -320 156q-45 0 -164 -61.5t-145 -61.5q-58 0 -106 40.5t-48 99.5q0 96 183 180q160 74 280 74q130 0 235 -25t196 -79q194 -115 194 -323zM616 90q0 -63 -54 -107q-48 -39 -116 -39q-65 0 -117 40.5t-52 105.5q0 64 53 107q48 39 116 39
q65 0 117.5 -40.5t52.5 -105.5zM1628 470q0 -56 -41.5 -89.5t-100.5 -33.5q-152 0 -152 226l2 65l3 65l65 1078q0 56 43 92q40 32 99 32q26 0 52 -8.5t47 -25.5q43 -34 43 -90zM1590 72q0 -67 -53 -108q-49 -38 -116 -38q-69 0 -117 38q-53 42 -53 108q0 64 53 107
q49 38 117 38q66 0 117.5 -40t51.5 -105z" />
    <glyph glyph-name="braceright" unicode="}" horiz-adv-x="1524" 
d="M210 1506q1 0 235 99q218 92 437 185q238 100 240 100q13 6 30 10.5t32 4.5q25 0 44.5 -12.5t31.5 -44.5q7 -18 7 -38q0 -40 -26 -77q-19 -27 -35 -35l-930 -372q-26 4 -40 9q-44 17 -62 57q-7 17 -7 35q0 29 21 57q7 9 22 22zM1252 1120q-5 -3 -224 -11t-487 -16.5
t-273 -8.5q-24 -16 -36 -27q-36 -34 -36 -69q0 -33 36 -74q12 -13 36 -34l966 6q34 21 51 35q51 43 51 85q0 41 -35.5 80.5t-48.5 33.5zM274 606l978 -330q16 -26 24 -40q24 -44 24 -66q0 -35 -39 -55q-13 -6 -39 -13q-1 0 -253 91q-237 85 -473 171q-256 92 -258 92
q-8 0 -24 20q-20 25 -20 57q0 5 3.5 24t40.5 36q12 5 36 13z" />
    <glyph glyph-name="asciitilde" unicode="~" horiz-adv-x="1303" 
d="M1241 997q0 -151 -117 -252q-112 -95 -265 -95q-102 0 -170 71l-100 130q-54 71 -124 71q-118 0 -162 -66l-42 -122q-21 -66 -96 -66q-46 0 -75 27.5t-29 73.5q0 162 123 261q113 90 281 90q121 0 198 -70q26 -23 101 -131q49 -70 95 -70q89 0 126 64l47 117
q27 64 106 64q43 0 73 -28t30 -69z" />
    <glyph glyph-name="c128" horiz-adv-x="1666" 
d="M1157 590q0 -54 -45 -87q-40 -29 -97 -29l-375 -1q21 -50 57 -97q93 -117 244 -117q104 0 208 54q36 18 153 102q79 55 120 55q70 0 126 -47t56 -118q0 -123 -245 -234q-213 -96 -368 -96q-295 0 -499 216q-119 126 -165 281h-121q-58 0 -99 28q-46 32 -46 88
q0 125 240 125q0 27 4 56t10 61h-69q-55 0 -96 30q-45 33 -45 87q0 121 234 121h58q42 89 105 177q224 314 514 314q166 0 356 -113q210 -125 210 -267q0 -29 -43 -50q-19 -8 -34.5 -12t-35.5 -4q-30 0 -77 16.5t-121 54.5q-140 71 -207 71q-147 0 -281 -188l303 -1
q58 0 98 -28q44 -32 44 -88q0 -55 -44 -87q-40 -29 -98 -29l-162 -1l-270 -1q-22 -60 -34 -121l156 1q176 0 229 -6q152 -21 152 -116z" />
    <glyph glyph-name="quotesinglbase" unicode="&#x201a;" horiz-adv-x="563" 
d="M502 130q0 -31 -17 -57q-36 -116 -153 -337q-54 -80 -131 -80q-52 0 -94 29q-46 32 -46 82q0 26 71 155l45 81q-113 41 -113 127q0 70 78 112q65 34 141 34q78 0 142 -34q77 -41 77 -112z" />
    <glyph glyph-name="florin" unicode="&#x192;" horiz-adv-x="1504" 
d="M895 776l-79 -539l-12 -147q-5 -51 -32 -93q-8 -45 -18 -98t-14 -71q-30 -145 -157 -264q-142 -134 -306 -134q-33 -9 -65 -9q-64 0 -110 37q-42 32 -42 86q0 11 1 17q14 96 154 114q105 24 121 24q57 0 102 140q12 53 25 133t28 187q19 138 29 223q40 340 77 524
q54 278 159 435q173 258 502 258q185 0 185 -110l-1 -21q-15 -106 -119 -119q-180 -21 -207 -35q-123 -60 -180 -287q55 0 105.5 3.5t107.5 8.5q189 0 189 -108q0 -97 -99 -129q-56 -17 -163 -17q-12 0 -101 -6q-44 -3 -80 -3z" />
    <glyph glyph-name="quotedblbase" unicode="&#x201e;" horiz-adv-x="1145" 
d="M1084 146q0 -31 -17 -58q-37 -126 -75 -195l-77 -142q-56 -79 -131 -79q-53 0 -94 28q-46 32 -46 83q0 28 71 155l45 80q-113 42 -113 128q0 69 78 111q65 34 140 34q83 0 144 -35q75 -42 75 -110zM501 146q0 -31 -17 -58q-37 -126 -75 -195l-77 -142q-56 -79 -131 -79
q-53 0 -94 28q-46 32 -46 83q0 28 71 155l45 80q-113 42 -113 128q0 69 78 111q65 34 140 34q83 0 144 -35q75 -42 75 -110z" />
    <glyph glyph-name="ellipsis" unicode="&#x2026;" horiz-adv-x="1828" 
d="M400 72q0 -67 -53 -108q-49 -38 -116 -38q-69 0 -117 38q-53 42 -53 108q0 64 53 107q49 38 117 38q66 0 117.5 -40t51.5 -105zM1093 85q0 -67 -53 -108q-49 -38 -116 -38q-69 0 -117 38q-53 42 -53 108q0 64 53 107q49 38 117 38q66 0 117.5 -40t51.5 -105zM1767 91
q0 -67 -53 -108q-49 -38 -116 -38q-69 0 -117 38q-53 42 -53 108q0 63 54 107q49 38 116 38q66 0 117.5 -40t51.5 -105z" />
    <glyph glyph-name="dagger" unicode="&#x2020;" horiz-adv-x="1010" 
d="M949 1196q0 -56 -42 -88t-125 -32l-122 -5v-1104q0 -190 -152 -190q-64 0 -108 36.5t-44 99.5v1153h-114q-67 0 -118 26q-63 33 -63 94q0 59 63 94q51 27 118 27l114 1v168q0 59 48 97q44 32 107 32t106 -33.5t43 -95.5v-161l103 1q70 0 120 -25q66 -33 66 -95z" />
    <glyph glyph-name="daggerdbl" unicode="&#x2021;" horiz-adv-x="1022" 
d="M949 171q0 -56 -42 -88t-125 -32l-110 -5v-79q0 -190 -152 -190q-64 0 -108 36.5t-44 99.5v128h-126q-67 0 -118 26q-63 33 -63 94q0 59 63 94q51 27 118 27l126 1v783h-114q-67 0 -118 26q-63 33 -63 94q0 59 63 94q51 27 118 27l114 1v168q0 59 48 97q44 32 107 32
t106 -33.5t43 -95.5v-161l103 1q70 0 121 -25q65 -33 65 -95q0 -56 -42 -88t-125 -32l-122 -5v-781l91 1q70 0 120 -25q66 -33 66 -95z" />
    <glyph glyph-name="circumflex" unicode="&#x2c6;" horiz-adv-x="905" 
d="M844 1255q0 -50 -48 -85q-43 -29 -97 -29q-55 0 -141 96l-122 139l-102 -150q-69 -104 -130 -104q-52 0 -96 30q-47 33 -47 84q0 44 115 193q102 132 154 178q44 39 101 39q84 0 248.5 -154t164.5 -237z" />
    <glyph glyph-name="perthousand" unicode="&#x2030;" horiz-adv-x="3262" 
d="M2222 386q0 -191 -132 -307q-125 -110 -319 -110q-198 0 -334 118q-141 123 -141 319q0 200 152 318q139 107 345 107q189 0 309 -126.5t120 -318.5zM1662 1495q0 -101 -333 -721l-421 -776q-42 -78 -122 -78q-57 0 -98.5 32.5t-41.5 87.5q0 75 279 570q322 574 351 646
q43 109 93 211q72 149 154 149q55 0 97 -34t42 -87zM986 1141q0 -192 -131 -307q-125 -110 -320 -110q-199 0 -333 118q-141 123 -141 319q0 201 151 318q139 107 344 107q197 0 318 -136q112 -127 112 -309zM1791 624q-103 0 -165 -67t-62 -171q0 -90 52 -150.5t141 -60.5
t148 49q64 52 64 139q0 102 -35 169q-45 92 -143 92zM556 1379q-104 0 -166 -66.5t-62 -171.5q0 -91 51.5 -151t142.5 -60q89 0 150 50t61 138q0 102 -36 173q-46 88 -141 88zM3201 402q0 -191 -132 -307q-126 -109 -319 -109q-198 0 -334 118q-141 123 -141 319
q0 199 152 317q139 107 345 107q191 0 310 -126.5t119 -318.5zM2770 640q-103 0 -165 -67t-62 -171q0 -89 52.5 -150t140.5 -61q90 0 151 50t61 139q0 104 -37 172q-46 88 -141 88z" />
    <glyph glyph-name="Scaron" unicode="&#x160;" horiz-adv-x="1327" 
d="M1267 439q0 -244 -217 -371q-170 -99 -408 -99q-179 0 -361 100q-220 121 -220 300q0 52 33 91l34 42q19 16 43 22q40 8 56 8q27 0 33 -14q4 -20 7 -29q8 -23 41 -60q99 -114 115 -127q86 -69 212 -69q114 0 226 61q134 74 134 190q0 156 -220 189l-407 54
q-220 60 -220 274q0 213 194 371q178 145 378 145q127 0 228 -43q79 -33 123 -88t44 -129q0 -20 -5.5 -38.5t-18.5 -43.5q-3 -7 -22 -9.5t-50 -2.5h-23t-12 1q-67 48 -133 66q-48 13 -114 13q-96 0 -198 -51q-125 -62 -125 -152q0 -81 140 -96q280 -27 326 -36
q201 -38 294 -151t93 -318zM1143 1964q0 50 -48 85q-43 29 -97 29q-55 0 -141 -96l-122 -139l-102 150q-69 104 -130 104q-55 0 -96 -29q-47 -33 -47 -85q0 -44 115 -193q102 -132 154 -178q44 -39 101 -39q84 0 248.5 154.5t164.5 236.5z" />
    <glyph glyph-name="guilsinglleft" unicode="&#x2039;" horiz-adv-x="854" 
d="M792 924q0 -48 -129 -162l-182 -146l181 -147q131 -108 131 -154q0 -52 -44.5 -86.5t-98.5 -34.5q-74 0 -154 71q-27 24 -67.5 52.5t-96.5 61.5q-127 77 -169 110l-68 49q-34 31 -34 69q0 72 307 283l129 97q77 57 152 57q55 0 99 -33.5t44 -86.5z" />
    <glyph glyph-name="OE" unicode="&#x152;" horiz-adv-x="2376" 
d="M883 212q0 36 8 141t8 175q0 95 5.5 194.5t12.5 211.5v244l-2 68h-55q-243 0 -384 -222q-99 -155 -99 -335q0 -56 10 -115q27 -174 194 -274q70 -42 144.5 -65t157.5 -23zM1373 621q-49 0 -86.5 -4t-61.5 -10v-277q112 113 148 291zM1236 1162q0 -43 -4 -133t-4 -139
q29 5 51.5 7.5t40.5 2.5h52q-33 181 -136 262zM2315 1419q0 -59 -45 -99t-106 -40q-25 0 -95 -2.5t-101 -2.5l-196 -4l-254 3q128 -144 168 -376h19h15h13q42 0 57 3l89 5q154 0 154 -133q0 -157 -178 -157l-77 4l-81 1q-11 -96 -40 -181t-82 -172q-29 -46 -63 -88l592 1
q60 0 105.5 -39.5t45.5 -98.5q0 -68 -227 -110q-210 -37 -481 -37q-35 0 -58 1q-113 5 -140 5l-198 5h-22q-6 -3 -69 -3q-71 0 -109 36q-154 0 -292.5 40.5t-261.5 121.5q-272 176 -323 467q-13 85 -13 154q0 250 144 469q106 161 258.5 243t352.5 82q28 0 84 -3t86 -3l4 1
q28 20 95 20h35q6 0 10.5 0.5t7.5 1.5h9l312 4l313 5q543 0 543 -124z" />
    <glyph glyph-name="quoteleft" unicode="&#x2018;" horiz-adv-x="562" 
d="M501 1503q0 -25 -70 -155l-45 -81q112 -41 112 -127q0 -69 -78 -111q-65 -34 -140 -34q-83 0 -144 35q-75 42 -75 110q0 30 18 57q35 120 152 337q56 80 130 80q54 0 94 -28q46 -32 46 -83z" />
    <glyph glyph-name="quoteright" unicode="&#x2019;" horiz-adv-x="562" 
d="M501 1469q0 -31 -17 -58q-35 -119 -75 -194l-77 -143q-56 -79 -131 -79q-53 0 -94 28q-46 32 -46 83q0 28 71 155l45 80q-113 42 -113 128q0 69 78 111q65 34 140 34q83 0 144 -35q75 -42 75 -110z" />
    <glyph glyph-name="quotedblleft" unicode="&#x201c;" horiz-adv-x="1134" 
d="M1073 1503q0 -25 -70 -155l-45 -81q112 -41 112 -127q0 -69 -78 -111q-65 -34 -140 -34q-83 0 -144 35q-75 42 -75 110q0 30 18 57q35 120 152 337q56 80 130 80q54 0 94 -28q46 -32 46 -83zM501 1503q0 -25 -70 -155l-45 -81q112 -41 112 -127q0 -69 -78 -111
q-65 -34 -140 -34q-83 0 -144 35q-75 42 -75 110q0 30 18 57q35 120 152 337q56 80 130 80q54 0 94 -28q46 -32 46 -83z" />
    <glyph glyph-name="quotedblright" unicode="&#x201d;" horiz-adv-x="1145" 
d="M1084 1469q0 -31 -17 -58q-35 -119 -75 -194l-77 -143q-56 -79 -131 -79q-53 0 -94 28q-46 32 -46 83q0 28 71 155l45 80q-113 42 -113 128q0 69 78 111q65 34 140 34q83 0 144 -35q75 -42 75 -110zM501 1469q0 -31 -17 -58q-35 -119 -75 -194l-77 -143q-56 -79 -131 -79
q-53 0 -94 28q-46 32 -46 83q0 28 71 155l45 80q-113 42 -113 128q0 69 78 111q65 34 140 34q83 0 144 -35q75 -42 75 -110z" />
    <glyph glyph-name="bullet" unicode="&#x2022;" horiz-adv-x="651" 
d="M590 758q0 -95 -87 -152q-75 -48 -177 -48q-99 0 -176 49q-89 57 -89 151t89 152q77 49 176 49q100 0 176 -50q88 -58 88 -151z" />
    <glyph glyph-name="endash" unicode="&#x2013;" horiz-adv-x="1318" 
d="M1257 571q0 -56 -42 -88t-125 -32q-59 0 -214 -3t-311 -5t-323 -2q-67 0 -118 26q-63 33 -63 94q0 59 63 94q51 27 118 27l414 4l415 5q70 0 120 -25q66 -33 66 -95z" />
    <glyph glyph-name="emdash" unicode="&#x2014;" horiz-adv-x="1824" 
d="M1763 571q0 -56 -42 -88t-125 -32q-63 0 -286 -3t-499 -5t-569 -2q-67 0 -118 26q-63 33 -63 94q0 59 63 94q51 27 118 27q73 0 178 1t222.5 2.5t266.5 1.5l668 4q70 0 120 -25q66 -33 66 -95z" />
    <glyph glyph-name="tilde" unicode="&#x2dc;" horiz-adv-x="1141" 
d="M1080 1453q0 -107 -92 -188.5t-200 -81.5q-139 0 -232 47q-50 24 -114 88q-49 47 -79 47t-78.5 -72.5t-94.5 -72.5q-47 0 -84 23q-45 26 -45 69q0 106 100 178q91 64 202 64q115 0 190 -47q21 -12 100 -88q50 -47 101 -47q54 0 74 45l27 85q26 45 98 45q49 0 84 -23
q43 -26 43 -71z" />
    <glyph glyph-name="trademark" unicode="&#x2122;" horiz-adv-x="1542" 
d="M810 1223q0 -53 -81 -53l-97 -4l-97 -3h-4q0 -63 1.5 -162t3 -203t1.5 -192q0 -83 -86 -83q-80 0 -80 58v28q0 202 -2 309t-4 243h-68q-236 0 -236 64q0 53 78 53q26 0 98.5 -2.5t105.5 -2.5l205 -4l69 2l69 3q124 0 124 -51zM1481 1080q0 -26 -7 -71l-7 -71l-2 -73
l-1 -74l2 -69l2 -69l4 -48l4 -47q0 -55 -92 -55q-84 0 -84 115l2 93l2 93l-3 125q-151 -196 -171 -216q-59 -62 -122 -62q-34 -3 -81 65l-151 213l-3 -125l1 -93l3 -93q0 -115 -84 -115q-92 0 -92 55l4 47l4 48l2 69l2 69l-2 74l-1 73q0 26 -7 71l-7 71q0 27 37 46
q31 14 62 14q41 0 121 -72l105 -106l92 -124q7 -32 21 -34l14 5l5 10l97 133q21 30 135 138q53 50 97 50q34 0 66.5 -15.5t32.5 -44.5z" />
    <glyph glyph-name="scaron" unicode="&#x161;" horiz-adv-x="1042" 
d="M1008 302q0 -175 -176 -276q-151 -86 -348 -86q-115 0 -272 79q-174 87 -174 184q0 41 35 80t76 39q21 0 33 -16q23 -29 122.5 -73.5t171.5 -44.5q65 0 134 26q90 33 90 86q0 48 -156 98q-225 68 -288 103q-156 84 -156 224q0 204 169 285q120 57 351 57q367 0 367 -155
q0 -78 -104 -127q-9 -3 -21 -3t-20 1l-36 8h-37q-13 3 -19 24q-42 8 -101 18q-8 1 -72 11l-39 2q-146 0 -146 -97l3 -23q4 -35 166 -89q212 -68 291 -115q156 -90 156 -220zM903 1562q0 50 -48 85q-43 29 -97 29q-55 0 -141 -96l-122 -139l-102 150q-69 104 -130 104
q-55 0 -96 -29q-47 -33 -47 -85q0 -44 115 -193q102 -132 154 -178q44 -39 101 -39q84 0 248.5 154.5t164.5 236.5z" />
    <glyph glyph-name="guilsinglright" unicode="&#x203a;" horiz-adv-x="854" 
d="M62 924q0 -48 129 -162l181 -146l-180 -147q-131 -108 -131 -154q0 -52 46 -89q43 -32 97 -32q74 0 154 71q27 24 67.5 52.5t96.5 61.5q128 78 168 110l69 49q34 31 34 69q0 72 -307 283l-129 97q-78 57 -152 57q-55 0 -99 -33.5t-44 -86.5z" />
    <glyph glyph-name="oe" unicode="&#x153;" horiz-adv-x="2056" 
d="M836 457q0 157 -57 236.5t-160 79.5q-132 0 -203 -120q-48 -83 -48 -183v-20t2 -22q9 -99 71 -164q32 -32 73 -47.5t92 -15.5q52 0 95 19.5t74.5 55.5t46 81t14.5 100zM1995 195q0 -122 -197 -192q-152 -54 -313 -54q-315 0 -486 156q-68 -81 -161 -124t-208 -43
q-102 0 -192.5 28t-168.5 86q-173 131 -203 365q-3 24 -4 37t-1 42q0 176 101 320q76 107 187.5 164t259.5 57q113 0 203.5 -35t161.5 -111l40 -47l4 5q168 191 437 191q160 0 316 -90q173 -101 173 -240q0 -10 -1 -22t-4 -24q-33 -146 -122 -204q-42 -27 -104 -42.5
t-146 -15.5l-410 -16q0 -46 28.5 -81.5t91.5 -65.5q49 -23 101.5 -35t106.5 -12q73 0 212.5 52t183.5 52q114 0 114 -101zM1670 634q0 47 -11 79t-32.5 52.5t-63.5 31.5t-108 11q-109 0 -181.5 -51t-110.5 -157q44 0 136 -9q34 0 79 -4t57 -4q149 0 235 51z" />
    <glyph glyph-name="Ydieresis" unicode="&#x178;" horiz-adv-x="1618" 
d="M1557 1384q0 -47 -41 -89q-75 -78 -131 -141q-52 -58 -93 -111q-26 -36 -319 -369l-8 -106q0 -53 -3.5 -107.5t-7.5 -115.5l5 -183l1 -35l2 -38q0 -60 -44.5 -96.5t-107.5 -36.5q-64 0 -105 34q-47 38 -47 99l-1 37l-2 36l-4 183q4 62 7.5 120.5t3.5 102.5l2 29
q-7 3 -8 10q0 8 10 21l3 47q-48 57 -79 93q-37 43 -93 106q-43 48 -108 121l-125 146l-123 114q-80 78 -80 128q0 59 49 101q46 37 107 37q60 0 157 -76q70 -56 116 -112q73 -92 138 -163l203 -221l276 332q201 240 292 240q62 0 110 -38t48 -99zM959 658l-10 -11z
M1295 1828q0 -67 -53 -108q-49 -38 -116 -38q-69 0 -117 38q-53 42 -53 108q0 64 53 107q49 38 117 38q66 0 117.5 -40t51.5 -105zM756 1828q0 -67 -53 -108q-49 -38 -116 -38q-69 0 -117 38q-53 42 -53 108q0 64 53 107q49 38 117 38q66 0 117.5 -40t51.5 -105z" />
    <glyph glyph-name="exclamdown" unicode="&#xa1;" horiz-adv-x="461" 
d="M388 811q0 56 -41.5 89.5t-100.5 33.5q-152 0 -152 -226l2 -66l3 -64l5 -778q0 -56 43 -92q40 -32 99 -32q58 0 100 34t42 90v1011zM400 1209q0 67 -51 106.5t-118 39.5q-69 0 -117 -38q-53 -42 -53 -108q0 -64 53 -107q49 -38 117 -38q66 0 117.5 40t51.5 105z" />
    <glyph glyph-name="cent" unicode="&#xa2;" horiz-adv-x="1162" 
d="M389 294l180 515q-228 -29 -228 -306q0 -137 48 -209zM527 -157q-19 -58 -71 -89q-34 -19 -71 -19q-23 0 -41 5q-86 24 -86 127q0 76 31 150l3 8q-29 17 -55 37q-85 66 -130 153t-45 195q0 330 136.5 491.5t427.5 161.5l31 -1l53 152q29 85 129 85q17 0 25.5 -1t25.5 -7
q97 -28 97 -109q0 -16 -1 -24t-7 -24l-49 -141q150 -63 150 -145q0 -54 -43 -91t-97 -37q-8 0 -30.5 8t-63.5 27l-198 -567q30 0 68.5 12t101.5 39q116 51 138 51q58 0 101 -36.5t43 -91.5q0 -79 -187 -157q-166 -68 -272 -68q-44 0 -80 4z" />
    <glyph glyph-name="sterling" unicode="&#xa3;" horiz-adv-x="1926" 
d="M448 -56q19 0 265.5 -3t596 -6.5t401.5 -3.5h57h5.5t4.5 1q45 19 79.5 51.5t34.5 74.5q0 52 -57 95q-19 14 -57 33l-1048 6q-1 33 -1.5 78t-0.5 109q0 144 4 232.5t16 110.5q6 11 28 15.5t61 4.5q33 0 90 -4q129 -9 158 -9q37 0 56 2.5t33 10.5q43 23 59 47.5t16 58.5
q0 17 -3.5 49.5t-45 56.5t-98.5 24q-46 0 -176.5 4.5t-213.5 7.5q-2 24 -4 58t-2 57q0 106 18 187q26 116 87 194q75 95 201 128q70 18 137.5 27.5t117.5 9.5q122 0 208 -42q72 -48 89.5 -58t45.5 -10q47 0 88 26q45 29 45 71q0 35 -32 73q-36 43 -113 87q-91 51 -174 76
q-93 28 -192 28q-133 0 -286 -54q-211 -75 -328 -199q-109 -116 -142 -279q-16 -83 -23 -166t-7 -143q0 -27 0.5 -43.5t1.5 -27.5l-312 12q-31 -17 -46 -30q-46 -41 -46 -94q0 -52 46 -93q15 -13 46 -31l312 -18q2 0 2.5 -56t0.5 -100q0 -142 -1 -234.5t-2 -159.5
q-5 1 -11.5 1.5t-18.5 0.5q-43 0 -143 -4q-33 -1 -91 -4q-18 -4 -28 -9q-65 -30 -74 -101q-1 -6 -1 -18q0 -52 42 -88q14 -12 43 -26z" />
    <glyph glyph-name="yen" unicode="&#xa5;" horiz-adv-x="1618" 
d="M1364 332q0 -54 -45 -87q-40 -29 -97 -29l-264 -1l1 -53l1 -36l2 -37q0 -60 -44.5 -96.5t-107.5 -36.5q-64 0 -105 34q-47 38 -47 99l-1 37l-2 36l-1 53l-241 -1q-58 0 -99 28q-46 32 -46 88q0 125 240 125l51 -1l51 -1h44l10 144q-7 3 -8 10q0 5 6 14l-265 -1
q-56 0 -97 30q-44 33 -44 87q0 121 234 121h21l-122 137l-125 146l-123 114q-80 78 -80 128q0 59 49 101q46 37 107 37q60 0 157 -76q70 -56 116 -112q73 -92 138 -163l203 -221l276 332q201 240 292 240q62 0 110 -38t48 -99q0 -47 -41 -89q-75 -78 -131 -141
q-52 -58 -93 -111l-159 -187h104q57 0 99.5 -30t42.5 -86q0 -54 -45 -87q-40 -29 -97 -29l-267 -1l-5 -55l-7 -115h28q-2 0 -3 1q97 0 156.5 -2t72.5 -4q152 -21 152 -116z" />
    <glyph glyph-name="brokenbar" unicode="&#xa6;" horiz-adv-x="404" 
d="M343 935q0 -151 -143 -151q-139 0 -139 154v650q0 55 46 92q43 32 100 32t96.5 -33.5t39.5 -90.5v-653zM343 -210q0 -151 -143 -151q-139 0 -139 154v650q0 55 46 92q43 32 100 32t96.5 -33.5t39.5 -90.5v-653z" />
    <glyph glyph-name="section" unicode="&#xa7;" horiz-adv-x="1098" 
d="M656 732l-15 4q-21 0 -61 5q-10 1 -52 7q-2 1 -3 2q-110 0 -110 -85l3 -23q3 -27 97 -75q39 0 65 2.5t59 11.5q90 24 90 77q0 32 -73 74zM1031 156q0 -174 -176 -258q-118 -55 -264 -55h-11q-42 0 -73 4q-117 12 -272 106q-174 105 -174 202q0 41 35 77q32 32 67 32
q6 -1 9 -1q21 0 33 -20q23 -32 122 -85t172 -62q8 -1 17.5 -1.5t14.5 -0.5q46 0 102 14q90 24 90 77q0 48 -156 114l-48 20h-7q-56 6 -200 93l-15 9l-62 42q-112 83 -112 208q0 181 134 252q-129 93 -129 220q0 204 170 268q78 30 206 30q53 0 75 -1.5t70 -6.5
q367 -36 367 -192q0 -79 -105 -117q-8 -2 -13 -2q-9 0 -27 5l-37 11l-37 4q-12 3 -19 26q-72 22 -172 46q-19 4 -36 6t-39 2q-110 0 -110 -84l2 -24q5 -36 166 -105q211 -90 292 -145q156 -105 156 -235q0 -161 -150 -245q144 -102 144 -228z" />
    <glyph glyph-name="dieresis" unicode="&#xa8;" horiz-adv-x="1000" 
d="M939 1373q0 -67 -53 -108q-49 -38 -116 -38q-69 0 -117 38q-53 42 -53 108q0 64 53 107q49 38 117 38q66 0 117.5 -40t51.5 -105zM400 1373q0 -67 -53 -108q-49 -38 -116 -38q-69 0 -117 38q-53 42 -53 108q0 64 53 107q49 38 117 38q66 0 117.5 -40t51.5 -105z" />
    <glyph glyph-name="copyright" unicode="&#xa9;" horiz-adv-x="1312" 
d="M925 523q0 -56 -110 -105q-100 -44 -166 -44q-129 0 -220 91.5t-91 221.5q0 132 91 259q99 141 231 141q73 0 160 -51q95 -56 95 -120q0 -29 -51 -29q-28 0 -90 31.5t-92 31.5q-73 0 -142 -108q-62 -98 -62 -176q0 -67 42 -115.5t107 -48.5q46 0 93 25q17 8 68 45
q36 25 54 25q32 0 57.5 -21.5t25.5 -52.5zM1158 392q-72 -117 -178.5 -176.5t-250.5 -59.5q-117 0 -221 27t-196 84q-203 127 -241 345q-10 65 -10 112q0 182 106 342q76 116 186 175.5t254 59.5q279 0 437 -113t196 -343q11 -69 11 -122q0 -176 -93 -331zM1047 847
q-27 171 -134 236q-43 26 -112.5 39t-160.5 13q-193 0 -306 -175q-77 -121 -77 -261q0 -33 1.5 -47.5t6.5 -41.5q24 -145 158 -222q114 -66 273 -66q191 0 294 175q66 114 66 251q0 45 -9 99z" />
    <glyph glyph-name="ordfeminine" unicode="&#xaa;" horiz-adv-x="1114" 
d="M1053 776q0 -45 -39.5 -71.5t-85.5 -26.5q-29 0 -58 33q-25 32 -28 66q-24 -44 -111 -79q-78 -29 -143 -29q-211 0 -360 110q-167 122 -167 325q0 201 148 322q139 113 344 113q118 0 258 -63q15 110 97 110q63 0 103 -47q37 -43 37 -108l2 -327zM812 985v261
q-79 46 -144.5 70t-114.5 24q-107 0 -174.5 -64.5t-67.5 -171.5q0 -110 85 -176q79 -59 192 -59q56 0 129.5 35t94.5 81z" />
    <glyph glyph-name="guillemotleft" unicode="&#xab;" horiz-adv-x="1487" 
d="M792 924q0 -48 -129 -162l-182 -146l181 -147q131 -108 131 -154q0 -52 -44.5 -86.5t-98.5 -34.5q-74 0 -154 71q-27 24 -67.5 52.5t-96.5 61.5q-127 77 -169 110l-68 49q-34 31 -34 69q0 72 307 283l129 97q77 57 152 57q55 0 99 -33.5t44 -86.5zM1425 932
q0 -48 -129 -162l-181 -146l180 -147q131 -108 131 -154q0 -52 -44.5 -86.5t-98.5 -34.5q-74 0 -154 71q-27 24 -67.5 52.5t-96.5 61.5q-65 40 -103 65q-45 29 -65 45l-68 49q-34 31 -34 69q0 72 307 283l128 97q78 57 152 57q55 0 99 -33.5t44 -86.5z" />
    <glyph glyph-name="logicalnot" unicode="&#xac;" horiz-adv-x="1265" 
d="M1201 577l1 3l2 -67q0 -125 -155 -125q-149 0 -149 83l3 25l3 25l-315 -1l-315 4q-43 0 -74 5t-63 18q-78 30 -78 90q0 74 64.5 126.5t422.5 52.5q38 0 135.5 -2t116.5 -2l176 -5q52 0 93.5 -17.5t73.5 -51.5q58 -64 58 -161z" />
    <glyph glyph-name="minus" unicode="&#xad;" horiz-adv-x="1010" 
d="M949 571q0 -56 -42 -88t-125 -32q-56 0 -176 -3.5t-197 -5t-167 -1.5q-67 0 -118 26q-63 33 -63 94q0 59 63 94q51 27 118 27l260 4l261 5q70 0 120 -25q66 -33 66 -95z" />
    <glyph glyph-name="registered" unicode="&#xae;" horiz-adv-x="1312" 
d="M1158 392q-72 -117 -178.5 -176.5t-250.5 -59.5q-117 0 -221 27t-196 84q-203 127 -241 345q-10 65 -10 112q0 182 106 342q76 116 186 175.5t254 59.5q279 0 437 -113t196 -343q11 -69 11 -122q0 -176 -93 -331zM1047 847q-27 171 -134 236q-43 26 -112.5 39t-160.5 13
q-193 0 -306 -175q-77 -121 -77 -261q0 -33 1.5 -47.5t6.5 -41.5q24 -145 158 -222q114 -66 273 -66q191 0 294 175q66 114 66 251q0 45 -9 99zM948 428q0 -58 -64 -58q-40 0 -58 31l-5 8l-131 234q-9 -1 -24 -1.5t-25 -0.5q-43 0 -66 4q3 -60 5.5 -119t2.5 -102
q0 -23 -18 -41q-19 -16 -44 -16q-68 0 -68 59l-7 139v20v19v18v16v15v13v12q0 19 -0.5 39.5t-0.5 41.5v13v207q0 37 1.5 48.5t7.5 26.5q14 36 58 36q17 4 49 5t94 1q93 0 185 -60q49 -32 75.5 -71.5t26.5 -85.5q0 -58 -21.5 -103t-69.5 -78l-32 -19q35 -52 75 -125
q51 -96 54 -126zM812 881q0 40 -55 70q-43 23 -91 28l-44 1h-46l3 -64l-2 -155l58 -5q70 0 119 26q58 32 58 99z" />
    <glyph glyph-name="degree" unicode="&#xb0;" horiz-adv-x="813" 
d="M752 1313q0 -159 -104 -251q-100 -88 -260 -88q-327 0 -327 360q0 162 93 254t254 92q344 0 344 -367zM499 1313l1 42l1 43q0 76 -93 76q-60 0 -81 -43q-14 -28 -14 -97l-1 -38l-1 -38q0 -78 77 -78q111 0 111 133z" />
    <glyph glyph-name="plusminus" unicode="&#xb1;" horiz-adv-x="1338" 
d="M1277 703q0 -84 -74 -105q-30 -8 -144 -8l-264 -3v-133l1 -128l264 1q70 0 120 -25q66 -33 66 -95q0 -56 -42 -88t-125 -32q-58 0 -203.5 -3t-283 -5t-284.5 -2q-67 0 -118 26q-63 33 -63 94q0 59 63 94q51 27 118 27l210 3q-6 25 -8.5 45t-2.5 49v93l1 74l-232 -4
q-81 0 -138 25q-77 33 -77 95q0 121 300 121l83 -1l64 -1l-2 189q0 100 36 150t112 50q139 0 139 -133l-2 -41l-1 -41l2 -170h130l130 3q225 0 225 -121z" />
    <glyph glyph-name="twosuperior" unicode="&#xb2;" horiz-adv-x="864" 
d="M363 773q23 3 248 3q192 0 192 -91q0 -38 -30 -65q-31 -25 -71 -25h-57l-90 -1l-299 1q-107 0 -128 6.5t-45 44.5q-22 38 -22 64q0 63 140 173l8 6l242 180q130 100 130 200q0 25 -42 59.5t-69 34.5q-43 0 -147 -57q-99 -54 -108 -56q-105 0 -105 79q0 75 143 147
q126 62 217 62q117 0 215 -73q107 -78 107 -191q0 -239 -327 -437z" />
    <glyph glyph-name="threesuperior" unicode="&#xb3;" horiz-adv-x="816" 
d="M402 558q-261 0 -334 176q-5 13 -7 30q0 38 32.5 62t72.5 24q46 0 76 -34l46 -54q37 -28 114 -28q56 0 96 26q50 30 50 80q0 140 -211 159q-53 0 -80.5 22.5t-27.5 61.5q0 59 84 82l15 4l127 26q82 17 82 72q0 79 -143 79q-32 0 -110 -36q-37 -17 -58 -25.5t-28 -9.5
q-39 0 -70.5 25.5t-31.5 64.5q0 57 118 111q103 46 165 46q146 0 237 -53q115 -67 115 -201q0 -128 -101 -186q125 -72 125 -221q0 -134 -111 -223q-103 -80 -242 -80z" />
    <glyph glyph-name="acute" unicode="&#xb4;" horiz-adv-x="550" 
d="M489 1547q0 -16 -60 -88q-19 -27 -93 -108q-70 -62 -129 -62q-54 0 -96 27q-50 32 -50 83q0 83 100 172.5t186 89.5q55 0 98.5 -30.5t43.5 -83.5z" />
    <glyph glyph-name="mu" unicode="&#xb5;" horiz-adv-x="1235" 
d="M1174 -184q0 -78 -125 -126q-102 -38 -201 -38q-127 0 -215 101q-74 87 -89 212q-26 8 -65 24q-99 44 -120 96q-5 -9 -7 -59t-2 -136v-53q0 -122 1 -179.5t2 -102.5q-7 -64 -59 -110q-40 -35 -68 -35q-61 0 -105 34q-49 37 -49 95q0 231 1 316t3 266t2 192l4 265
q0 39 -2 74t-9 108q0 44 -5 105t-5 77q0 54 52 88q45 30 102 30q174 0 174 -329l-1 -79l-2 -65l-4 -253q60 -78 135 -105q49 -17 134 -17l17 1q35 16 89 33q39 138 39 410q0 48 -16 143.5t-16 137.5q0 60 46 94.5t108 34.5q123 0 162 -157q20 -82 20 -253q0 -346 -51 -475
q-67 -170 -252 -217q3 -31 19 -64q20 -45 45 -45q34 0 97 21.5t98 21.5q118 0 118 -82z" />
    <glyph glyph-name="paragraph" unicode="&#xb6;" horiz-adv-x="1624" 
d="M1563 1467q0 -99 -139 -117v-1484q0 -190 -152 -190q-62 0 -107 36.5t-45 99.5v1527l-149 -1l-3 -720q0 -16 6 -168q3 -76 3 -139q0 -83 2.5 -153t6.5 -153q0 -129 -18 -197q-35 -120 -141 -120q-59 0 -106 33q-50 36 -50 94l3 375l4 375l-91 -4q-247 0 -385 128
q-141 131 -141 376q0 228 135 367t365 139h-8l12 1h59h63q27 6 58 6l316 4l316 5q70 0 120 -25q66 -33 66 -95z" />
    <glyph glyph-name="periodcentered" unicode="&#xb7;" horiz-adv-x="461" 
d="M399 756q0 65 -53 106q-45 39 -115 39q-68 0 -119 -40t-51 -105t54 -109q49 -37 116 -37q68 0 115 37q53 42 53 109z" />
    <glyph glyph-name="periodcentered" unicode="&#x2219;" horiz-adv-x="461" 
d="M399 756q0 65 -53 106q-45 39 -115 39q-68 0 -119 -40t-51 -105t54 -109q49 -37 116 -37q68 0 115 37q53 42 53 109z" />
    <glyph glyph-name="cedilla" unicode="&#xb8;" horiz-adv-x="755" 
d="M694 -227q0 -64 -21 -119t-63 -108q-87 -111 -222 -111q-50 0 -99.5 9t-101.5 29q-126 47 -126 126q0 82 119 82q32 0 97 -21q29 -10 55.5 -16t42.5 -6q24 0 45 47q18 42 18 68q0 54 -73 66l-140 15q-76 15 -82 75l-3 53q0 110 42 178q33 54 72 54q19 0 22 -21
q0 -75 118 -117q182 -64 201 -76q52 -32 75.5 -83t23.5 -124z" />
    <glyph glyph-name="onesuperior" unicode="&#xb9;" horiz-adv-x="619" 
d="M463 599l-110 -4l-108 -4q-132 0 -132 74q0 105 114 105v479q-18 -3 -64 -3q-40 0 -69 25q-33 26 -33 65q0 56 125 139q120 79 181 79q70 0 70 -74q0 -1 -3.5 -106.5t-3.5 -173.5q0 -88 -2 -145.5t-4 -133.5v-148q134 0 134 -87t-95 -87z" />
    <glyph glyph-name="ordmasculine" unicode="&#xba;" horiz-adv-x="1037" 
d="M976 1343q0 -237 -121 -346q-116 -105 -356 -105q-177 0 -305 110q-133 115 -133 291q0 173 159 296q147 112 325 112q138 0 280 -109q151 -115 151 -249zM669 1343q0 45 -55 73q-45 24 -100 24q-57 0 -101.5 -44.5t-44.5 -102.5q0 -161 145 -161q82 0 123 68
q33 57 33 143z" />
    <glyph glyph-name="guillemotright" unicode="&#xbb;" horiz-adv-x="1487" 
d="M696 924q0 -48 129 -162l181 -146l-180 -147q-131 -108 -131 -154q0 -52 46 -89q43 -32 97 -32q74 0 154 71q27 24 67.5 52.5t96.5 61.5q65 40 103 65q45 29 65 45l68 49q34 31 34 69q0 72 -307 283l-128 97q-78 57 -152 57q-55 0 -99 -33.5t-44 -86.5zM62 932
q0 -48 129 -162l181 -146l-180 -147q-131 -108 -131 -154q0 -52 46 -89q43 -32 97 -32q74 0 154 71q27 24 67.5 52.5t96.5 61.5q128 78 168 110l69 49q34 31 34 69q0 72 -307 283l-129 97q-78 57 -152 57q-55 0 -99 -33.5t-44 -86.5z" />
    <glyph glyph-name="onequarter" unicode="&#xbc;" horiz-adv-x="1999" 
d="M1402 1504q0 -37 -11 -58l-128 -268q-120 -260 -211 -410l-240 -397l-199 -382q-40 -79 -128 -79q-58 0 -99 32q-48 35 -48 89q0 23 10 46q87 206 323 589t326 596q69 162 98 213q84 151 162 151q52 0 98.5 -34t46.5 -88zM463 669q-14 0 -53 -2.5t-57 -2.5l-108 -4
q-132 0 -132 74q0 106 114 106v479q-20 -3 -64 -3q-40 0 -69 25q-33 26 -33 65q0 56 125 139q120 79 181 79q70 0 70 -75q0 -1 -3.5 -106.5t-3.5 -172.5q0 -88 -2 -145.5t-4 -133.5v-148q134 0 134 -88q0 -86 -95 -86zM1835 239h-107l2 -84l2 -110q0 -90 -102 -90
q-103 0 -103 89l-4 198l-96 2q-126 0 -195 5t-84 13q-40 20 -40 55q0 46 51 115q81 110 120 173l109 181l57 100q39 56 90 56q36 0 70 -25.5t34 -60.5q0 -16 -8 -27q-38 -58 -226 -406h127l2 92q0 53 27 80t78 27q102 0 102 -90q0 -45 -6 -113q63 0 105 -5q98 0 98 -88
q0 -39 -30.5 -63t-72.5 -24z" />
    <glyph glyph-name="onehalf" unicode="&#xbd;" horiz-adv-x="2016" 
d="M1402 1504q0 -37 -11 -58l-128 -268q-120 -260 -211 -410l-240 -397l-199 -382q-40 -79 -128 -79q-58 0 -99 32q-48 35 -48 89q0 23 10 46q87 206 323 589t326 596q69 162 98 213q84 151 162 151q52 0 98.5 -34t46.5 -88zM463 669q-14 0 -53 -2.5t-57 -2.5l-108 -4
q-132 0 -132 74q0 106 114 106v479q-20 -3 -64 -3q-40 0 -69 25q-33 26 -33 65q0 56 125 139q120 79 181 79q70 0 70 -75q0 -1 -3.5 -106.5t-3.5 -172.5q0 -88 -2 -145.5t-4 -133.5v-148q134 0 134 -88q0 -86 -95 -86zM1515 178q24 3 249 3q191 0 191 -91q0 -39 -29.5 -64.5
t-69.5 -25.5h-58l-89 -1h-300q-108 0 -128.5 6.5t-44.5 44.5q-22 38 -22 64q0 71 140 174l249 186q132 101 132 200q0 26 -43 60t-69 34q-43 0 -147 -57q-99 -54 -108 -56q-39 0 -72.5 20t-33.5 59q0 74 144 146q128 63 217 63q115 0 215 -73q107 -78 107 -191
q0 -240 -326 -437z" />
    <glyph glyph-name="threequarters" unicode="&#xbe;" horiz-adv-x="2179" 
d="M1582 1504q0 -37 -11 -58q-53 -107 -127 -268q-121 -260 -211 -410l-240 -397l-199 -382q-41 -79 -129 -79q-57 0 -99 32q-47 35 -47 89q0 23 10 46q87 206 324 591q234 381 325 594q67 160 98 213q83 151 161 151q55 0 100 -34t45 -88zM401 655q-108 0 -195 39
q-102 45 -139 136q-6 14 -6 30q0 38 33 65q31 22 72 22q44 0 74 -34l48 -55q37 -28 113 -28q52 0 96 27q50 30 50 80q0 140 -211 159q-107 9 -107 84q0 56 84 82l14 3l128 26q82 17 82 72q0 80 -143 80q-32 0 -108.5 -36t-87.5 -36q-41 0 -71.5 25.5t-30.5 65.5
q0 56 117 110q103 46 166 46q146 0 237 -53q115 -67 115 -201q0 -126 -102 -186q125 -72 125 -220q0 -138 -110 -224q-100 -79 -243 -79zM2016 239h-108l2 -84l2 -110q0 -90 -102 -90t-102 89q0 11 -2.5 82t-2.5 116l-95 2q-127 0 -196 5t-84 13q-39 20 -39 55q0 47 50 115
q81 110 120 173l109 181l57 100q39 56 91 56q35 0 69 -25.5t34 -60.5q0 -16 -8 -27q-40 -63 -225 -406h126l2 92q0 53 27 80t78 27q102 0 102 -90v-12q0 -21 -1 -46.5t-4 -54.5q61 0 104 -5q98 0 98 -88q0 -39 -30.5 -63t-71.5 -24z" />
    <glyph glyph-name="questiondown" unicode="&#xbf;" horiz-adv-x="1210" 
d="M61 121q0 75 23 131t68 95t196 104q142 59 202 119q39 39 50 136t17 112q21 55 101 55q129 0 150 -127q6 -39 6 -77q0 -162 -132 -270q-38 -32 -244 -139q-132 -69 -132 -139q0 -156 320 -156q45 0 163.5 61.5t145.5 61.5q60 0 107 -39.5t47 -100.5q0 -96 -182 -180
q-162 -74 -281 -74q-130 0 -235 25t-196 79q-194 115 -194 323zM595 1142q0 64 53 107q48 39 116 39q65 0 117.5 -40.5t52.5 -105.5q0 -63 -54 -107q-48 -39 -116 -39q-65 0 -117 40.5t-52 105.5z" />
    <glyph glyph-name="Agrave" unicode="&#xc0;" horiz-adv-x="1688" 
d="M1645 88q0 -56 -44 -90q-39 -30 -98 -30q-93 0 -223 188q-80 116 -154 271q-55 -7 -119.5 -9.5t-176.5 -2.5q-74 0 -148 -0.5t-148 -0.5q-53 -224 -71 -266q-66 -172 -166 -172q-66 0 -126.5 40t-73.5 105l-1 12q0 24 13.5 69t39.5 109l77 187q165 392 272 631
q121 270 192 396q77 137 112 137q138 0 205 -145q39 -86 132 -300q127 -294 165 -380q103 -235 198 -438q12 -22 21 -39q22 -40 65 -115q57 -102 57 -157zM1006 688l-74 208q-45 124 -102 270q-12 -28 -56 -136q-31 -77 -69 -168q-42 -101 -82 -197q27 6 79 10.5t111 4.5
q77 0 117.5 2t75.5 6zM613 2026q0 -16 60 -88q19 -27 93 -108q70 -62 129 -62q54 0 96 27q50 32 50 83q0 83 -100 172.5t-186 89.5q-55 0 -98.5 -30.5t-43.5 -83.5z" />
    <glyph glyph-name="Aacute" unicode="&#xc1;" horiz-adv-x="1694" 
d="M1645 88q0 -56 -44 -90q-39 -30 -98 -30q-93 0 -223 188q-80 116 -154 271q-55 -7 -119.5 -9.5t-176.5 -2.5q-74 0 -148 -0.5t-148 -0.5q-53 -224 -71 -266q-66 -172 -166 -172q-66 0 -126.5 40t-73.5 105l-1 12q0 24 13.5 69t39.5 109l77 187q165 392 272 631
q121 270 192 396q77 137 112 137q138 0 205 -145q39 -86 132 -300q127 -294 165 -380q103 -235 198 -438q12 -22 21 -39q22 -40 65 -115q57 -102 57 -157zM1006 688l-74 208q-45 124 -102 270q-12 -28 -56 -136q-31 -77 -69 -168q-42 -101 -82 -197q27 6 79 10.5t111 4.5
q77 0 117.5 2t75.5 6zM1048 1989q0 -16 -60 -88q-19 -27 -93 -108q-70 -62 -129 -62q-54 0 -96 27q-50 32 -50 83q0 83 100 172.5t186 89.5q55 0 98.5 -30.5t43.5 -83.5z" />
    <glyph glyph-name="Acircumflex" unicode="&#xc2;" horiz-adv-x="1688" 
d="M1645 88q0 -56 -44 -90q-39 -30 -98 -30q-93 0 -223 188q-80 116 -154 271q-55 -7 -119.5 -9.5t-176.5 -2.5q-74 0 -148 -0.5t-148 -0.5q-53 -224 -71 -266q-66 -172 -166 -172q-66 0 -126.5 40t-73.5 105l-1 12q0 24 13.5 69t39.5 109l77 187q165 392 272 631
q121 270 192 396q77 137 112 137q138 0 205 -145q39 -86 132 -300q127 -294 165 -380q103 -235 198 -438q12 -22 21 -39q22 -40 65 -115q57 -102 57 -157zM1006 688l-74 208q-45 124 -102 270q-12 -28 -56 -136q-31 -77 -69 -168q-42 -101 -82 -197q27 6 79 10.5t111 4.5
q77 0 117.5 2t75.5 6zM1229 1802q0 -50 -48 -85q-43 -29 -97 -29q-55 0 -141 96l-122 139l-102 -150q-69 -104 -130 -104q-52 0 -96 30q-47 33 -47 84q0 44 115 193q102 132 154 178q44 39 101 39q84 0 248.5 -154t164.5 -237z" />
    <glyph glyph-name="Atilde" unicode="&#xc3;" horiz-adv-x="1681" 
d="M1645 88q0 -56 -44 -90q-39 -30 -98 -30q-93 0 -223 188q-80 116 -154 271q-55 -7 -119.5 -9.5t-176.5 -2.5q-74 0 -148 -0.5t-148 -0.5q-53 -224 -71 -266q-66 -172 -166 -172q-66 0 -126.5 40t-73.5 105l-1 12q0 24 13.5 69t39.5 109l77 187q165 392 272 631
q121 270 192 396q77 137 112 137q138 0 205 -145q39 -86 132 -300q127 -294 165 -380q103 -235 198 -438q12 -22 21 -39q22 -40 65 -115q57 -102 57 -157zM1006 688l-74 208q-45 124 -102 270q-12 -28 -56 -136q-31 -77 -69 -168q-42 -101 -82 -197q27 6 79 10.5t111 4.5
q77 0 117.5 2t75.5 6zM1342 2004q0 -107 -92 -188.5t-200 -81.5q-139 0 -232 47q-50 24 -114 88q-49 47 -79 47t-78.5 -72.5t-94.5 -72.5q-47 0 -84 23q-45 26 -45 69q0 106 100 178q91 64 202 64q115 0 190 -47q21 -12 100 -88q50 -47 101 -47q54 0 74 45l27 85
q26 45 98 45q49 0 84 -23q43 -26 43 -71z" />
    <glyph glyph-name="Adieresis" unicode="&#xc4;" horiz-adv-x="1694" 
d="M1645 88q0 -56 -44 -90q-39 -30 -98 -30q-93 0 -223 188q-80 116 -154 271q-55 -7 -119.5 -9.5t-176.5 -2.5q-74 0 -148 -0.5t-148 -0.5q-53 -224 -71 -266q-66 -172 -166 -172q-66 0 -126.5 40t-73.5 105l-1 12q0 24 13.5 69t39.5 109l77 187q165 392 272 631
q121 270 192 396q77 137 112 137q138 0 205 -145q39 -86 132 -300q127 -294 165 -380q103 -235 198 -438q12 -22 21 -39q22 -40 65 -115q57 -102 57 -157zM1006 688l-74 208q-45 124 -102 270q-12 -28 -56 -136q-31 -77 -69 -168q-42 -101 -82 -197q27 6 79 10.5t111 4.5
q77 0 117.5 2t75.5 6zM1289 1852q0 -67 -53 -108q-49 -38 -116 -38q-69 0 -117 38q-53 42 -53 108q0 64 53 107q49 38 117 38q66 0 117.5 -40t51.5 -105zM750 1852q0 -67 -53 -108q-49 -38 -116 -38q-69 0 -117 38q-53 42 -53 108q0 64 53 107q49 38 117 38q66 0 117.5 -40
t51.5 -105z" />
    <glyph glyph-name="Aring" unicode="&#xc5;" horiz-adv-x="1700" 
d="M1645 88q0 -56 -44 -90q-39 -30 -98 -30q-93 0 -223 188q-80 116 -154 271q-55 -7 -119.5 -9.5t-176.5 -2.5q-74 0 -148 -0.5t-148 -0.5q-53 -224 -71 -266q-66 -172 -166 -172q-66 0 -126.5 40t-73.5 105l-1 12q0 24 13.5 69t39.5 109l77 187q165 392 272 631
q121 270 192 396q77 137 112 137q138 0 205 -145q39 -86 132 -300q127 -294 165 -380q103 -235 198 -438q12 -22 21 -39q22 -40 65 -115q57 -102 57 -157zM1006 688l-74 208q-45 124 -102 270q-12 -28 -56 -136q-31 -77 -69 -168q-42 -101 -82 -197q27 6 79 10.5t111 4.5
q77 0 117.5 2t75.5 6zM1127 1740q0 -140 -82 -215.5t-224 -75.5q-115 0 -195 71t-80 186q0 137 85.5 216.5t224.5 79.5q117 0 194 -72.5t77 -189.5zM928 1740q0 67 -94 67q-57 0 -78.5 -21.5t-21.5 -78.5q0 -29 31 -50q28 -17 59 -17q104 0 104 100z" />
    <glyph glyph-name="AE" unicode="&#xc6;" horiz-adv-x="2530" 
d="M1276 678q7 64 15 138t14 161t6 169l-428 -491q29 6 83 10.5t114 4.5q77 0 118.5 2t77.5 6zM2513 1470q0 -58 -45.5 -98.5t-104.5 -40.5q-25 0 -96 -2.5t-102 -2.5l-195 -4l-169 5q-46 0 -90.5 -0.5t-76.5 -4.5v-9l4 -370q20 3 29 4q28 4 49 4l91 -1l91 -3q8 0 38 2t52 2
q62 6 89 6q154 0 154 -133q0 -157 -178 -157l-78 3l-77 4q-179 0 -256 -12l5 -263l16 -154l1 -15l671 2q60 0 105.5 -39.5t45.5 -98.5q0 -147 -543 -147q-35 0 -58 1q-113 5 -140 5l-198 5h-22q-6 -3 -69 -3q-108 0 -136 82q-42 51 -42 136l4 95q0 24 1 65t1 57l-1 37
q-57 -7 -123.5 -9.5t-177.5 -2.5q-94 0 -168 -0.5t-129 -0.5q-150 -218 -190 -266q-145 -172 -243 -172q-69 0 -108 38q-32 30 -32 73q0 14 5 35t38.5 67.5t98.5 121.5l161 187q635 729 899 979q16 62 72 86q14 11 46 17q9 6 17 8t18 2l31 -6l51 7q4 1 8 1h6q14 0 24 -7
q27 0 87 2.5t82 2.5l214 4q543 0 543 -124z" />
    <glyph glyph-name="Ccedilla" unicode="&#xc7;" horiz-adv-x="1427" 
d="M1114 -227q0 -64 -21 -119t-63 -108q-87 -111 -222 -111q-50 0 -99.5 9t-101.5 29q-126 47 -126 126q0 82 119 82q32 0 97 -21q29 -10 55.5 -16t42.5 -6q24 0 44 45.5t20 69.5q0 54 -74 66l-140 15q-76 15 -82 75l-2 53l1 38q-174 48 -308 191q-193 205 -193 479
q0 290 203 575q222 314 513 314q168 0 357 -113q210 -125 210 -267q0 -29 -44 -50q-19 -8 -34.5 -12t-35.5 -4q-30 0 -77 16.5t-121 54.5q-139 71 -206 71q-165 0 -317 -240q-135 -216 -135 -391q0 -143 83 -248q93 -117 245 -117q106 0 208 54q36 18 153 102q79 55 120 55
q71 0 127 -47t56 -118q0 -123 -246 -234q-89 -40 -170 -64q49 -18 65 -27q52 -32 75.5 -83t23.5 -124z" />
    <glyph glyph-name="Egrave" unicode="&#xc8;" horiz-adv-x="1307" 
d="M1316 1419q0 -58 -45 -98.5t-104 -40.5q-25 0 -96 -2.5t-102 -2.5l-196 -4l-168 5q-46 0 -90.5 -0.5t-76.5 -4.5q0 -59 -5 -141.5t-5 -129.5q30 5 49 7.5t42 2.5l91 -1l92 -3l89 4l90 6q154 0 154 -133q0 -157 -178 -157l-78 3l-77 4q-210 0 -278 -16v-538l714 2
q59 0 105 -39t46 -99q0 -147 -542 -147q-35 0 -58 1q-113 5 -140 5l-198 5h-22q-8 -3 -70 -3q-108 0 -136 82q-42 51 -42 136q0 20 11 221q6 110 6 185q0 95 5.5 194.5t12.5 211.5v244l-3 91l-3 91q0 119 79 152q28 20 96 20h34q6 0 10.5 0.5t7.5 1.5h9l213 4l214 5
q543 0 543 -124zM457 2008q0 -16 60 -88q19 -27 93 -108q70 -62 129 -62q54 0 96 27q50 32 50 83q0 83 -100 172.5t-186 89.5q-55 0 -98.5 -30.5t-43.5 -83.5z" />
    <glyph glyph-name="Eacute" unicode="&#xc9;" horiz-adv-x="1307" 
d="M1316 1419q0 -58 -45 -98.5t-104 -40.5q-25 0 -96 -2.5t-102 -2.5l-196 -4l-168 5q-46 0 -90.5 -0.5t-76.5 -4.5q0 -59 -5 -141.5t-5 -129.5q30 5 49 7.5t42 2.5l91 -1l92 -3l89 4l90 6q154 0 154 -133q0 -157 -178 -157l-78 3l-77 4q-210 0 -278 -16v-538l714 2
q59 0 105 -39t46 -99q0 -147 -542 -147q-35 0 -58 1q-113 5 -140 5l-198 5h-22q-8 -3 -70 -3q-108 0 -136 82q-42 51 -42 136q0 20 11 221q6 110 6 185q0 95 5.5 194.5t12.5 211.5v244l-3 91l-3 91q0 119 79 152q28 20 96 20h34q6 0 10.5 0.5t7.5 1.5h9l213 4l214 5
q543 0 543 -124zM897 2125q0 -16 -60 -88q-19 -27 -93 -108q-70 -62 -129 -62q-54 0 -96 27q-50 32 -50 83q0 83 100 172.5t186 89.5q55 0 98.5 -30.5t43.5 -83.5z" />
    <glyph glyph-name="Ecircumflex" unicode="&#xca;" horiz-adv-x="1307" 
d="M1316 1419q0 -58 -45 -98.5t-104 -40.5q-25 0 -96 -2.5t-102 -2.5l-196 -4l-168 5q-46 0 -90.5 -0.5t-76.5 -4.5q0 -59 -5 -141.5t-5 -129.5q30 5 49 7.5t42 2.5l91 -1l92 -3l89 4l90 6q154 0 154 -133q0 -157 -178 -157l-78 3l-77 4q-210 0 -278 -16v-538l714 2
q59 0 105 -39t46 -99q0 -147 -542 -147q-35 0 -58 1q-113 5 -140 5l-198 5h-22q-8 -3 -70 -3q-108 0 -136 82q-42 51 -42 136q0 20 11 221q6 110 6 185q0 95 5.5 194.5t12.5 211.5v244l-3 91l-3 91q0 119 79 152q28 20 96 20h34q6 0 10.5 0.5t7.5 1.5h9l213 4l214 5
q543 0 543 -124zM975 1822q0 -50 -48 -85q-43 -29 -97 -29q-55 0 -141 96l-122 139l-102 -150q-69 -104 -130 -104q-52 0 -96 30q-47 33 -47 84q0 44 115 193q102 132 154 178q44 39 101 39q84 0 248.5 -154t164.5 -237z" />
    <glyph glyph-name="Edieresis" unicode="&#xcb;" horiz-adv-x="1307" 
d="M1316 1419q0 -58 -45 -98.5t-104 -40.5q-25 0 -96 -2.5t-102 -2.5l-196 -4l-168 5q-46 0 -90.5 -0.5t-76.5 -4.5q0 -59 -5 -141.5t-5 -129.5q30 5 49 7.5t42 2.5l91 -1l92 -3l89 4l90 6q154 0 154 -133q0 -157 -178 -157l-78 3l-77 4q-210 0 -278 -16v-538l714 2
q59 0 105 -39t46 -99q0 -147 -542 -147q-35 0 -58 1q-113 5 -140 5l-198 5h-22q-8 -3 -70 -3q-108 0 -136 82q-42 51 -42 136q0 20 11 221q6 110 6 185q0 95 5.5 194.5t12.5 211.5v244l-3 91l-3 91q0 119 79 152q28 20 96 20h34q6 0 10.5 0.5t7.5 1.5h9l213 4l214 5
q543 0 543 -124zM1068 1940q0 -67 -53 -108q-49 -38 -116 -38q-69 0 -117 38q-53 42 -53 108q0 64 53 107q49 38 117 38q66 0 117.5 -40t51.5 -105zM529 1940q0 -67 -53 -108q-49 -38 -116 -38q-69 0 -117 38q-53 42 -53 108q0 64 53 107q49 38 117 38q66 0 117.5 -40
t51.5 -105z" />
    <glyph glyph-name="Igrave" unicode="&#xcc;" horiz-adv-x="623" 
d="M675 1384q0 -80 -23 -106q-5 -7 -56 -23.5t-73 -44.5q0 -57 -12 -285q-6 -114 -6 -184l1 -469q100 -12 120 -28q34 -28 34 -125q0 -156 -331 -156h-58l-32 1h-20q-60 0 -105 36q-48 39 -48 99q0 107 10 121q15 21 120 30l-2 504q0 222 22 467q-14 0 -17 -3l3 -2l-17 -1
q-56 0 -99.5 39t-43.5 97q0 80 36 113t118 33l53 -2l54 -1q30 0 81 10q23 4 46.5 7t36.5 3q208 0 208 -130zM147 1987q0 -16 60 -88q19 -27 93 -108q70 -62 129 -62q54 0 96 27q50 32 50 83q0 83 -100 172.5t-186 89.5q-55 0 -98.5 -30.5t-43.5 -83.5z" />
    <glyph glyph-name="Iacute" unicode="&#xcd;" horiz-adv-x="623" 
d="M675 1384q0 -80 -23 -106q-5 -7 -56 -23.5t-73 -44.5q0 -57 -12 -285q-6 -114 -6 -184l1 -469q100 -12 120 -28q34 -28 34 -125q0 -156 -331 -156h-58l-32 1h-20q-60 0 -105 36q-48 39 -48 99q0 107 10 121q15 21 120 30l-2 504q0 222 22 467q-14 0 -17 -3l3 -2l-17 -1
q-56 0 -99.5 39t-43.5 97q0 80 36 113t118 33l53 -2l54 -1q30 0 81 10q23 4 46.5 7t36.5 3q208 0 208 -130zM645 1989q0 -16 -60 -88q-19 -27 -93 -108q-70 -62 -129 -62q-54 0 -96 27q-50 32 -50 83q0 83 100 172.5t186 89.5q55 0 98.5 -30.5t43.5 -83.5z" />
    <glyph glyph-name="Icircumflex" unicode="&#xce;" horiz-adv-x="756" 
d="M683 1384q0 -80 -23 -106q-5 -7 -56 -23.5t-73 -44.5q0 -57 -12 -285q-6 -114 -6 -184l1 -469q100 -12 120 -28q34 -28 34 -125q0 -156 -331 -156h-58l-32 1h-20q-60 0 -105 36q-48 39 -48 99q0 107 10 121q15 21 120 30l-2 504q0 222 22 467q-14 0 -17 -3l3 -2l-17 -1
q-56 0 -99.5 39t-43.5 97q0 80 36 113t118 33l53 -2l54 -1q30 0 81 10q23 4 46.5 7t36.5 3q208 0 208 -130zM814 1742q0 -50 -48 -85q-43 -29 -97 -29q-55 0 -141 96l-122 139l-102 -150q-69 -104 -130 -104q-52 0 -96 30q-47 33 -47 84q0 44 115 193q102 132 154 178
q44 39 101 39q84 0 248.5 -154t164.5 -237z" />
    <glyph glyph-name="Idieresis" unicode="&#xcf;" horiz-adv-x="981" 
d="M760 1384q0 -80 -23 -106q-5 -7 -56 -23.5t-73 -44.5q0 -57 -12 -285q-6 -114 -6 -184l1 -469q100 -12 120 -28q34 -28 34 -125q0 -156 -331 -156h-58l-32 1h-20q-60 0 -105 36q-48 39 -48 99q0 107 10 121q15 21 120 30l-2 504q0 222 22 467q-14 0 -17 -3l3 -2l-17 -1
q-56 0 -99.5 39t-43.5 97q0 80 36 113t118 33l53 -2l54 -1q30 0 81 10q23 4 46.5 7t36.5 3q208 0 208 -130zM974 1842q0 -67 -53 -108q-49 -38 -116 -38q-69 0 -117 38q-53 42 -53 108q0 64 53 107q49 38 117 38q66 0 117.5 -40t51.5 -105zM435 1842q0 -67 -53 -108
q-49 -38 -116 -38q-69 0 -117 38q-53 42 -53 108q0 64 53 107q49 38 117 38q66 0 117.5 -40t51.5 -105z" />
    <glyph glyph-name="Eth" unicode="&#xd0;" horiz-adv-x="1622" 
d="M1560 723q0 -374 -136 -550q-156 -203 -531 -203q-24 0 -40 -1q-79 -5 -100 -5l-139 -7q-132 0 -191 33q-62 0 -107.5 37.5t-45.5 98.5l5 525h-33q-67 0 -118 26q-63 33 -63 94q0 59 63 94q51 27 118 27h35l4 500q0 66 58 115t125 49q12 0 35 1t56 4l91 3q155 0 290 -22
q117 -19 221 -55q272 -93 352 -315q51 -144 51 -449zM1251 636l-1 83q0 146 -21.5 248t-62.5 165q-111 171 -426 171q-56 0 -79.5 -1.5t-71.5 -6.5l-2 -396l176 2q70 0 120 -25q66 -33 66 -95q0 -56 -42 -88t-125 -32l-196 -7l-2 -434q35 -21 115 -21q16 0 39 1t53 4l92 6
q109 0 187 37.5t123 110.5q58 98 58 278z" />
    <glyph glyph-name="Ntilde" unicode="&#xd1;" horiz-adv-x="1399" 
d="M1418 551q0 -284 -35 -459q-26 -129 -161 -129q-250 0 -621 683l-195 365l1 -775q0 -295 -158 -295q-67 0 -118 36q-54 39 -54 106l1 576q0 68 -1 111q-5 213 -5 258l-5 369q0 66 61 112q56 42 125 42q132 0 463 -523q40 -64 88 -144q61 -103 130 -222q32 -56 172 -302
l1 152q0 8 -3.5 177.5t-3.5 274.5q0 118 -2.5 223.5t-5.5 227.5q0 138 161 138q158 0 158 -420v-60v-9l-1 -19v-15l4 -240zM1309 1922q0 -107 -92 -188.5t-200 -81.5q-139 0 -232 47q-50 24 -114 88q-49 47 -79 47t-78.5 -72.5t-94.5 -72.5q-47 0 -84 23q-45 26 -45 69
q0 106 100 178q91 64 202 64q115 0 190 -47q21 -12 100 -88q50 -47 101 -47q54 0 74 45l27 85q26 45 98 45q49 0 84 -23q43 -26 43 -71z" />
    <glyph glyph-name="Ograve" unicode="&#xd2;" horiz-adv-x="1731" 
d="M1731 721q0 -244 -127 -453q-98 -161 -247 -244.5t-348 -83.5q-166 0 -310.5 39.5t-272.5 122.5q-272 176 -323 467q-13 85 -13 154q0 250 144 469q106 161 258.5 243t352.5 82q385 0 601.5 -155t270.5 -475q14 -90 14 -166zM1416 754q0 68 -11 129q-36 215 -171 298
q-55 34 -139 49.5t-206 15.5t-218 -56t-166 -166q-99 -155 -99 -335q0 -56 10 -115q29 -180 202 -279q74 -43 159 -63.5t187 -20.5q238 0 367 221q85 147 85 322zM686 2046q0 -16 60 -88q19 -27 93 -108q70 -62 129 -62q54 0 96 27q50 32 50 83q0 83 -100 172.5t-186 89.5
q-55 0 -98.5 -30.5t-43.5 -83.5z" />
    <glyph glyph-name="Oacute" unicode="&#xd3;" horiz-adv-x="1731" 
d="M1731 721q0 -244 -127 -453q-98 -161 -247 -244.5t-348 -83.5q-166 0 -310.5 39.5t-272.5 122.5q-272 176 -323 467q-13 85 -13 154q0 250 144 469q106 161 258.5 243t352.5 82q385 0 601.5 -155t270.5 -475q14 -90 14 -166zM1416 754q0 68 -11 129q-36 215 -171 298
q-55 34 -139 49.5t-206 15.5t-218 -56t-166 -166q-99 -155 -99 -335q0 -56 10 -115q29 -180 202 -279q74 -43 159 -63.5t187 -20.5q238 0 367 221q85 147 85 322zM1226 1996q0 -16 -60 -88q-19 -27 -93 -108q-70 -62 -129 -62q-54 0 -96 27q-50 32 -50 83q0 83 100 172.5
t186 89.5q55 0 98.5 -30.5t43.5 -83.5z" />
    <glyph glyph-name="Ocircumflex" unicode="&#xd4;" horiz-adv-x="1731" 
d="M1731 721q0 -244 -127 -453q-98 -161 -247 -244.5t-348 -83.5q-166 0 -310.5 39.5t-272.5 122.5q-272 176 -323 467q-13 85 -13 154q0 250 144 469q106 161 258.5 243t352.5 82q385 0 601.5 -155t270.5 -475q14 -90 14 -166zM1416 754q0 68 -11 129q-36 215 -171 298
q-55 34 -139 49.5t-206 15.5t-218 -56t-166 -166q-99 -155 -99 -335q0 -56 10 -115q29 -180 202 -279q74 -43 159 -63.5t187 -20.5q238 0 367 221q85 147 85 322zM1301 1697q0 -50 -48 -85q-43 -29 -97 -29q-55 0 -141 96l-122 139l-102 -150q-69 -104 -130 -104
q-52 0 -96 30q-47 33 -47 84q0 44 115 193q102 132 154 178q44 39 101 39q84 0 248.5 -154t164.5 -237z" />
    <glyph glyph-name="Otilde" unicode="&#xd5;" horiz-adv-x="1731" 
d="M1731 721q0 -244 -127 -453q-98 -161 -247 -244.5t-348 -83.5q-166 0 -310.5 39.5t-272.5 122.5q-272 176 -323 467q-13 85 -13 154q0 250 144 469q106 161 258.5 243t352.5 82q385 0 601.5 -155t270.5 -475q14 -90 14 -166zM1416 754q0 68 -11 129q-36 215 -171 298
q-55 34 -139 49.5t-206 15.5t-218 -56t-166 -166q-99 -155 -99 -335q0 -56 10 -115q29 -180 202 -279q74 -43 159 -63.5t187 -20.5q238 0 367 221q85 147 85 322zM1502 1906q0 -107 -92 -188.5t-200 -81.5q-139 0 -232 47q-50 24 -114 88q-49 47 -79 47t-78.5 -72.5
t-94.5 -72.5q-47 0 -84 23q-45 26 -45 69q0 106 100 178q91 64 202 64q115 0 190 -47q21 -12 100 -88q50 -47 101 -47q54 0 74 45l27 85q26 45 98 45q49 0 84 -23q43 -26 43 -71z" />
    <glyph glyph-name="Odieresis" unicode="&#xd6;" horiz-adv-x="1731" 
d="M1731 721q0 -244 -127 -453q-98 -161 -247 -244.5t-348 -83.5q-166 0 -310.5 39.5t-272.5 122.5q-272 176 -323 467q-13 85 -13 154q0 250 144 469q106 161 258.5 243t352.5 82q385 0 601.5 -155t270.5 -475q14 -90 14 -166zM1416 754q0 68 -11 129q-36 215 -171 298
q-55 34 -139 49.5t-206 15.5t-218 -56t-166 -166q-99 -155 -99 -335q0 -56 10 -115q29 -180 202 -279q74 -43 159 -63.5t187 -20.5q238 0 367 221q85 147 85 322zM1353 1848q0 -67 -53 -108q-49 -38 -116 -38q-69 0 -117 38q-53 42 -53 108q0 64 53 107q49 38 117 38
q66 0 117.5 -40t51.5 -105zM814 1848q0 -67 -53 -108q-49 -38 -116 -38q-69 0 -117 38q-53 42 -53 108q0 64 53 107q49 38 117 38q66 0 117.5 -40t51.5 -105z" />
    <glyph glyph-name="multiply" unicode="&#xd7;" horiz-adv-x="1020" 
d="M916 1003q43 -40 43 -78q0 -42 -109 -142l-154 -142l103 -94l70 -60q77 -69 77 -131q0 -45 -44 -86q-35 -32 -81 -32q-96 0 -231 126l-93 89q-18 -18 -86 -81q-38 -36 -76 -71q-89 -81 -172 -81q-39 0 -70.5 25t-31.5 65q0 81 148 216l59 53l45 40l-148 132
q-94 83 -94 152q0 48 45 88t96 40q53 0 104 -48l62 -59l133 -120q11 8 33 28.5t59 55.5l60 56q97 91 175 91q43 0 78 -32z" />
    <glyph glyph-name="Oslash" unicode="&#xd8;" horiz-adv-x="1763" 
d="M514 348q72 128 177 300q234 381 324 591q-69 7 -155 7q-122 0 -218 -56t-166 -166q-99 -155 -99 -335q0 -56 10 -115q21 -135 127 -226zM1270 1131q-108 -232 -199 -383l-240 -397l-66 -124q79 -16 170 -16q238 0 367 221q85 147 85 322q0 36 -2 63t-9 66
q-27 161 -106 248zM1421 1484q0 -37 -11 -58l-21 -42q242 -155 299 -497q14 -90 14 -166q0 -244 -127 -453q-98 -161 -247 -244.5t-348 -83.5q-100 0 -179.5 10.5t-159.5 36.5l-9 -18q-40 -79 -129 -79q-57 0 -99 32q-47 35 -47 89q0 29 32 96q-267 177 -315 462
q-13 85 -13 154q0 250 144 469q106 161 258.5 243t352.5 82q97 0 173 -6.5t145 -22.5q74 118 142 118q52 0 98.5 -34t46.5 -88z" />
    <glyph glyph-name="Ugrave" unicode="&#xd9;" horiz-adv-x="1442" 
d="M1447 1012q0 -525 -155 -793t-465 -268q-199 0 -337 55t-225 175q-72 100 -112 236q-44 150 -44 332l-19 364l-2 73q0 338 145 338q191 0 191 -470q0 -9 -2.5 -61.5t-2.5 -86.5v-148q0 -133 18 -235q15 -87 41 -139q39 -83 116.5 -122.5t195.5 -39.5q102 0 174 47.5
t114 139.5q61 136 61 406l-4 180l-4 180q0 350 153 350q62 0 102 -34q21 -18 33.5 -41.5t12.5 -52.5q0 -90 4.5 -183.5t10.5 -201.5zM545 1944q0 -16 60 -88q19 -27 93 -108q70 -62 129 -62q54 0 96 27q50 32 50 83q0 83 -100 172.5t-186 89.5q-55 0 -98.5 -30.5
t-43.5 -83.5z" />
    <glyph glyph-name="Uacute" unicode="&#xda;" horiz-adv-x="1442" 
d="M1447 1012q0 -525 -155 -793t-465 -268q-199 0 -337 55t-225 175q-72 100 -112 236q-44 150 -44 332l-19 364l-2 73q0 338 145 338q191 0 191 -470q0 -9 -2.5 -61.5t-2.5 -86.5v-148q0 -133 18 -235q15 -87 41 -139q39 -83 116.5 -122.5t195.5 -39.5q102 0 174 47.5
t114 139.5q61 136 61 406l-4 180l-4 180q0 350 153 350q62 0 102 -34q21 -18 33.5 -41.5t12.5 -52.5q0 -90 4.5 -183.5t10.5 -201.5zM991 2004q0 -16 -60 -88q-19 -27 -93 -108q-70 -62 -129 -62q-54 0 -96 27q-50 32 -50 83q0 83 100 172.5t186 89.5q55 0 98.5 -30.5
t43.5 -83.5z" />
    <glyph glyph-name="Ucircumflex" unicode="&#xdb;" horiz-adv-x="1442" 
d="M1447 1012q0 -525 -155 -793t-465 -268q-199 0 -337 55t-225 175q-72 100 -112 236q-44 150 -44 332l-19 364l-2 73q0 338 145 338q191 0 191 -470q0 -9 -2.5 -61.5t-2.5 -86.5v-148q0 -133 18 -235q15 -87 41 -139q39 -83 116.5 -122.5t195.5 -39.5q102 0 174 47.5
t114 139.5q61 136 61 406l-4 180l-4 180q0 350 153 350q62 0 102 -34q21 -18 33.5 -41.5t12.5 -52.5q0 -90 4.5 -183.5t10.5 -201.5zM1098 1712q0 -50 -48 -85q-43 -29 -97 -29q-55 0 -141 96l-122 139l-102 -150q-69 -104 -130 -104q-52 0 -96 30q-47 33 -47 84
q0 44 115 193q102 132 154 178q44 39 101 39q84 0 248.5 -154t164.5 -237z" />
    <glyph glyph-name="Udieresis" unicode="&#xdc;" horiz-adv-x="1442" 
d="M1447 1012q0 -525 -155 -793t-465 -268q-199 0 -337 55t-225 175q-72 100 -112 236q-44 150 -44 332l-19 364l-2 73q0 338 145 338q191 0 191 -470q0 -9 -2.5 -61.5t-2.5 -86.5v-148q0 -133 18 -235q15 -87 41 -139q39 -83 116.5 -122.5t195.5 -39.5q102 0 174 47.5
t114 139.5q61 136 61 406l-4 180l-4 180q0 350 153 350q62 0 102 -34q21 -18 33.5 -41.5t12.5 -52.5q0 -90 4.5 -183.5t10.5 -201.5zM1164 1826q0 -67 -53 -108q-49 -38 -116 -38q-69 0 -117 38q-53 42 -53 108q0 64 53 107q49 38 117 38q66 0 117.5 -40t51.5 -105z
M625 1826q0 -67 -53 -108q-49 -38 -116 -38q-69 0 -117 38q-53 42 -53 108q0 64 53 107q49 38 117 38q66 0 117.5 -40t51.5 -105z" />
    <glyph glyph-name="Yacute" unicode="&#xdd;" horiz-adv-x="1556" 
d="M1571 1384q0 -47 -41 -89q-75 -78 -131 -141q-52 -58 -93 -111q-26 -36 -319 -369l-8 -106q0 -53 -3.5 -107.5t-7.5 -115.5l5 -183l1 -35l2 -38q0 -60 -44.5 -96.5t-107.5 -36.5q-64 0 -105 34q-47 38 -47 99l-1 37l-2 36l-4 183q4 62 7.5 120.5t3.5 102.5l2 29
q-7 3 -8 10q0 8 10 21l3 47q-48 57 -79 93q-37 43 -93 106q-43 48 -108 121l-125 146l-123 114q-80 78 -80 128q0 59 49 101q46 37 107 37q60 0 157 -76q70 -56 116 -112q73 -92 138 -163l203 -221l276 332q201 240 292 240q62 0 110 -38t48 -99zM973 658l-10 -11z
M1064 2088q0 -16 -60 -88q-19 -27 -93 -108q-70 -62 -129 -62q-54 0 -96 27q-50 32 -50 83q0 83 100 172.5t186 89.5q55 0 98.5 -30.5t43.5 -83.5z" />
    <glyph glyph-name="Thorn" unicode="&#xde;" horiz-adv-x="1183" 
d="M1122 749q0 -311 -149 -400q-108 -64 -460 -64q-13 0 -26 -2t-39 -9q-18 -4 -35.5 -7.5t-29.5 -3.5q-22 0 -40 9q-3 -26 -5 -78.5t-2 -135.5q0 -108 -114 -108q-75 0 -121 64q-40 58 -40 135q0 4 2.5 80t2.5 110l3 190l-3 920q0 53 45 92q43 34 99 34q106 0 106 -229
l-3 -103l-4 -75l3 12q0 25 -57 48l-57 22q0 12 289 12q165 0 280.5 -22.5t186.5 -72.5q168 -117 168 -418zM833 749q0 178 -74 219q-22 12 -79 22q-74 13 -166 13l-84 4q-91 0 -91 -48l2 -29l2 -29v-335q66 -42 130 -42q31 0 97 9q26 4 54.5 7t43.5 3q165 0 165 206z" />
    <glyph glyph-name="germandbls" unicode="&#xdf;" horiz-adv-x="1317" 
d="M365 99q0 -190 -152 -190q-62 0 -107 36.5t-45 99.5v973q0 63 55 185q73 161 186 208q29 17 78 40q165 75 269 75q232 0 382 -84q185 -105 185 -322q0 -219 -187 -310q227 -114 227 -368q0 -222 -178 -361q-165 -127 -392 -127q-55 0 -108 48.5t-53 103.5q0 90 161 106
q95 0 172 49q90 57 90 146q0 249 -369 282q-161 14 -161 123q0 82 125 121l236 49q151 31 151 136q0 75 -62 112t-194 37q-73 0 -188 -59q-51 -25 -121 -185v-924z" />
    <glyph glyph-name="agrave" unicode="&#xe0;" 
d="M1232 100q0 -56 -43 -91t-101 -35q-38 0 -69 46q-15 23 -22.5 41.5t-7.5 39.5q-27 -56 -126 -100q-90 -39 -167 -39q-252 0 -426 150q-182 158 -182 408q0 247 159 403t408 156q135 0 299 -81q15 141 111 141q75 0 120 -64q41 -58 41 -135zM955 368v335
q-186 120 -300 120q-129 0 -206 -89q-73 -85 -73 -214q0 -136 93 -220q89 -81 227 -81q62 0 148 45q90 48 111 104zM439 1536q0 -16 60 -88q19 -27 93 -108q70 -62 129 -62q54 0 96 27q50 32 50 83q0 83 -100 172.5t-186 89.5q-55 0 -98.5 -30.5t-43.5 -83.5z" />
    <glyph glyph-name="aacute" unicode="&#xe1;" 
d="M1232 100q0 -56 -43 -91t-101 -35q-38 0 -69 46q-15 23 -22.5 41.5t-7.5 39.5q-27 -56 -126 -100q-90 -39 -167 -39q-252 0 -426 150q-182 158 -182 408q0 247 159 403t408 156q135 0 299 -81q15 141 111 141q75 0 120 -64q41 -58 41 -135zM955 368v335
q-186 120 -300 120q-129 0 -206 -89q-73 -85 -73 -214q0 -136 93 -220q89 -81 227 -81q62 0 148 45q90 48 111 104zM931 1547q0 -16 -60 -88q-19 -27 -93 -108q-70 -62 -129 -62q-54 0 -96 27q-50 32 -50 83q0 83 100 172.5t186 89.5q55 0 98.5 -30.5t43.5 -83.5z" />
    <glyph glyph-name="acircumflex" unicode="&#xe2;" 
d="M1234 100q0 -56 -43 -91t-101 -35q-38 0 -69 46q-15 23 -22.5 41.5t-7.5 39.5q-27 -56 -126 -100q-90 -39 -167 -39q-252 0 -426 150q-182 158 -182 408q0 247 159 403t408 156q135 0 299 -81q15 141 111 141q75 0 120 -64q41 -58 41 -135zM957 368v335
q-186 120 -300 120q-129 0 -206 -89q-73 -85 -73 -214q0 -136 93 -220q89 -81 227 -81q62 0 148 45q90 48 111 104zM1065 1312q0 -50 -48 -85q-43 -29 -97 -29q-55 0 -141 96l-122 139l-102 -150q-69 -104 -130 -104q-52 0 -96 30q-47 33 -47 84q0 44 115 193
q102 132 154 178q44 39 101 39q84 0 248.5 -154t164.5 -237z" />
    <glyph glyph-name="atilde" unicode="&#xe3;" 
d="M1232 100q0 -56 -43 -91t-101 -35q-38 0 -69 46q-15 23 -22.5 41.5t-7.5 39.5q-27 -56 -126 -100q-90 -39 -167 -39q-252 0 -426 150q-182 158 -182 408q0 247 159 403t408 156q135 0 299 -81q15 141 111 141q75 0 120 -64q41 -58 41 -135zM955 368v335
q-186 120 -300 120q-129 0 -206 -89q-73 -85 -73 -214q0 -136 93 -220q89 -81 227 -81q62 0 148 45q90 48 111 104zM1199 1484q0 -107 -92 -188.5t-200 -81.5q-139 0 -232 47q-50 24 -114 88q-49 47 -79 47t-78.5 -72.5t-94.5 -72.5q-47 0 -84 23q-45 26 -45 69
q0 106 100 178q91 64 202 64q115 0 190 -47q21 -12 100 -88q50 -47 101 -47q54 0 74 45l27 85q26 45 98 45q49 0 84 -23q43 -26 43 -71z" />
    <glyph glyph-name="adieresis" unicode="&#xe4;" 
d="M1232 100q0 -56 -43 -91t-101 -35q-38 0 -69 46q-15 23 -22.5 41.5t-7.5 39.5q-27 -56 -126 -100q-90 -39 -167 -39q-252 0 -426 150q-182 158 -182 408q0 247 159 403t408 156q135 0 299 -81q15 141 111 141q75 0 120 -64q41 -58 41 -135zM955 368v335
q-186 120 -300 120q-129 0 -206 -89q-73 -85 -73 -214q0 -136 93 -220q89 -81 227 -81q62 0 148 45q90 48 111 104zM1121 1373q0 -67 -53 -108q-49 -38 -116 -38q-69 0 -117 38q-53 42 -53 108q0 64 53 107q49 38 117 38q66 0 117.5 -40t51.5 -105zM582 1373q0 -67 -53 -108
q-49 -38 -116 -38q-69 0 -117 38q-53 42 -53 108q0 64 53 107q49 38 117 38q66 0 117.5 -40t51.5 -105z" />
    <glyph glyph-name="aring" unicode="&#xe5;" 
d="M1232 100q0 -56 -43 -91t-101 -35q-38 0 -69 46q-15 23 -22.5 41.5t-7.5 39.5q-27 -56 -126 -100q-90 -39 -167 -39q-252 0 -426 150q-182 158 -182 408q0 247 159 403t408 156q135 0 299 -81q15 141 111 141q75 0 120 -64q41 -58 41 -135zM955 368v335
q-186 120 -300 120q-129 0 -206 -89q-73 -85 -73 -214q0 -136 93 -220q89 -81 227 -81q62 0 148 45q90 48 111 104zM945 1486q0 -140 -82 -215.5t-224 -75.5q-115 0 -195 71t-80 186q0 137 85.5 216.5t224.5 79.5q117 0 194 -72.5t77 -189.5zM746 1486q0 67 -94 67
q-57 0 -78.5 -21.5t-21.5 -78.5q0 -29 31 -50q28 -17 59 -17q104 0 104 100z" />
    <glyph glyph-name="ae" unicode="&#xe6;" horiz-adv-x="2131" 
d="M928 368v335q-186 120 -300 120q-129 0 -206 -89q-73 -85 -73 -214q0 -136 93 -220q89 -81 227 -81q62 0 148 45q90 48 111 104zM2070 235q0 -122 -197 -192q-152 -54 -314 -54q-211 0 -360 72q-9 -28 -36 -51q-42 -36 -102 -36q-38 0 -69 46q-15 23 -22.5 41.5
t-7.5 39.5q-27 -56 -126 -100q-90 -39 -167 -39q-252 0 -426 150q-182 158 -182 408q0 247 159 403t408 156q135 0 299 -81q15 141 111 141q76 0 122 -67q26 -39 35 -89q139 97 335 97q159 0 315 -90q174 -101 174 -240q0 -10 -1 -22t-4 -24q-33 -146 -122 -204
q-42 -27 -104 -42.5t-146 -15.5l-410 -16q0 -46 28.5 -82t90.5 -65q49 -23 101.5 -35t106.5 -12q72 0 212.5 52t183.5 52q115 0 115 -101zM1745 674q0 48 -11 79.5t-33 52t-64 31.5t-107 11q-109 0 -181.5 -51t-110.5 -157q44 0 136 -9q34 0 79 -4t57 -4q148 0 235 51z" />
    <glyph glyph-name="ccedilla" unicode="&#xe7;" horiz-adv-x="1162" 
d="M992 -227q0 -64 -21 -119t-63 -108q-87 -111 -222 -111q-101 0 -202 38q-125 47 -125 126q0 82 119 82q32 0 97 -21q29 -10 55.5 -16t42.5 -6q24 0 45 47q18 42 18 68q0 54 -73 66l-140 15q-75 15 -83 75l-2 53q-112 30 -201 100q-85 66 -130 153t-45 195
q0 330 136.5 491.5t427.5 161.5q119 0 272 -57q182 -68 182 -158q0 -54 -43 -91t-97 -37q-8 0 -128.5 46.5t-185.5 46.5q-285 0 -285 -310q0 -47 7 -93q30 -222 293 -222q53 0 173 51t142 51q58 0 101 -36.5t43 -91.5q0 -79 -187 -157l-40 -16l20 -9q52 -31 75.5 -82
t23.5 -125z" />
    <glyph glyph-name="egrave" unicode="&#xe8;" horiz-adv-x="1212" 
d="M1213 200q0 -122 -196 -192q-152 -54 -314 -54q-252 0 -419 105q-98 62 -147 152t-49 212q0 257 149 431q162 191 436 191q160 0 316 -90q174 -101 174 -240q0 -20 -6 -46q-33 -146 -122 -204q-42 -27 -103.5 -42.5t-145.5 -15.5l-411 -16q0 -90 120 -147
q49 -23 101.5 -35t106.5 -12q72 0 212.5 52t183.5 52q114 0 114 -101zM907 645q0 42 -21 77q-13 23 -40 48q-23 21 -65 32t-108 11q-217 0 -291 -208q45 0 135 -9q34 0 66.5 -2.5t70.5 -5.5q76 0 141.5 15t111.5 42zM345 1567q0 -16 60 -88q19 -27 93 -108q70 -62 129 -62
q54 0 96 27q50 32 50 83q0 83 -100 172.5t-186 89.5q-55 0 -98.5 -30.5t-43.5 -83.5z" />
    <glyph glyph-name="eacute" unicode="&#xe9;" horiz-adv-x="1212" 
d="M1213 200q0 -122 -196 -192q-152 -54 -314 -54q-252 0 -419 105q-98 62 -147 152t-49 212q0 257 149 431q162 191 436 191q160 0 316 -90q174 -101 174 -240q0 -20 -6 -46q-33 -146 -122 -204q-42 -27 -103.5 -42.5t-145.5 -15.5l-411 -16q0 -90 120 -147
q49 -23 101.5 -35t106.5 -12q72 0 212.5 52t183.5 52q114 0 114 -101zM907 645q0 42 -21 77q-13 23 -40 48q-23 21 -65 32t-108 11q-217 0 -291 -208q45 0 135 -9q34 0 66.5 -2.5t70.5 -5.5q76 0 141.5 15t111.5 42zM888 1547q0 -16 -60 -88q-19 -27 -93 -108
q-70 -62 -129 -62q-54 0 -96 27q-50 32 -50 83q0 83 100 172.5t186 89.5q55 0 98.5 -30.5t43.5 -83.5z" />
    <glyph glyph-name="ecircumflex" unicode="&#xea;" horiz-adv-x="1212" 
d="M1217 200q0 -122 -196 -192q-152 -54 -314 -54q-252 0 -419 105q-98 62 -147 152t-49 212q0 257 149 431q162 191 436 191q160 0 316 -90q174 -101 174 -240q0 -20 -6 -46q-33 -146 -122 -204q-42 -27 -103.5 -42.5t-145.5 -15.5l-411 -16q0 -90 120 -147
q49 -23 101.5 -35t106.5 -12q72 0 212.5 52t183.5 52q114 0 114 -101zM911 645q0 42 -21 77q-13 23 -40 48q-23 21 -65 32t-108 11q-217 0 -291 -208q45 0 135 -9q34 0 66.5 -2.5t70.5 -5.5q76 0 141.5 15t111.5 42zM1051 1304q0 -50 -48 -85q-43 -29 -97 -29q-55 0 -141 96
l-122 139l-102 -150q-69 -104 -130 -104q-52 0 -96 30q-47 33 -47 84q0 44 115 193q102 132 154 178q44 39 101 39q84 0 248.5 -154t164.5 -237z" />
    <glyph glyph-name="edieresis" unicode="&#xeb;" horiz-adv-x="1212" 
d="M1213 200q0 -122 -196 -192q-152 -54 -314 -54q-252 0 -419 105q-98 62 -147 152t-49 212q0 257 149 431q162 191 436 191q160 0 316 -90q174 -101 174 -240q0 -20 -6 -46q-33 -146 -122 -204q-42 -27 -103.5 -42.5t-145.5 -15.5l-411 -16q0 -90 120 -147
q49 -23 101.5 -35t106.5 -12q72 0 212.5 52t183.5 52q114 0 114 -101zM907 645q0 42 -21 77q-13 23 -40 48q-23 21 -65 32t-108 11q-217 0 -291 -208q45 0 135 -9q34 0 66.5 -2.5t70.5 -5.5q76 0 141.5 15t111.5 42zM1017 1469q0 -67 -53 -108q-49 -38 -116 -38
q-69 0 -117 38q-53 42 -53 108q0 64 53 107q49 38 117 38q66 0 117.5 -40t51.5 -105zM478 1469q0 -67 -53 -108q-49 -38 -116 -38q-69 0 -117 38q-53 42 -53 108q0 64 53 107q49 38 117 38q66 0 117.5 -40t51.5 -105z" />
    <glyph glyph-name="igrave" unicode="&#xec;" horiz-adv-x="469" 
d="M416 915v-446l-1 -183l-3 -182q0 -64 -43.5 -99t-107.5 -35q-159 0 -159 276q0 8 2.5 51.5t2.5 60.5l5 111l-1 286q0 218 45 255.5t108 37.5q64 0 105 -34q47 -38 47 -99zM34 1553q0 -16 60 -88q19 -27 93 -108q70 -62 129 -62q54 0 96 27q50 32 50 83q0 83 -100 172.5
t-186 89.5q-55 0 -98.5 -30.5t-43.5 -83.5z" />
    <glyph glyph-name="iacute" unicode="&#xed;" horiz-adv-x="461" 
d="M398 915v-446l-1 -183l-3 -182q0 -64 -43.5 -99t-107.5 -35q-159 0 -159 276q0 8 2.5 51.5t2.5 60.5l5 111l-1 286q0 218 45 255.5t108 37.5q64 0 105 -34q47 -38 47 -99zM484 1547q0 -16 -60 -88q-19 -27 -93 -108q-70 -62 -129 -62q-54 0 -96 27q-50 32 -50 83
q0 83 100 172.5t186 89.5q55 0 98.5 -30.5t43.5 -83.5z" />
    <glyph glyph-name="icircumflex" unicode="&#xee;" horiz-adv-x="621" 
d="M500 915v-446l-1 -183l-3 -182q0 -64 -43.5 -99t-107.5 -35q-159 0 -159 276q0 8 2.5 51.5t2.5 60.5l5 111l-1 286q0 218 45 255.5t108 37.5q64 0 105 -34q47 -38 47 -99zM749 1306q0 -50 -48 -85q-43 -29 -97 -29q-55 0 -141 96l-122 139l-102 -150q-69 -104 -130 -104
q-52 0 -96 30q-47 33 -47 84q0 44 115 193q102 132 154 178q44 39 101 39q84 0 248.5 -154t164.5 -237z" />
    <glyph glyph-name="idieresis" unicode="&#xef;" horiz-adv-x="981" 
d="M742 915v-446l-1 -183l-3 -182q0 -64 -43.5 -99t-107.5 -35q-159 0 -159 276q0 8 2.5 51.5t2.5 60.5l5 111l-1 286q0 218 45 255.5t108 37.5q64 0 105 -34q47 -38 47 -99zM974 1373q0 -67 -53 -108q-49 -38 -116 -38q-69 0 -117 38q-53 42 -53 108q0 64 53 107
q49 38 117 38q66 0 117.5 -40t51.5 -105zM435 1373q0 -67 -53 -108q-49 -38 -116 -38q-69 0 -117 38q-53 42 -53 108q0 64 53 107q49 38 117 38q66 0 117.5 -40t51.5 -105z" />
    <glyph glyph-name="eth" unicode="&#xf0;" horiz-adv-x="1329" 
d="M957 445l-54 245q-107 62 -189 93.5t-138 31.5q-132 0 -188 -91q-33 -54 -33 -126q0 -20 2 -37.5t8 -44.5q30 -134 138 -220q55 -43 116 -64.5t132 -21.5q65 0 141 46q34 21 49 93zM1265 1265l3 -26q0 -91 -144 -91h-23.5t-27.5 -2l97 -429q22 -100 34 -187t12 -155
q0 -159 -54 -240q-38 -58 -80 -58q-8 0 -11 5q-15 -58 -107 -100q-79 -35 -155 -35q-128 0 -242 39.5t-221 120.5q-213 160 -268 407q-17 76 -17 136q0 148 82 255q61 81 155 120.5t223 39.5q135 0 318 -87l-36 165l-217 3q-71 0 -126 29q-66 33 -81 93l-3 22q0 50 57 77
q41 20 100 20h216l-7 20q-16 53 -16 79q0 73 95 73q75 0 137 -69q20 -24 33.5 -47.5t25.5 -54.5h35q72 0 129 -28q69 -33 84 -95z" />
    <glyph glyph-name="ntilde" unicode="&#xf1;" horiz-adv-x="1100" 
d="M1118 89q0 -60 -45.5 -95t-107.5 -35q-173 0 -173 379q0 15 5 79t5 114q0 42 3 87q7 105 7 106q0 83 -47 83q-318 0 -351 -196q-4 -27 -7 -72t-3 -97q0 -28 2 -104.5t2 -96.5l4 -159q0 -30 -11 -54t-36 -44q-21 -16 -48 -25t-58 -9q-112 0 -147 108q-18 54 -18 193
q0 13 7 193q4 103 4 163q0 187 78 292q73 98 224 138q129 34 358 34q242 0 309 -217q30 -96 30 -394q2 -51 4.5 -96t2.5 -90zM1088 1502q0 -107 -92 -188.5t-200 -81.5q-139 0 -232 47q-50 24 -114 88q-49 47 -79 47t-78.5 -72.5t-94.5 -72.5q-47 0 -84 23q-45 26 -45 69
q0 106 100 178q91 64 202 64q115 0 190 -47q21 -12 100 -88q50 -47 101 -47q54 0 74 45l27 85q26 45 98 45q49 0 84 -23q43 -26 43 -71z" />
    <glyph glyph-name="ograve" unicode="&#xf2;" horiz-adv-x="1139" 
d="M1147 470q0 -190 -103 -333q-70 -97 -168 -148t-226 -51q-102 0 -192.5 28t-168.5 86q-173 131 -203 365q-3 24 -4 37t-1 42q0 176 101 320q76 107 187.5 164t259.5 57q113 0 203.5 -35t161.5 -111q129 -138 150 -353zM856 457q0 157 -57 236.5t-160 79.5
q-132 0 -203 -120q-48 -83 -48 -183v-20t2 -22q9 -99 71 -164q32 -32 73 -47.5t92 -15.5q52 0 95 19.5t74.5 55.5t46 81t14.5 100zM391 1463q0 -16 60 -88q19 -27 93 -108q70 -62 129 -62q54 0 96 27q50 32 50 83q0 83 -100 172.5t-186 89.5q-55 0 -98.5 -30.5t-43.5 -83.5z
" />
    <glyph glyph-name="oacute" unicode="&#xf3;" horiz-adv-x="1139" 
d="M1147 470q0 -190 -103 -333q-70 -97 -168 -148t-226 -51q-102 0 -192.5 28t-168.5 86q-173 131 -203 365q-3 24 -4 37t-1 42q0 176 101 320q76 107 187.5 164t259.5 57q113 0 203.5 -35t161.5 -111q129 -138 150 -353zM856 457q0 157 -57 236.5t-160 79.5
q-132 0 -203 -120q-48 -83 -48 -183v-20t2 -22q9 -99 71 -164q32 -32 73 -47.5t92 -15.5q52 0 95 19.5t74.5 55.5t46 81t14.5 100zM833 1547q0 -16 -60 -88q-19 -27 -93 -108q-70 -62 -129 -62q-54 0 -96 27q-50 32 -50 83q0 83 100 172.5t186 89.5q55 0 98.5 -30.5
t43.5 -83.5z" />
    <glyph glyph-name="ocircumflex" unicode="&#xf4;" horiz-adv-x="1139" 
d="M1162 470q0 -190 -103 -333q-70 -97 -168 -148t-226 -51q-102 0 -192.5 28t-168.5 86q-173 131 -203 365q-3 24 -4 37t-1 42q0 176 101 320q76 107 187.5 164t259.5 57q113 0 203.5 -35t161.5 -111q129 -138 150 -353zM871 457q0 157 -57 236.5t-160 79.5
q-132 0 -203 -120q-48 -83 -48 -183v-20t2 -22q9 -99 71 -164q32 -32 73 -47.5t92 -15.5q52 0 95 19.5t74.5 55.5t46 81t14.5 100zM1047 1304q0 -50 -48 -85q-43 -29 -97 -29q-55 0 -141 96l-122 139l-102 -150q-69 -104 -130 -104q-52 0 -96 30q-47 33 -47 84q0 44 115 193
q102 132 154 178q44 39 101 39q84 0 248.5 -154t164.5 -237z" />
    <glyph glyph-name="otilde" unicode="&#xf5;" horiz-adv-x="1139" 
d="M1152 470q0 -190 -103 -333q-70 -97 -168 -148t-226 -51q-102 0 -192.5 28t-168.5 86q-173 131 -203 365q-3 24 -4 37t-1 42q0 176 101 320q76 107 187.5 164t259.5 57q113 0 203.5 -35t161.5 -111q129 -138 150 -353zM861 457q0 157 -57 236.5t-160 79.5
q-132 0 -203 -120q-48 -83 -48 -183v-20t2 -22q9 -99 71 -164q32 -32 73 -47.5t92 -15.5q52 0 95 19.5t74.5 55.5t46 81t14.5 100zM1094 1494q0 -107 -92 -188.5t-200 -81.5q-139 0 -232 47q-50 24 -114 88q-49 47 -79 47t-78.5 -72.5t-94.5 -72.5q-47 0 -84 23
q-45 26 -45 69q0 106 100 178q91 64 202 64q115 0 190 -47q21 -12 100 -88q50 -47 101 -47q54 0 74 45l27 85q26 45 98 45q49 0 84 -23q43 -26 43 -71z" />
    <glyph glyph-name="odieresis" unicode="&#xf6;" horiz-adv-x="1149" 
d="M1154 470q0 -190 -103 -333q-70 -97 -168 -148t-226 -51q-102 0 -192.5 28t-168.5 86q-173 131 -203 365q-3 24 -4 37t-1 42q0 176 101 320q76 107 187.5 164t259.5 57q113 0 203.5 -35t161.5 -111q129 -138 150 -353zM863 457q0 157 -57 236.5t-160 79.5
q-132 0 -203 -120q-48 -83 -48 -183v-20t2 -22q9 -99 71 -164q32 -32 73 -47.5t92 -15.5q52 0 95 19.5t74.5 55.5t46 81t14.5 100zM984 1373q0 -67 -53 -108q-49 -38 -116 -38q-69 0 -117 38q-53 42 -53 108q0 64 53 107q49 38 117 38q66 0 117.5 -40t51.5 -105zM445 1373
q0 -67 -53 -108q-49 -38 -116 -38q-69 0 -117 38q-53 42 -53 108q0 64 53 107q49 38 117 38q66 0 117.5 -40t51.5 -105z" />
    <glyph glyph-name="divide" unicode="&#xf7;" horiz-adv-x="1098" 
d="M1037 571q0 -56 -42 -88t-125 -32q-57 0 -185.5 -3t-229.5 -5t-213 -2q-67 0 -118 26q-63 33 -63 94q0 59 63 94q51 27 118 27l304 4l305 5q70 0 120 -25q66 -33 66 -95zM735 943q0 -66 -50.5 -106t-118.5 -40q-69 0 -117 38q-52 43 -52 108q0 64 53 107q49 38 116 38
q66 0 117.5 -40t51.5 -105zM735 216q0 -66 -50.5 -106t-118.5 -40q-69 0 -117 38q-52 43 -52 108q0 64 53 107q49 38 116 38q66 0 117.5 -40t51.5 -105z" />
    <glyph glyph-name="oslash" unicode="&#xf8;" horiz-adv-x="1188" 
d="M379 376l108 178l135 219q-135 0 -204 -118q-50 -85 -50 -186q0 -59 11 -93zM821 579l-194 -322l-31 -56h10q105 0 171 76q30 35 44.5 80t14.5 100q0 38 -6 76q-1 5 -9 46zM1062 1076q0 -36 -11 -58l-71 -133q123 -138 144 -347l3 -68q0 -190 -103 -333
q-70 -97 -168 -148t-226 -51q-50 0 -87.5 3.5t-74.5 13.5l-41 -80q-40 -79 -128 -79q-58 0 -99 32q-48 35 -48 89q0 23 11 48.5t26 57.5q12 27 34 69q-132 126 -157 325q-3 24 -4 37t-1 42q0 176 101 320q76 107 187.5 164t259.5 57h51q42 -2 83 -11q104 172 174 172
q52 0 98.5 -34t46.5 -88z" />
    <glyph glyph-name="ugrave" unicode="&#xf9;" horiz-adv-x="1118" 
d="M1125 942q0 -39 -2 -74t-9 -108q0 -44 -5 -105t-5 -77q0 -67 -10 -138.5t-36 -136.5q-57 -144 -159 -230q-125 -105 -304 -105q-166 0 -282 48q-132 55 -176 165q-51 128 -51 475q0 176 20 253q39 157 162 157q61 0 107.5 -34t46.5 -95q0 -49 -16 -144.5t-16 -136.5
q0 -281 42 -421q61 -23 103 -23q87 0 134 17q72 25 134 105l-3 253l-2 72l-1 72q0 329 174 329q55 0 102 -30q26 -17 39 -38t13 -50zM390 1471q0 -16 60 -88q19 -27 93 -108q70 -62 129 -62q54 0 96 27q50 32 50 83q0 83 -100 172.5t-186 89.5q-55 0 -98.5 -30.5
t-43.5 -83.5z" />
    <glyph glyph-name="uacute" unicode="&#xfa;" horiz-adv-x="1118" 
d="M1125 942q0 -39 -2 -74t-9 -108q0 -44 -5 -105t-5 -77q0 -67 -10 -138.5t-36 -136.5q-57 -144 -159 -230q-125 -105 -304 -105q-166 0 -282 48q-132 55 -176 165q-51 128 -51 475q0 176 20 253q39 157 162 157q61 0 107.5 -34t46.5 -95q0 -49 -16 -144.5t-16 -136.5
q0 -281 42 -421q61 -23 103 -23q87 0 134 17q72 25 134 105l-3 253l-2 72l-1 72q0 329 174 329q55 0 102 -30q26 -17 39 -38t13 -50zM782 1547q0 -16 -60 -88q-19 -27 -93 -108q-70 -62 -129 -62q-54 0 -96 27q-50 32 -50 83q0 83 100 172.5t186 89.5q55 0 98.5 -30.5
t43.5 -83.5z" />
    <glyph glyph-name="ucircumflex" unicode="&#xfb;" horiz-adv-x="1118" 
d="M1135 942q0 -39 -2 -74t-9 -108q0 -44 -5 -105t-5 -77q0 -67 -10 -138.5t-36 -136.5q-57 -144 -159 -230q-125 -105 -304 -105q-166 0 -282 48q-132 55 -176 165q-51 128 -51 475q0 176 20 253q39 157 162 157q61 0 107.5 -34t46.5 -95q0 -49 -16 -144.5t-16 -136.5
q0 -281 42 -421q61 -23 103 -23q87 0 134 17q72 25 134 105l-3 253l-2 72l-1 72q0 329 174 329q55 0 102 -30q26 -17 39 -38t13 -50zM858 1304q0 -50 -48 -85q-43 -29 -97 -29q-55 0 -141 96l-122 139l-102 -150q-69 -104 -130 -104q-52 0 -96 30q-47 33 -47 84
q0 44 115 193q102 132 154 178q44 39 101 39q84 0 248.5 -154t164.5 -237z" />
    <glyph glyph-name="udieresis" unicode="&#xfc;" horiz-adv-x="1143" 
d="M1137 942q0 -39 -2 -74t-9 -108q0 -44 -5 -105t-5 -77q0 -67 -10 -138.5t-36 -136.5q-57 -144 -159 -230q-125 -105 -304 -105q-166 0 -282 48q-132 55 -176 165q-51 128 -51 475q0 176 20 253q39 157 162 157q61 0 107.5 -34t46.5 -95q0 -49 -16 -144.5t-16 -136.5
q0 -281 42 -421q61 -23 103 -23q87 0 134 17q72 25 134 105l-3 253l-2 72l-1 72q0 329 174 329q55 0 102 -30q26 -17 39 -38t13 -50zM974 1373q0 -67 -53 -108q-49 -38 -116 -38q-69 0 -117 38q-53 42 -53 108q0 64 53 107q49 38 117 38q66 0 117.5 -40t51.5 -105zM435 1373
q0 -67 -53 -108q-49 -38 -116 -38q-69 0 -117 38q-53 42 -53 108q0 64 53 107q49 38 117 38q66 0 117.5 -40t51.5 -105z" />
    <glyph glyph-name="yacute" unicode="&#xfd;" horiz-adv-x="1128" 
d="M1136 921l-31 -588l1 -159l4 -63l4 -62q0 -44 -30 -79q0 -34 -6 -83q-8 -48 -11 -75q-17 -146 -131 -269q-65 -70 -136.5 -105.5t-155.5 -35.5q-89 0 -161.5 11.5t-141.5 38.5q-176 69 -236 221q-10 28 -10 50q1 8 1 12q6 60 58 98t115 38q69 0 116 -66q8 -25 22.5 -53.5
t42.5 -74.5q34 -37 89 -37q25 0 69 16q8 3 31 9.5t37 6.5q58 0 88 142l13 166q-59 -16 -117.5 -24t-124.5 -8q-153 0 -256 56q-126 68 -148.5 198.5t-33.5 242t-11 211.5q0 127 33 297q21 113 149 113q60 0 105 -33q49 -37 49 -96q0 -49 -16 -144.5t-16 -136.5
q0 -281 42 -421q27 -11 53.5 -17t49.5 -6q57 0 120.5 7t132.5 22l12 346q0 46 14 214q7 84 7 140q0 59 39 89t111 30q118 0 149 -91q16 -22 16 -48zM649 1547q0 -16 -60 -88q-19 -27 -93 -108q-70 -62 -129 -62q-54 0 -96 27q-50 32 -50 83q0 83 100 172.5t186 89.5
q55 0 98.5 -30.5t43.5 -83.5z" />
    <glyph glyph-name="thorn" unicode="&#xfe;" horiz-adv-x="1266" 
d="M1205 490q0 -246 -159.5 -402.5t-406.5 -156.5q-138 0 -301 82v-383l2 -45l3 -46q0 -108 -115 -108q-74 0 -121 63q-39 56 -39 136l-1 101l-1 165l-5 1494q0 58 43 92t101 34q91 0 101 -109l-2 -498q26 57 126 101q88 38 167 38q253 0 427 -150q181 -158 181 -408z
M917 490q0 136 -91 218.5t-229 82.5q-67 0 -151 -45.5t-108 -103.5v-335q186 -120 301 -120q128 0 205 89q73 85 73 214z" />
    <glyph glyph-name="ydieresis" unicode="&#xff;" horiz-adv-x="1165" 
d="M1160 921l-31 -588l1 -159l4 -63l4 -62q0 -44 -30 -79q0 -34 -6 -83q-8 -48 -11 -75q-17 -146 -131 -269q-65 -70 -136.5 -105.5t-155.5 -35.5q-89 0 -161.5 11.5t-141.5 38.5q-176 69 -236 221q-10 28 -10 50q1 8 1 12q6 60 58 98t115 38q69 0 116 -66q8 -25 22.5 -53.5
t42.5 -74.5q34 -37 89 -37q25 0 69 16q8 3 31 9.5t37 6.5q58 0 88 142l13 166q-59 -16 -117.5 -24t-124.5 -8q-153 0 -256 56q-126 68 -148.5 198.5t-33.5 242t-11 211.5q0 127 33 297q21 113 149 113q60 0 105 -33q49 -37 49 -96q0 -49 -16 -144.5t-16 -136.5
q0 -281 42 -421q27 -11 53.5 -17t49.5 -6q57 0 120.5 7t132.5 22l12 346q0 46 14 214q7 84 7 140q0 59 39 89t111 30q118 0 149 -91q16 -22 16 -48zM974 1373q0 -67 -53 -108q-49 -38 -116 -38q-69 0 -117 38q-53 42 -53 108q0 64 53 107q49 38 117 38q66 0 117.5 -40
t51.5 -105zM435 1373q0 -67 -53 -108q-49 -38 -116 -38q-69 0 -117 38q-53 42 -53 108q0 64 53 107q49 38 117 38q66 0 117.5 -40t51.5 -105z" />
    <glyph glyph-name="breve" unicode="&#x2d8;" horiz-adv-x="1037" 
d="M976 1718q0 -237 -121 -346q-116 -105 -356 -105q-177 0 -305 110q-133 115 -133 291q0 48 46 81q42 28 93 28q109 0 164 -116q0 -154 149 -154q82 0 123 68q33 57 33 143q24 97 136 97q48 0 104 -24q67 -30 67 -73z" />
    <glyph glyph-name="dotlessi" unicode="&#x131;" horiz-adv-x="436" 
d="M375 915v-446l-1 -183l-3 -182q0 -64 -43.5 -99t-107.5 -35q-159 0 -159 276q0 8 2.5 51.5t2.5 60.5l5 111l-1 286q0 218 45 255.5t108 37.5q64 0 105 -34q47 -38 47 -99z" />
    <glyph glyph-name="ring" unicode="&#x2da;" horiz-adv-x="703" 
d="M642 1486q0 -140 -82 -215.5t-224 -75.5q-115 0 -195 71t-80 186q0 137 85.5 216.5t224.5 79.5q117 0 194 -72.5t77 -189.5zM443 1486q0 67 -94 67q-57 0 -78.5 -21.5t-21.5 -78.5q0 -29 31 -50q28 -17 59 -17q104 0 104 100z" />
    <glyph glyph-name="caron" unicode="&#x2c7;" horiz-adv-x="905" 
d="M844 1513q0 50 -48 85q-43 29 -97 29q-55 0 -141 -96l-122 -139l-102 150q-69 104 -130 104q-55 0 -96 -29q-47 -33 -47 -85q0 -44 115 -193q102 -132 154 -178q44 -39 101 -39q84 0 248.5 154.5t164.5 236.5z" />
    <glyph glyph-name="fi" unicode="&#xf001;" horiz-adv-x="1351" 
d="M1290 1343q0 -67 -54 -109q-48 -39 -119 -39q-68 0 -119 39q-55 43 -55 109t55 109q50 39 119 39q68 0 120.5 -40t52.5 -108zM1277 908v-446l-1 -183l-3 -182q0 -63 -43 -98.5t-108 -35.5q-159 0 -159 276q0 9 2.5 51.5t2.5 59.5l5 112v323q-169 0 -292.5 -2t-188.5 -4
t-118 -3q0 -64 -1.5 -165.5t-1.5 -104.5l5 -269l4 -74l3 -73q0 -160 -145 -160q-57 0 -105 35t-48 92l-2 102l-2 102q0 21 -5 108t-5 154q0 57 -3 118q-7 142 -7 144q0 364 101 556q137 258 467 258q201 0 201 -131q0 -105 -102 -119q-176 -21 -202 -35q-113 -60 -140 -287
q167 5 333 8.5t307 3.5l56 -3q20 4 29 4.5t14 0.5q64 0 105 -34q47 -38 47 -99z" />
    <glyph glyph-name="fl" unicode="&#xf002;" horiz-adv-x="1332" 
d="M1271 136q0 -190 -152 -190q-63 0 -107 36.5t-44 99.5v703h-33q-147 0 -258.5 -2t-206 -4.5t-96.5 -2.5q0 -64 -1.5 -165.5t-1.5 -104.5l5 -269l4 -74l3 -73q0 -160 -145 -160q-57 0 -105 35t-48 92l-2 102l-2 102q0 21 -5 108t-5 154q0 57 -3 118q-7 142 -7 144
q0 364 101 556q137 258 467 258q201 0 201 -131q0 -105 -102 -119q-176 -21 -202 -35q-113 -60 -140 -287q158 5 308 8.5t274 3.5v426q0 59 48 97q43 32 107 32q63 0 105.5 -33.5t42.5 -95.5v-1329z" />
    <glyph glyph-name="Abreve" unicode="&#x102;" horiz-adv-x="1671" 
d="M1610 88q0 -56 -44 -90q-39 -30 -98 -30q-93 0 -223 188q-80 116 -154 271q-55 -7 -119.5 -9.5t-176.5 -2.5q-74 0 -148 -0.5t-148 -0.5q-53 -224 -71 -266q-66 -172 -166 -172q-66 0 -126.5 40t-73.5 105l-1 12q0 24 13.5 69t39.5 109l77 187q468 1114 576 1114
q138 0 205 -145l495 -1068q12 -22 21 -39q22 -40 65 -115q57 -102 57 -157zM971 678q-34 95 -46 128q-37 100 -58 156l-72 184l-207 -491q27 6 79 10.5t111 4.5q77 0 117.5 2t75.5 6zM1239 2100q0 -366 -477 -366q-167 0 -296 84q-142 94 -142 241q0 42 50 68q41 21 89 21
q109 0 163 -94q0 -125 150 -125q75 0 117 49q39 45 39 122q24 79 136 79q25 0 46.5 -4t53.5 -15q71 -23 71 -60z" />
    <glyph glyph-name="Tbar" unicode="&#x166;" horiz-adv-x="1527" 
d="M1245 651q0 -56 -42 -88t-125 -32l-125 -5l1 -322q0 -79 -37 -140q-45 -72 -127 -72q-81 0 -114.5 33.5t-33.5 115.5v35l1 35q0 61 3 164t3 146h-112q-34 0 -62.5 6t-54.5 20q-63 33 -63 94q0 59 63 94q51 27 117 27l109 1q0 15 -10 241q-6 136 -6 212h-21h-24l-11 -1
h-71q-442 0 -442 164q0 57 44 96.5t102 39.5q1 0 208 -8q104 -4 175 -4q95 0 186.5 -4t197.5 -8q22 0 37 1q73 5 92 5l130 7q233 0 233 -129q0 -58 -46 -97t-106 -39q-65 0 -181 -10q-48 0 -90 -3t-92 -6h-10q0 -55 3 -146q7 -213 7 -304l108 1q70 0 120 -25q66 -33 66 -95z
" />
    <glyph glyph-name="c276" unicode="&#x394;" horiz-adv-x="1509" 
d="M267 -62q30 -6 64 -6l448 -4l448 -5l34 1l30 -4q61 0 109 38t48 98q0 25 -59 128l-79 139l-230 576q-139 353 -271 557q-50 78 -137 78q-111 0 -160 -98q-62 -126 -254 -688q-197 -580 -197 -682q0 -60 49 -99q44 -35 107 -35q26 0 50 6zM1048 169l-634 4q42 129 109 360
q97 342 156 501l171 -438q95 -241 198 -427z" />
    <glyph glyph-name="c277" unicode="&#x3bc;" horiz-adv-x="1235" 
d="M1174 -184q0 -78 -125 -126q-102 -38 -201 -38q-127 0 -215 101q-74 87 -89 212q-26 8 -65 24q-99 44 -120 96q-5 -9 -7 -59t-2 -136v-53q0 -122 1 -179.5t2 -102.5q-7 -64 -59 -110q-40 -35 -68 -35q-61 0 -105 34q-49 37 -49 95q0 231 1 316t3 266t2 192l4 265
q0 39 -2 74t-9 108q0 44 -5 105t-5 77q0 54 52 88q45 30 102 30q174 0 174 -329l-1 -79l-2 -65l-4 -253q60 -78 135 -105q49 -17 134 -17l17 1q35 16 89 33q39 138 39 410q0 48 -16 143.5t-16 137.5q0 60 46 94.5t108 34.5q123 0 162 -157q20 -82 20 -253q0 -346 -51 -475
q-67 -170 -252 -217q3 -31 19 -64q20 -45 45 -45q34 0 97 21.5t98 21.5q118 0 118 -82z" />
    <glyph glyph-name="afii10038" unicode="&#x424;" horiz-adv-x="1908" 
d="M786 226q0 16 2.5 62t2.5 67l5 113v308q-99 37 -170 37q-285 0 -285 -310q0 -47 7 -93q30 -222 293 -222q50 0 145 38zM1081 -23q-39 -83 -137 -83q-78 0 -117 78q-110 -35 -186 -35q-237 0 -395 116q-89 65 -136.5 154.5t-47.5 202.5q0 330 136.5 491.5t427.5 161.5
q85 0 190 -30q9 42 24 57q45 43 108 43q107 0 143 -96q104 30 191 30q291 0 429 -163q135 -159 135 -490q0 -113 -46.5 -202t-136.5 -155q-158 -116 -395 -116q-77 0 -187 36zM1099 775v-307l-1 -211l-1 -16q116 -49 171 -49q262 0 292 222q3 25 5 47.5t2 45.5
q0 310 -285 310q-78 0 -183 -42z" />
    <glyph glyph-name="c279" unicode="&#x2010;" horiz-adv-x="1010" 
d="M949 571q0 -56 -42 -88t-125 -32q-56 0 -176 -3.5t-197 -5t-167 -1.5q-67 0 -118 26q-63 33 -63 94q0 59 63 94q51 27 118 27l260 4l261 5q70 0 120 -25q66 -33 66 -95z" />
    <glyph glyph-name="c280" unicode="&#x20ac;" horiz-adv-x="1666" 
d="M1157 590q0 -54 -45 -87q-40 -29 -97 -29l-375 -1q21 -50 57 -97q93 -117 244 -117q104 0 208 54q36 18 153 102q79 55 120 55q70 0 126 -47t56 -118q0 -123 -245 -234q-213 -96 -368 -96q-295 0 -499 216q-119 126 -165 281h-121q-58 0 -99 28q-46 32 -46 88
q0 125 240 125q0 27 4 56t10 61h-69q-55 0 -96 30q-45 33 -45 87q0 121 234 121h58q42 89 105 177q224 314 514 314q166 0 356 -113q210 -125 210 -267q0 -29 -43 -50q-19 -8 -34.5 -12t-35.5 -4q-30 0 -77 16.5t-121 54.5q-140 71 -207 71q-147 0 -281 -188l303 -1
q58 0 98 -28q44 -32 44 -88q0 -55 -44 -87q-40 -29 -98 -29l-162 -1l-270 -1q-22 -60 -34 -121l156 1q176 0 229 -6q152 -21 152 -116z" />
    <glyph glyph-name="Delta" unicode="&#x2206;" horiz-adv-x="1509" 
d="M267 -62q30 -6 64 -6l448 -4l448 -5l34 1l30 -4q61 0 109 38t48 98q0 25 -59 128l-79 139l-230 576q-139 353 -271 557q-50 78 -137 78q-111 0 -160 -98q-62 -126 -254 -688q-197 -580 -197 -682q0 -60 49 -99q44 -35 107 -35q26 0 50 6zM1048 169l-634 4q42 129 109 360
q97 342 156 501l171 -438q95 -241 198 -427z" />
    <glyph glyph-name="c282" unicode="&#x2212;" horiz-adv-x="1010" 
d="M949 571q0 -56 -42 -88t-125 -32q-56 0 -176 -3.5t-197 -5t-167 -1.5q-67 0 -118 26q-63 33 -63 94q0 59 63 94q51 27 118 27l260 4l261 5q70 0 120 -25q66 -33 66 -95z" />
    <glyph glyph-name="revlogicalnot" unicode="&#x2310;" horiz-adv-x="1265" 
d="M64 577l-1 3l-2 -67q0 -125 155 -125q149 0 149 83l-3 25l-3 25l315 -1l316 4q80 0 136 23q78 30 78 90q0 135 -194 169q-63 10 -293 10q-37 0 -133.5 -2t-117.5 -2l-177 -5q-52 0 -94.5 -17.5t-73.5 -51.5q-57 -63 -57 -161z" />
    <glyph glyph-name="smileface" unicode="&#x263a;" horiz-adv-x="2730" 
d="M1566 2178q-412 0 -753 -142q-283 -118 -489 -319q-171 -168 -234 -331q-19 -48 -29.5 -113.5t-10.5 -146.5q0 -244 93 -457q117 -267 357 -419q292 -184 742 -184q532 0 861 113q303 104 443 305q125 180 125 446q0 76 -13 174q-36 269 -226 520q-157 207 -383 364
q-196 136 -327 160q-86 16 -153 26q-8 1 -16 3q12 0 13 1zM1440 2016q-115 0 -386 -98q-326 -118 -536 -278q-272 -207 -272 -434q0 -272 88 -457q100 -211 320 -321q244 -122 636 -122q548 0 852.5 166.5t304.5 454.5q0 62 -17 135q-79 334 -211 534q-125 190 -305 270
q-93 42 -185 84q-84 37 -139 50q-66 16 -150 16zM2046 904q-47 -40 -94 -67q-53 -31 -160 -65q-161 -63 -210 -80q-74 -26 -232 -26q-88 0 -138.5 -2t-117.5 -4q-44 0 -83 6.5t-93 23.5q-28 9 -101 36q-40 15 -59 15q-29 0 -62 -39q-18 -21 -27.5 -41t-9.5 -41
q0 -30 19.5 -58t67 -59t130.5 -49q69 -15 146 -18.5t172 -3.5q116 0 173 2t128.5 13t144.5 37l210 66q52 19 105 54.5t117.5 69t99.5 76.5q47 56 56 69q29 41 29 72q0 34 -33 59q-17 13 -36 13q-24 0 -75.5 -26t-66.5 -33zM981 1716q-10 1 -14 1q-58 0 -91 -72
q-25 -55 -33.5 -146.5t-8.5 -190.5q0 -31 -0.5 -61.5t-0.5 -60.5q0 -100 10.5 -157t44.5 -69q5 -2 14 -2q46 0 85 95.5t39 212.5q0 86 1.5 144t4.5 136q0 40 -4 52q-1 25 -2 45q-4 73 -45 73zM1781 1716q-10 1 -14 1q-58 0 -91 -72q-25 -55 -33.5 -146.5t-8.5 -190.5
q0 -31 -0.5 -61.5t-0.5 -60.5q0 -100 10.5 -157t44.5 -69q5 -2 14 -2q46 0 85 95.5t39 212.5q0 86 1.5 144t4.5 136q0 40 -4 52q-1 25 -2 45q-4 73 -45 73z" />
    <glyph glyph-name="invsmileface" unicode="&#x263b;" horiz-adv-x="1312" 
d="M1251 723q0 -176 -93 -331q-72 -117 -178.5 -176.5t-250.5 -59.5q-117 0 -221 27t-196 84q-203 127 -241 345q-10 65 -10 112q0 182 106 342q76 116 186 175.5t254 59.5q279 0 437 -113t196 -343q11 -69 11 -122zM986 861q0 41 -33.5 70.5t-76.5 29.5t-76 -29
q-33 -27 -33 -71q0 -41 33 -71q34 -28 76 -28q43 0 76.5 27.5t33.5 71.5zM537 867q0 44 -32.5 72t-75.5 28q-46 0 -78 -27.5t-32 -72.5q0 -41 33 -71q34 -28 77 -28t75.5 27.5t32.5 71.5zM975 485q17 42 17 79q0 49 -27.5 81.5t-75.5 32.5q-88 0 -114 -108l-52 -1
q-25 0 -54 5t-67 17q-140 43 -154 43q-43 0 -74 -29.5t-31 -73.5q0 -62 83 -96q232 -64 297 -64q103 0 150 16q72 24 102 98z" />
    <glyph glyph-name="female" unicode="&#x2640;" horiz-adv-x="1338" 
d="M871 1054q0 157 -57 236.5t-160 79.5q-133 0 -202 -120q-49 -84 -49 -183v-20t2 -22q9 -98 71.5 -162.5t164.5 -64.5q53 0 96 19.5t74 55.5t45.5 81t14.5 100zM1277 279q0 -84 -74 -105q-30 -8 -144 -8l-264 -3v-133l1 -43l1 -44q0 -175 -145 -175q-146 0 -146 267l1 62
l1 61l-232 -4q-81 0 -138 25q-77 33 -77 95q0 121 300 121l83 -1l64 -1l-2 158q-109 27 -202 98q-173 131 -203 365q-3 24 -4 37t-1 42q0 174 102 320q76 108 184 163q113 58 262 58q113 0 203.5 -35t161.5 -111q129 -138 150 -353l3 -68q0 -183 -96 -324
q-101 -146 -276 -191l2 -155h130l130 3q225 0 225 -121z" />
    <glyph glyph-name="glyph114" unicode="&#x120;" horiz-adv-x="952" 
d="M788 826l-108 1l3 -85l2 -110q0 -90 -102 -90q-103 0 -103 89l-4 198l-96 2q-126 0 -194.5 5t-84.5 13q-40 18 -40 55q0 47 51 115q38 50 67 92q33 47 53 81l109 181l53 95q37 61 94 61q36 0 69 -24q34 -28 34 -62q0 -13 -7 -26q-35 -54 -226 -407h127l2 92
q0 107 104 107q103 0 103 -90q0 -44 -6 -113q63 0 105 -5q98 0 98 -88q0 -38 -33 -64q-29 -23 -70 -23z" />
    <glyph glyph-name="glyph573" unicode="&#x121;" horiz-adv-x="1312" 
d="M1158 392q-72 -117 -178.5 -176.5t-250.5 -59.5q-117 0 -221 27t-196 84q-203 127 -241 345q-10 65 -10 112q0 182 106 342q76 116 186 175.5t254 59.5q279 0 437 -113t196 -343q11 -69 11 -122q0 -176 -93 -331zM1047 847q-27 171 -134 236q-43 26 -112.5 39t-160.5 13
q-193 0 -306 -175q-77 -121 -77 -261q0 -33 1.5 -47.5t6.5 -41.5q24 -145 158 -222q114 -66 273 -66q191 0 294 175q66 114 66 251q0 45 -9 99zM380 850q0 42 32 70.5t77 28.5q44 0 76.5 -27.5t32.5 -71.5q0 -41 -33 -71q-33 -28 -76 -28t-76 28t-33 71zM686 856q0 44 34 72
q30 27 76 27q44 0 76.5 -27.5t32.5 -71.5q0 -41 -33 -71q-33 -28 -76 -28q-44 0 -77 27.5t-33 71.5zM480 676q40 -14 82 -21t94 -7l97 3l97 3q109 0 109 -99q0 -46 -32 -72.5t-77 -26.5l-97 -3l-97 -3q-146 0 -257 41q-69 24 -69 89q0 42 30 73t75 31q18 0 25 -1.5t20 -6.5z
" />
    <glyph glyph-name="glyph567" unicode="&#x122;" horiz-adv-x="1312" 
d="M1251 723q0 -176 -93 -331q-72 -117 -178.5 -176.5t-250.5 -59.5q-117 0 -221 27t-196 84q-203 127 -241 345q-10 65 -10 112q0 182 106 342q76 116 186 175.5t254 59.5q279 0 437 -113t196 -343q11 -69 11 -122zM986 861q0 41 -33.5 70.5t-76.5 29.5t-76 -29
q-33 -27 -33 -71q0 -41 33 -71q34 -28 76 -28q43 0 76.5 27.5t33.5 71.5zM537 867q0 44 -32.5 72t-75.5 28q-46 0 -78 -27.5t-32 -72.5q0 -41 33 -71q34 -28 77 -28t75.5 27.5t32.5 71.5zM975 485q17 42 17 79q0 49 -27.5 81.5t-75.5 32.5q-88 0 -114 -108l-52 -1
q-25 0 -54 5t-67 17q-140 43 -154 43q-43 0 -74 -29.5t-31 -73.5q0 -62 83 -96q232 -64 297 -64q103 0 150 16q72 24 102 98z" />
    <glyph glyph-name="ch669" unicode="&#x123;" horiz-adv-x="1783" 
d="M1722 1397q0 -63 -13 -185t-13 -173l-4 -190l-3 -190l4 -177l5 -177q0 -44 7 -121l7 -121q0 -67 -53 -107q-49 -35 -118 -35q-159 0 -159 295l4 238l4 238l-7 319q-286 -504 -320 -552q-109 -159 -229 -159q-60 -6 -151 167l-283 544l-7 -319q0 -77 1 -133t2 -105l5 -238
q0 -295 -158 -295q-71 0 -118 35q-54 39 -54 107q0 44 7 121l7 121l4 177l5 177l-3 190l-3 190q0 33 -3 74t-11 105q-13 128 -13 179q0 65 60 109.5t126 44.5q82 0 180 -128q218 -281 245 -328l172 -317q17 -87 39 -87q9 2 27 13l10 25l182 342q40 77 254 352
q99 128 180 128q72 0 129 -42.5t57 -111.5z" />
    <glyph glyph-name="ch677" unicode="&#x124;" horiz-adv-x="2186" 
d="M2125 1406q0 -49 -44 -143q-50 -107 -54 -121q-66 -252 -208 -578l-262 -566q-36 -78 -137 -78q-163 0 -290 398l-66 217l-93 -248q-36 -93 -162 -289q-50 -78 -137 -78q-111 0 -160 98q-62 126 -254 688q-197 580 -197 682q0 60 49 99q44 35 107 35q109 0 148 -100
q56 -151 157 -501q44 -155 58 -201q34 -111 52 -166.5t47 -133.5q75 171 110 239q74 146 150 249q-130 404 -130 480q0 60 49 99q44 35 107 35q109 0 148 -100q56 -151 157 -501q44 -155 58 -201q34 -111 52 -166.5t47 -133.5q240 551 388 933q60 158 176 158q48 0 91 -28.5
t43 -76.5z" />
    <glyph glyph-name="glyph100" unicode="&#x125;" horiz-adv-x="1837" 
d="M1776 566q-4 -41 -7.5 -101.5t-3.5 -113.5q0 -122 -64 -209.5t-186 -142.5q-141 -63 -308 -63q-213 0 -322 112q-156 -100 -373 -100q-305 0 -398 233q-51 128 -51 475l-1 57l-1 57q0 296 162 296q61 0 107.5 -34t46.5 -95q0 -18 -2.5 -68.5t-2.5 -72.5l-5 -140
q0 -281 42 -421q61 -23 103 -23q82 0 130 16q72 24 130 94q-13 99 -13 322l-2 67l-2 67q0 195 79 252q42 30 92 30q55 0 102 -30q26 -17 39 -38t13 -50l1 -364q0 -16 -1 -38t-4 -48l-6 -85q9 -106 34 -184q61 -23 103 -23q88 0 135 17q71 25 134 105l-4 253l-4 105l-4 104
q0 284 157 284q57 0 102 -30q26 -17 39 -38t13 -50z" />
    <glyph glyph-name="glyph101" unicode="&#x126;" horiz-adv-x="1656" 
d="M1595 467l-4 -186l-4 -184q0 -59 -46.5 -95t-106.5 -36q-162 0 -162 329q0 71 15.5 221.5t15.5 214.5q0 83 -47 83q-166 0 -260 -59q9 -63 9 -295l-4 -186l-4 -184q0 -59 -48 -97q-43 -34 -105 -34q-161 0 -161 329q0 71 15 216.5t15 219.5q0 83 -47 83q-252 0 -285 -196
q-4 -27 -7 -72t-3 -97q0 -28 2 -104.5t2 -96.5l4 -159q0 -30 -11 -54t-36 -44q-21 -16 -48 -25t-58 -9q-112 0 -147 108q-18 54 -18 193q0 13 7 193q4 103 4 163q0 88 3.5 173t8.5 183q0 60 46.5 94.5t107.5 34.5q138 0 155 -168q99 91 121 105q65 42 152 42q187 0 267 -125
q153 132 323 132q242 0 309 -217q30 -96 30 -394z" />
    <glyph glyph-name="ampersand.001" unicode="&#x26;" horiz-adv-x="1221" 
d="M1162 524q-16 -24 -40.5 -55t-53.5 -63.5t-59.5 -65.5t-60.5 -63l140 -230q-12 -28 -34 -58t-50.5 -57t-61.5 -43.5t-64 -16.5q-39 0 -74 28t-59 93v-3l-37 87q-77 -54 -154.5 -101.5t-156.5 -79.5t-151.5 -49.5t-138.5 -17.5q-77 0 -128.5 20.5t-83 58t-45 88
t-13.5 110.5q0 51 8 110.5t28 118.5q60 228 192 371.5t321 240.5q-14 46 -24.5 94.5t-10.5 95.5q0 41 15 90q40 147 146.5 205t257.5 58q64 0 121 -13.5t102.5 -43.5t71 -71.5t25.5 -97.5q0 -22 -7 -57q-16 -57 -53 -111t-86 -102t-105 -90.5t-108 -69.5q25 -66 54 -148
t59 -164q9 7 14 13t8 12v-2q6 8 9 14t7 11q2 2 3 7t5 9q19 42 53.5 88.5t95.5 46.5q66 0 120.5 -24t54.5 -78q0 -27 -11.5 -47.5t-40.5 -47.5zM165 98q43 0 98 17.5t114.5 46t121.5 68t120 82.5q-32 76 -58 151t-50 143q-13 31 -22 56.5t-19 50.5q-125 -70 -210.5 -162
t-125.5 -233q-13 -56 -13 -122q0 -39 9 -68.5t35 -29.5zM813 1224v3q0 15 -33.5 20.5t-57.5 5.5q-39 0 -63.5 -10.5t-30.5 -37.5q-5 -10 -5 -31q0 -26 6 -53t16 -52q57 25 105 63.5t61 88.5z" />
    </font>
</defs>
</svg>
